<svg width="18" height="18" viewBox="0 0 18 18" xmlns="http://www.w3.org/2000/svg" id="FxSymbol0-02e">
  <defs>
    <linearGradient id="paint0_linear" x1="9" y1="17.293" x2="9" y2=".707" gradientUnits="userSpaceOnUse">
      <stop offset="0" stop-color="#005ba1" />
      <stop offset=".174" stop-color="#0861a8" />
      <stop offset=".443" stop-color="#1e71ba" />
      <stop offset=".772" stop-color="#418bd7" />
      <stop offset="1" stop-color="#5ea0ef" />
    </linearGradient>
  </defs>
  <path d="M.707 5.683h4.976V.707H1.4a.691.691 0 0 0-.693.693Zm.693 11.61h4.283v-4.976H.707V16.6a.691.691 0 0 0 .693.693Zm-.691-5.8h4.974V6.512H.707ZM12.317.707v4.976h4.976V1.4A.691.691 0 0 0 16.6.707ZM6.512 5.683h4.976V.707H6.512Z" fill="url(#paint0_linear)" />
  <path d="M6.5 6.529h10.721v10.1a.626.626 0 0 1-.626.626H6.5V6.529Z" fill="#76bc2d" />
  <rect x="7.266" y="9.861" width="5.403" height="1.407" rx=".398" fill="#365615" />
  <rect x="12.518" y="9.861" width="3.945" height="1.407" rx=".398" fill="#b4ec36" />
  <path d="M13.047 9.761v1.469a.334.334 0 0 1-.334.334.333.333 0 0 1-.334-.334V9.761a.334.334 0 0 1 .334-.334.335.335 0 0 1 .334.334Z" class="msportalfx-svg-c01" />
  <rect x="7.266" y="12.298" width="2.403" height="1.407" rx=".398" fill="#365615" />
  <path d="M9.779 12.3h6.287a.4.4 0 0 1 .4.4v.612a.4.4 0 0 1-.4.4H9.779V12.3Z" fill="#b4ec36" />
  <path d="M9.805 12.274v1.469a.334.334 0 0 1-.334.334.334.334 0 0 1-.334-.334v-1.469a.333.333 0 0 1 .334-.334.333.333 0 0 1 .334.334Z" class="msportalfx-svg-c01" />
</svg>
