<svg width="54" height="32" viewBox="0 0 54 32" fill="none" xmlns="http://www.w3.org/2000/svg">
<path d="M40.4071 14.9238C40.4071 23.516 30.0194 30.4344 27.7622 31.8367C27.6329 31.9175 27.4835 31.9603 27.331 31.9603C27.1787 31.9603 27.0293 31.9175 26.9 31.8367C24.6427 30.4344 14.2551 23.516 14.2551 14.9238V4.58328C14.256 4.36919 14.3403 4.16388 14.4902 4.01099C14.6401 3.85807 14.8436 3.76964 15.0577 3.76446C23.1373 3.54525 21.2768 0 27.331 0C33.3854 0 31.525 3.54525 39.6044 3.76446C39.8185 3.76964 40.0222 3.85807 40.172 4.01099C40.3219 4.16388 40.4062 4.36919 40.4071 4.58328V14.9238Z" fill="url(#paint0_linear_1073_1117)"/>
<path d="M39.322 15.0107C39.322 22.891 29.7969 29.2352 27.7279 30.5214C27.6094 30.5951 27.4725 30.6341 27.3331 30.6341C27.1934 30.6341 27.0565 30.5951 26.938 30.5214C24.8674 29.2352 15.344 22.891 15.344 15.0107V5.52891C15.344 5.33247 15.421 5.14387 15.5585 5.00365C15.696 4.8634 15.8831 4.78271 16.0795 4.77892C23.4852 4.57783 21.7787 1.32605 27.3311 1.32605C32.8836 1.32605 31.1773 4.5869 38.5865 4.77892C38.7829 4.78271 38.97 4.8634 39.1075 5.00365C39.245 5.14387 39.322 5.33247 39.322 5.52891V15.0107Z" fill="url(#paint1_linear_1073_1117)"/>
<path d="M33.1681 18.0669H21.4942C21.1656 18.0669 20.8504 18.1974 20.6181 18.4298C20.3857 18.6622 20.2551 18.9774 20.2551 19.306V20.8422C20.2551 20.897 20.2769 20.9495 20.3156 20.9883C20.3543 21.027 20.4069 21.0487 20.4616 21.0487H34.2007C34.2278 21.0487 34.2545 21.0434 34.2797 21.033C34.3048 21.0226 34.3276 21.0074 34.3468 20.9883C34.3657 20.9691 34.381 20.9463 34.3913 20.9213C34.4017 20.8962 34.4072 20.8693 34.4072 20.8422V19.306C34.4072 18.9774 34.2766 18.6622 34.0442 18.4298C33.8118 18.1974 33.4967 18.0669 33.1681 18.0669Z" fill="white"/>
<path d="M33.1173 22.5795H21.545C21.506 22.5795 21.4687 22.5951 21.4412 22.6225C21.4137 22.6501 21.3982 22.6874 21.3982 22.7262V23.5017C21.3982 23.7357 21.4911 23.9601 21.6566 24.1254C21.8221 24.2909 22.0464 24.3838 22.2804 24.3838H32.3817C32.6159 24.3838 32.8401 24.2909 33.0056 24.1254C33.1711 23.9601 33.264 23.7357 33.264 23.5017V22.7262C33.264 22.6874 33.2486 22.6501 33.221 22.6225C33.1936 22.5951 33.1561 22.5795 33.1173 22.5795Z" fill="white"/>
<path d="M30.0194 11.3205C30.8364 10.1339 31.4089 10.3586 30.9435 7.61766C30.4778 4.87673 27.429 4.90028 27.2423 4.90028C27.0558 4.90028 24.0068 4.8713 23.5413 7.61766C23.0757 10.364 23.6481 10.1339 24.4634 11.3205C24.9897 12.9829 25.2413 14.7201 25.2079 16.4636H29.2768C29.2435 14.7203 29.4944 12.9832 30.0194 11.3205Z" fill="white"/>
<defs>
<linearGradient id="paint0_linear_1073_1117" x1="27.331" y1="-1.57607" x2="27.331" y2="34.976" gradientUnits="userSpaceOnUse">
<stop stop-color="#5E9624"/>
<stop offset="0.316" stop-color="#619A25"/>
<stop offset="0.659" stop-color="#69A728"/>
<stop offset="0.999" stop-color="#76BC2D"/>
</linearGradient>
<linearGradient id="paint1_linear_1073_1117" x1="27.3311" y1="31.9" x2="27.3311" y2="-2.07428" gradientUnits="userSpaceOnUse">
<stop stop-color="#5E9624"/>
<stop offset="0.546" stop-color="#6DAD2A"/>
<stop offset="0.999" stop-color="#76BC2D"/>
</linearGradient>
</defs>
</svg>
