<svg width="49" height="32" viewBox="0 0 49 32" fill="none" xmlns="http://www.w3.org/2000/svg">
<path d="M37.4071 14.9238C37.4071 23.516 27.0194 30.4344 24.7622 31.8367C24.6329 31.9175 24.4835 31.9603 24.331 31.9603C24.1787 31.9603 24.0293 31.9175 23.9 31.8367C21.6427 30.4344 11.2551 23.516 11.2551 14.9238V4.58328C11.256 4.36919 11.3403 4.16388 11.4902 4.01099C11.6401 3.85807 11.8436 3.76964 12.0577 3.76446C20.1373 3.54525 18.2768 0 24.331 0C30.3854 0 28.525 3.54525 36.6044 3.76446C36.8185 3.76964 37.0222 3.85807 37.172 4.01099C37.3219 4.16388 37.4062 4.36919 37.4071 4.58328V14.9238Z" fill="url(#paint0_linear_1073_1117)"/>
<path d="M36.322 15.0107C36.322 22.891 26.7968 29.2352 24.7279 30.5214C24.6094 30.5951 24.4725 30.6341 24.3331 30.6341C24.1934 30.6341 24.0565 30.5951 23.938 30.5214C21.8674 29.2352 12.344 22.891 12.344 15.0107V5.52891C12.344 5.33247 12.421 5.14387 12.5585 5.00365C12.696 4.8634 12.8831 4.78271 13.0795 4.77892C20.4852 4.57783 18.7787 1.32605 24.3311 1.32605C29.8836 1.32605 28.1773 4.5869 35.5865 4.77892C35.7829 4.78271 35.97 4.8634 36.1075 5.00365C36.245 5.14387 36.322 5.33247 36.322 5.52891V15.0107Z" fill="url(#paint1_linear_1073_1117)"/>
<path d="M30.1681 18.0669H18.4942C18.1656 18.0669 17.8504 18.1974 17.6181 18.4298C17.3857 18.6622 17.2551 18.9774 17.2551 19.306V20.8422C17.2551 20.897 17.2769 20.9495 17.3156 20.9883C17.3543 21.027 17.4069 21.0487 17.4616 21.0487H31.2007C31.2278 21.0487 31.2545 21.0434 31.2797 21.033C31.3048 21.0226 31.3276 21.0074 31.3468 20.9883C31.3657 20.9691 31.381 20.9463 31.3913 20.9213C31.4017 20.8962 31.4072 20.8693 31.4072 20.8422V19.306C31.4072 18.9774 31.2766 18.6622 31.0442 18.4298C30.8118 18.1974 30.4967 18.0669 30.1681 18.0669Z" fill="white"/>
<path d="M30.1173 22.5795H18.545C18.506 22.5795 18.4687 22.5951 18.4412 22.6225C18.4137 22.6501 18.3982 22.6874 18.3982 22.7262V23.5017C18.3982 23.7357 18.4911 23.9601 18.6566 24.1254C18.8221 24.2909 19.0464 24.3838 19.2804 24.3838H29.3817C29.6159 24.3838 29.8401 24.2909 30.0056 24.1254C30.1711 23.9601 30.264 23.7357 30.264 23.5017V22.7262C30.264 22.6874 30.2486 22.6501 30.221 22.6225C30.1936 22.5951 30.1561 22.5795 30.1173 22.5795Z" fill="white"/>
<path d="M27.0194 11.3205C27.8364 10.1339 28.4089 10.3586 27.9435 7.61765C27.4778 4.87673 24.429 4.90028 24.2423 4.90028C24.0558 4.90028 21.0068 4.8713 20.5413 7.61765C20.0757 10.364 20.6481 10.1339 21.4634 11.3205C21.9897 12.9829 22.2413 14.7201 22.2079 16.4636H26.2768C26.2435 14.7203 26.4944 12.9832 27.0194 11.3205Z" fill="white"/>
<defs>
<linearGradient id="paint0_linear_1073_1117" x1="24.331" y1="-1.57607" x2="24.331" y2="34.976" gradientUnits="userSpaceOnUse">
<stop stop-color="#5E9624"/>
<stop offset="0.316" stop-color="#619A25"/>
<stop offset="0.659" stop-color="#69A728"/>
<stop offset="0.999" stop-color="#76BC2D"/>
</linearGradient>
<linearGradient id="paint1_linear_1073_1117" x1="24.3311" y1="31.9" x2="24.3311" y2="-2.07428" gradientUnits="userSpaceOnUse">
<stop stop-color="#5E9624"/>
<stop offset="0.546" stop-color="#6DAD2A"/>
<stop offset="0.999" stop-color="#76BC2D"/>
</linearGradient>
</defs>
</svg>
