<svg width="100" height="66" viewBox="0 0 100 66" fill="none" xmlns="http://www.w3.org/2000/svg">
<g clip-path="url(#clip0_1070_1013)">
<path d="M77.046 30.7379C77.046 48.435 55.651 62.6845 51.0019 65.5727C50.7355 65.7391 50.4278 65.8273 50.1137 65.8273C49.8001 65.8273 49.4923 65.7391 49.226 65.5727C44.5767 62.6845 23.1819 48.435 23.1819 30.7379V9.44C23.1837 8.99904 23.3574 8.57618 23.666 8.26127C23.9747 7.94632 24.394 7.76418 24.8348 7.7535C41.4761 7.302 37.6441 0 50.1137 0C62.5837 0 58.7519 7.302 75.3928 7.7535C75.8337 7.76418 76.2532 7.94632 76.5619 8.26127C76.8705 8.57618 77.0442 8.99904 77.046 9.44V30.7379Z" fill="url(#paint0_linear_1070_1013)"/>
<path d="M74.8109 30.9169C74.8109 47.1477 55.1923 60.2145 50.9309 62.8636C50.6868 63.0154 50.405 63.0958 50.1177 63.0958C49.83 63.0958 49.5482 63.0154 49.3041 62.8636C45.0394 60.2145 25.4243 47.1477 25.4243 30.9169V11.3877C25.4242 10.9831 25.5829 10.5946 25.8661 10.3058C26.1494 10.0169 26.5347 9.85075 26.9392 9.84293C42.1925 9.42875 38.6776 2.7312 50.1136 2.7312C61.55 2.7312 58.0355 9.44743 73.2959 9.84293C73.7005 9.85075 74.0859 10.0169 74.3691 10.3058C74.6523 10.5946 74.8109 10.9831 74.8109 11.3877V30.9169Z" fill="url(#paint1_linear_1070_1013)"/>
<path d="M62.136 37.2117H38.0919C37.4151 37.2117 36.7659 37.4805 36.2873 37.9592C35.8087 38.4378 35.5398 39.0869 35.5398 39.7638V42.9279C35.5398 43.0407 35.5846 43.1489 35.6643 43.2287C35.7441 43.3084 35.8523 43.3533 35.9652 43.3533H64.2628C64.3188 43.3533 64.3737 43.3423 64.4256 43.3209C64.4774 43.2995 64.5242 43.2682 64.5637 43.2287C64.6028 43.1892 64.6342 43.1423 64.6556 43.0907C64.6769 43.0391 64.6883 42.9838 64.6883 42.9279V39.7638C64.6883 39.0869 64.4192 38.4378 63.9406 37.9592C63.4619 37.4805 62.8128 37.2117 62.136 37.2117Z" fill="white"/>
<path d="M62.0314 46.5059H38.1963C38.1161 46.5059 38.0393 46.5381 37.9826 46.5945C37.9259 46.6513 37.894 46.7281 37.894 46.8081V48.4054C37.894 48.8872 38.0855 49.3495 38.4263 49.6899C38.767 50.0309 39.2292 50.2222 39.7112 50.2222H60.5164C60.9986 50.2222 61.4605 50.0309 61.8014 49.6899C62.1423 49.3495 62.3336 48.8872 62.3336 48.4054V46.8081C62.3336 46.7281 62.3018 46.6513 62.245 46.5945C62.1886 46.5381 62.1114 46.5059 62.0314 46.5059Z" fill="white"/>
<path d="M55.6509 23.3165C57.3336 20.8726 58.5127 21.3353 57.554 15.6899C56.595 10.0445 50.3154 10.093 49.9309 10.093C49.5468 10.093 43.267 10.0334 42.308 15.6899C41.3491 21.3465 42.5282 20.8726 44.2073 23.3165C45.2914 26.7405 45.8095 30.3186 45.7409 33.9095H54.1213C54.0527 30.3189 54.5695 26.7411 55.6509 23.3165Z" fill="white"/>
</g>
<defs>
<linearGradient id="paint0_linear_1070_1013" x1="50.1137" y1="-3.24617" x2="50.1137" y2="72.0386" gradientUnits="userSpaceOnUse">
<stop stop-color="#5E9624"/>
<stop offset="0.316" stop-color="#619A25"/>
<stop offset="0.659" stop-color="#69A728"/>
<stop offset="0.999" stop-color="#76BC2D"/>
</linearGradient>
<linearGradient id="paint1_linear_1070_1013" x1="50.1136" y1="65.7031" x2="50.1136" y2="-4.27232" gradientUnits="userSpaceOnUse">
<stop stop-color="#5E9624"/>
<stop offset="0.546" stop-color="#6DAD2A"/>
<stop offset="0.999" stop-color="#76BC2D"/>
</linearGradient>
<clipPath id="clip0_1070_1013">
<rect width="100" height="65.9091" fill="white"/>
</clipPath>
</defs>
</svg>
