<svg width="49" height="32" viewBox="0 0 49 32" fill="none" xmlns="http://www.w3.org/2000/svg">
<path fill-rule="evenodd" clip-rule="evenodd" d="M22.4141 0.0289066C22.39 0.0679141 22.2084 0.123152 21.7305 0.236588C21.3079 0.336841 20.5998 0.558601 20.3694 0.66289C20.0203 0.820714 19.6904 0.988041 19.6795 1.0127C19.6728 1.0275 19.6511 1.0396 19.631 1.0396C19.6109 1.0396 19.268 1.25751 18.8692 1.52383C18.4703 1.79016 18.1352 2.00806 18.1246 2.00806C18.114 2.00806 17.9849 2.07944 17.8378 2.1667C17.5604 2.33106 16.6373 2.78588 16.418 2.86623C16.3491 2.89143 16.2606 2.92507 16.2212 2.94093C15.8401 3.09497 14.8546 3.41601 14.5577 3.48281C14.4888 3.49833 14.352 3.52953 14.2536 3.55222C13.8615 3.64244 13.7696 3.661 13.2698 3.75084C12.9845 3.80215 12.6062 3.85863 12.4291 3.87648C11.472 3.97261 10.736 4.02372 9.61186 4.07188L9.0484 4.096L9.04822 7.36528C9.04804 9.25109 9.0629 10.7864 9.08329 10.9932C9.10269 11.1905 9.1355 11.5698 9.15607 11.8362C9.17675 12.1025 9.20848 12.4172 9.22673 12.5356C9.24499 12.654 9.28542 12.9445 9.31671 13.1812C9.37663 13.6358 9.42672 13.9488 9.47733 14.1856C9.49423 14.2645 9.53528 14.4582 9.56856 14.616C9.68376 15.1626 9.87336 15.9146 10.0207 16.4094C10.1185 16.7379 10.4735 17.8239 10.5131 17.916C10.5301 17.9554 10.6205 18.1895 10.714 18.4361C10.8753 18.8618 10.9261 18.9834 11.1451 19.4673C11.1965 19.5807 11.2711 19.7462 11.3111 19.8349C11.4192 20.0755 11.8527 20.9436 11.9468 21.1083C11.9918 21.1872 12.0855 21.3567 12.1549 21.4849C12.2243 21.6132 12.3507 21.8272 12.4356 21.9605C12.5206 22.0939 12.5901 22.2106 12.5901 22.2197C12.5901 22.3607 13.9476 24.2428 14.6861 25.1255C15.382 25.9575 16.5521 27.1698 17.1446 27.6725C17.168 27.6926 17.3075 27.8135 17.4546 27.9415C17.8801 28.3121 17.8751 28.3079 18.2604 28.6157C18.6369 28.9165 18.5971 28.8861 19.0474 29.2175C19.2639 29.3769 19.618 29.6249 19.8344 29.7691C20.0509 29.9129 20.2716 30.061 20.3249 30.0979C20.3782 30.135 20.43 30.1652 20.4399 30.1652C20.4499 30.1652 20.5953 30.2539 20.763 30.3625C20.9308 30.4711 21.0751 30.5598 21.0839 30.5598C21.0926 30.5598 21.1773 30.6066 21.272 30.6639C21.6613 30.8996 22.6615 31.4125 23.4657 31.7888C24.0604 32.0671 24.1302 32.068 24.6819 31.8051C24.9081 31.6974 25.2543 31.5328 25.451 31.4397C26.8292 30.7869 27.3527 30.4938 28.4014 29.7876C29.4062 29.1114 30.8634 27.9848 31.3001 27.5467C31.3101 27.537 31.4147 27.4412 31.5327 27.334C31.9359 26.9674 32.5698 26.3387 32.9101 25.9675C33.097 25.7635 33.2883 25.5552 33.3353 25.5047C33.3823 25.4539 33.6322 25.1538 33.8906 24.8377C34.3686 24.2529 34.5719 23.981 35.0647 23.2667C35.2167 23.0462 35.3577 22.8465 35.3778 22.8226C35.3979 22.7988 35.4142 22.771 35.4142 22.7611C35.4142 22.7509 35.5058 22.601 35.6177 22.4278C36.0578 21.7457 37.2029 19.5736 37.2029 19.4209C37.2029 19.413 37.2415 19.3214 37.2886 19.2173C37.3356 19.1131 37.4097 18.9391 37.4532 18.8306C37.4967 18.7221 37.549 18.593 37.5693 18.5437C37.6348 18.3839 37.6609 18.3149 37.7575 18.0415C37.8098 17.8935 37.867 17.7402 37.8842 17.7007C37.9016 17.6613 37.9658 17.4676 38.027 17.2703C38.2181 16.6542 38.2494 16.555 38.277 16.4812C38.3119 16.3883 38.358 16.2195 38.4937 15.6921C38.5544 15.4553 38.6191 15.2052 38.6374 15.1361C38.6555 15.0671 38.7124 14.8088 38.7636 14.5622C38.8151 14.3156 38.8713 14.0493 38.8888 13.9704C38.9062 13.8915 38.9362 13.7462 38.9556 13.6475C38.9748 13.5489 39.0316 13.2745 39.0817 13.0378C39.1315 12.801 39.1867 12.5186 39.2041 12.4101C39.2216 12.3016 39.2463 10.3767 39.2593 8.1327L39.2827 4.05259L38.4842 4.05162C37.46 4.05036 36.852 4.01161 35.7362 3.87639C35.4047 3.83614 34.6531 3.7062 34.4842 3.65992C34.4154 3.641 34.2141 3.59115 34.0369 3.549C33.5031 3.42201 32.6227 3.13748 32.2125 2.95923C32.1535 2.93358 32.033 2.88534 31.9452 2.85206C31.7881 2.79252 30.8848 2.35043 30.6743 2.23C30.6151 2.19629 30.4703 2.11325 30.3523 2.04546C30.2342 1.97767 29.9363 1.79339 29.6904 1.63583C29.2265 1.33884 28.6909 1.0257 28.474 0.924822C27.9885 0.69894 27.8077 0.626483 27.3727 0.483547C26.7402 0.275595 26.7169 0.26878 26.3991 0.197491C26.1448 0.140549 26.0321 0.103693 25.8897 0.0310588C25.8114 -0.00893523 22.4388 -0.0109977 22.4141 0.0289066ZM25.1111 2.02681C26.0486 2.12383 26.8193 2.31815 27.4544 2.61758C27.5725 2.67317 27.7254 2.74419 27.7943 2.77522C27.8631 2.80633 27.9677 2.86067 28.0269 2.89609C28.0858 2.93142 28.2147 3.00683 28.3131 3.06359C28.4113 3.12035 28.6395 3.26124 28.82 3.37655C29.0006 3.49197 29.159 3.5863 29.1722 3.5863C29.1855 3.5863 29.2411 3.61823 29.2958 3.65731C29.4238 3.74879 30.5317 4.3051 30.8351 4.43039C30.9631 4.48311 31.1326 4.55574 31.2121 4.59171C31.2913 4.62766 31.4604 4.69169 31.5877 4.73401C31.7148 4.77634 31.8512 4.82531 31.8905 4.84279C31.9907 4.88735 32.4958 5.05181 32.7313 5.11665C32.8394 5.14642 32.9763 5.18462 33.0352 5.20148C33.3596 5.29439 33.443 5.31591 33.5898 5.3446C33.6783 5.36199 33.8634 5.40171 34.0012 5.43292C34.3214 5.50557 34.5551 5.55121 34.8241 5.59371C34.9422 5.61245 35.1432 5.64465 35.2712 5.66543C35.6393 5.72518 36.4378 5.81583 36.8167 5.84093C37.0076 5.85366 37.1815 5.88182 37.2034 5.90363C37.2554 5.95597 37.2305 9.65954 37.1718 10.5807C37.1341 11.1755 37.0685 11.8497 36.9889 12.4639C36.9734 12.5822 36.9505 12.7679 36.9374 12.8764C36.9246 12.9849 36.8988 13.1543 36.8801 13.253C36.8613 13.3516 36.8211 13.5695 36.7909 13.7372C36.7607 13.9049 36.7209 14.1067 36.7026 14.1856C36.5989 14.6363 36.4076 15.4179 36.3822 15.4948C36.3661 15.5441 36.3321 15.6571 36.3071 15.7459C36.1046 16.4617 35.6228 17.7737 35.3268 18.4165C35.2569 18.5682 35.1997 18.7001 35.1997 18.7094C35.1997 18.7798 34.3726 20.352 34.1453 20.7137C34.0833 20.8124 34.0234 20.9173 34.0122 20.9469C34.0009 20.9765 33.8531 21.2075 33.6836 21.4602C33.5139 21.7129 33.3751 21.9261 33.3751 21.9341C33.3751 21.942 33.3067 22.0438 33.223 22.1601C33.1396 22.2766 32.9681 22.5152 32.8421 22.6907C32.7163 22.8659 32.5342 23.1062 32.4374 23.2245C32.3407 23.343 32.2425 23.4639 32.2191 23.4935C32.0249 23.7396 31.8792 23.917 31.819 23.9806C31.7797 24.0223 31.6438 24.1759 31.5171 24.322C31.2719 24.6047 30.2576 25.6285 30.0482 25.8048C29.9793 25.8628 29.8021 26.0171 29.6547 26.1478C29.507 26.2784 29.2334 26.505 29.0465 26.6514C28.8595 26.7977 28.6984 26.9268 28.6887 26.938C28.6108 27.0279 26.8632 28.1924 26.8062 28.1924C26.795 28.1924 26.7431 28.2222 26.6908 28.2586C26.5924 28.3273 26.3593 28.4553 25.7193 28.7927C24.1569 29.6166 24.1765 29.609 23.8713 29.5025C23.7232 29.4506 22.8607 29.0194 22.5891 28.8614C22.5103 28.8155 22.3655 28.7327 22.2671 28.6775C22.1687 28.6221 22.019 28.5378 21.9343 28.4902C21.8496 28.4423 21.596 28.2831 21.3705 28.1364C21.1451 27.9896 20.9533 27.8696 20.9444 27.8696C20.9211 27.8696 20.2408 27.3907 19.9285 27.1543C19.7835 27.0446 19.6218 26.9226 19.5692 26.8831C19.4508 26.7944 18.9466 26.3883 18.9222 26.362C18.9124 26.3515 18.7192 26.1795 18.4929 25.98C17.0791 24.7331 15.8998 23.3691 14.8204 21.7317C14.5776 21.3633 14.3788 21.0511 14.3788 21.0378C14.3788 21.0244 14.3332 20.9462 14.2775 20.8637C14.2219 20.7812 14.1104 20.5927 14.0299 20.4447C13.9495 20.2968 13.8258 20.0708 13.7552 19.9426C13.525 19.5248 13.0806 18.599 12.8944 18.1491C12.7872 17.8901 12.7326 17.7613 12.6507 17.5752C12.6203 17.5061 12.5609 17.3528 12.5187 17.2345C12.4765 17.1161 12.4285 16.9869 12.412 16.9475C12.246 16.5493 11.9052 15.4971 11.802 15.0644C11.7855 14.9953 11.7541 14.8743 11.7322 14.7953C11.6483 14.4927 11.499 13.8045 11.4132 13.3247C11.3725 13.0971 11.2429 12.164 11.1965 11.7644C11.0946 10.8872 10.9876 6.80159 11.0567 6.43035C11.1154 6.11569 11.2395 6.05641 11.9819 5.9889C12.4042 5.95043 12.8694 5.89806 13.0909 5.86388C13.6693 5.77494 13.7473 5.7606 14.5756 5.5921C14.8043 5.54564 14.9819 5.50089 15.3447 5.39849C15.5317 5.34577 15.7248 5.29457 15.774 5.2847C15.8232 5.27484 15.8957 5.25277 15.935 5.23564C15.9744 5.21852 16.1756 5.1465 16.3822 5.07558C16.5888 5.00473 16.8786 4.89642 17.0262 4.83507C17.1737 4.77365 17.3508 4.70047 17.4197 4.6726C17.8853 4.48364 18.9194 3.93216 19.5153 3.55491C20.6397 2.84328 20.938 2.67756 21.4622 2.47311C22.0806 2.23188 22.846 2.04653 23.2447 2.04124C23.3564 2.03981 23.5202 2.02573 23.6087 2.00986C23.8761 1.96215 24.5616 1.96987 25.1111 2.02681ZM23.5014 4.03672C23.4522 4.04507 23.275 4.07009 23.1079 4.09231C22.1614 4.21839 21.864 4.33964 19.2799 5.6527C18.1895 6.20679 17.8232 6.38175 17.2944 6.60118C17.0977 6.68286 16.8562 6.78608 16.7578 6.83065C16.6595 6.87512 16.4904 6.93906 16.3822 6.9726C16.274 7.00615 16.1575 7.04883 16.1233 7.06748C16.0891 7.08621 16.0366 7.10146 16.0066 7.10146C15.9765 7.10146 15.924 7.11742 15.8898 7.13688C15.8303 7.17096 15.582 7.24063 14.7545 7.45549C14.6757 7.47593 14.4343 7.5343 14.2178 7.58524C14.0014 7.63617 13.768 7.6924 13.6991 7.71024C13.6302 7.72809 13.4853 7.76521 13.3771 7.79284L13.1804 7.84296L13.1849 9.04152C13.1874 9.7007 13.209 10.4579 13.2328 10.7242C13.2567 10.9905 13.2892 11.3618 13.3052 11.5492C13.3211 11.7366 13.3507 11.9868 13.3709 12.1052C13.3911 12.2235 13.4349 12.4899 13.4683 12.697C13.5624 13.2791 13.5963 13.4537 13.7154 13.9704C13.7472 14.1085 13.7876 14.2941 13.8051 14.3829C13.8226 14.4716 13.86 14.6169 13.8881 14.7057C13.9162 14.7945 13.9594 14.9397 13.9843 15.0285C14.0091 15.1173 14.0425 15.2303 14.0586 15.2796C14.0747 15.3289 14.1137 15.4661 14.1453 15.5845C14.1769 15.7028 14.2166 15.832 14.2335 15.8714C14.2504 15.9109 14.2837 15.9996 14.3073 16.0687C14.3309 16.1378 14.3631 16.2265 14.3786 16.266C14.3943 16.3054 14.4341 16.4184 14.4673 16.5171C14.5004 16.6157 14.5423 16.7327 14.5605 16.7771C14.5786 16.8215 14.6079 16.8941 14.6256 16.9385C14.9007 17.6305 15.0029 17.8598 15.3175 18.4899C15.5128 18.8808 15.6268 19.0964 15.8156 19.4314C15.8518 19.4955 15.9149 19.6085 15.9559 19.6825C16.04 19.834 16.2867 20.2331 16.3874 20.3805C16.4239 20.434 16.4537 20.4862 16.4537 20.4966C16.4537 20.5071 16.4765 20.5441 16.5044 20.5788C16.5322 20.6136 16.6936 20.8482 16.8631 21.1001C17.0325 21.3519 17.194 21.586 17.222 21.6202C17.25 21.6543 17.3985 21.8449 17.5519 22.0438C17.8785 22.4667 18.049 22.6737 18.2998 22.9511C18.4002 23.0621 18.537 23.2168 18.6039 23.2947C19.3899 24.2127 20.9968 25.5777 22.3207 26.4519C23.4769 27.2155 23.8258 27.4033 24.0869 27.4033C24.3094 27.4033 24.3071 27.4044 24.9681 26.9892C25.214 26.8348 25.6086 26.5878 25.8447 26.4408C26.5677 25.9904 27.4844 25.3378 27.9174 24.9651C29.4916 23.6109 30.5335 22.4408 31.7356 20.6779C32.0094 20.276 32.1487 20.0471 32.5868 19.279C32.7578 18.9788 33.2605 17.9503 33.4282 17.5573C33.4534 17.4981 33.5081 17.3732 33.5498 17.2796C33.5916 17.1862 33.6255 17.0999 33.6255 17.0878C33.6255 17.0758 33.6478 17.0151 33.6752 16.9529C33.8153 16.6335 34.1883 15.5569 34.3229 15.0823C34.3567 14.9639 34.3969 14.8267 34.4121 14.7774C34.4825 14.5521 34.6778 13.7599 34.735 13.4682C34.7581 13.3498 34.7914 13.1804 34.8091 13.0916C34.8663 12.801 34.9428 12.2913 34.9841 11.9258C35.0062 11.7286 35.0393 11.4622 35.0574 11.334C35.1507 10.6755 35.1843 7.91183 35.1002 7.81023C35.0748 7.77984 35.0106 7.74585 34.957 7.73464C34.9036 7.72352 34.7873 7.69913 34.6988 7.68038C34.6103 7.66164 34.3929 7.62066 34.2159 7.58928C34.0387 7.55798 33.765 7.4987 33.6077 7.45755C33.4503 7.41639 33.2652 7.36914 33.1963 7.35245C32.9233 7.28653 32.5175 7.17339 32.4272 7.13796C32.3877 7.12263 32.1624 7.04845 31.9262 6.97322C31.6901 6.89799 31.4729 6.82428 31.4434 6.80923C31.4138 6.79424 31.2609 6.73847 31.1035 6.68529C30.836 6.5948 30.7555 6.56263 30.3611 6.38875C30.2775 6.35189 30.1689 6.3093 30.1197 6.29414C30.0705 6.27897 29.9497 6.23029 29.8513 6.18591C29.7529 6.14151 29.592 6.06923 29.4936 6.02529C29.1124 5.85501 28.8092 5.70884 27.6654 5.14337C26.2099 4.42375 26.1477 4.39766 25.4064 4.19535C24.969 4.07592 23.8302 3.98113 23.5014 4.03672ZM27.6385 10.0252C27.6499 10.0551 27.6438 10.0995 27.6248 10.1239C27.6058 10.1483 27.5131 10.3135 27.4189 10.4911C27.1214 11.0513 26.9978 11.2791 26.9711 11.3161C26.957 11.3358 26.8524 11.5295 26.7383 11.7465C26.6244 11.9635 26.4911 12.2137 26.4419 12.3025C26.3929 12.3912 26.3112 12.5446 26.2605 12.6432C26.2097 12.7418 26.1598 12.8306 26.1492 12.8405C26.1389 12.8504 26.0813 12.9553 26.0212 13.0736C25.9612 13.192 25.8352 13.4301 25.7414 13.6027L25.5704 13.9166H27.5411C28.8787 13.9166 29.5114 13.9285 29.5114 13.9538C29.5114 13.987 27.4979 16.0269 22.6198 20.9359C20.5508 23.0177 20.5532 23.0177 21.6686 20.911C21.7574 20.7433 21.9665 20.3398 22.1331 20.0143C22.4684 19.3599 22.8994 18.5273 23.117 18.1132C23.4178 17.5408 23.6444 17.0899 23.6444 17.0641C23.6444 17.0493 22.9682 17.0372 22.142 17.0372C20.8889 17.0372 20.6394 17.0289 20.6394 16.9877C20.6394 16.9457 21.3555 15.5057 23.5809 11.0727C24.0284 10.1813 24.0865 10.099 24.3182 10.0275C24.5737 9.94865 27.6084 9.94659 27.6385 10.0252Z" fill="#4474D4"/>
</svg>
