<svg width="100" height="66" viewBox="0 0 100 66" fill="none" xmlns="http://www.w3.org/2000/svg">
<g clip-path="url(#clip0_1070_1020)">
<path fill-rule="evenodd" clip-rule="evenodd" d="M46.1654 0.0595377C46.1159 0.13988 45.7418 0.253651 44.7575 0.487291C43.8872 0.693777 42.4288 1.15053 41.9541 1.36533C41.2351 1.69039 40.5555 2.03503 40.5331 2.08582C40.5194 2.11629 40.4747 2.14123 40.4332 2.14123C40.3918 2.14123 39.6857 2.59004 38.8641 3.13858C38.0426 3.68712 37.3525 4.13593 37.3306 4.13593C37.3087 4.13593 37.0429 4.28295 36.7399 4.46265C36.1684 4.80118 34.2672 5.73795 33.8155 5.90345C33.6737 5.95536 33.4913 6.02464 33.4103 6.05732C32.6254 6.37459 30.5956 7.03582 29.984 7.17341C29.8422 7.20536 29.5603 7.26964 29.3577 7.31636C28.5501 7.50218 28.3608 7.54041 27.3314 7.72545C26.7438 7.83114 25.9645 7.94745 25.5998 7.98423C23.6286 8.18223 22.1126 8.2875 19.7973 8.38668L18.6367 8.43636L18.6364 15.17C18.636 19.0541 18.6666 22.2162 18.7086 22.6423C18.7485 23.0487 18.8161 23.8299 18.8585 24.3785C18.9011 24.927 18.9664 25.5753 19.004 25.8191C19.0416 26.0629 19.1249 26.6613 19.1894 27.1489C19.3128 28.0851 19.4159 28.7297 19.5202 29.2175C19.555 29.38 19.6395 29.7789 19.7081 30.104C19.9454 31.2297 20.3359 32.7787 20.6393 33.7979C20.8408 34.4744 21.5719 36.7111 21.6535 36.9008C21.6885 36.982 21.8748 37.4641 22.0673 37.972C22.3996 38.8489 22.5042 39.0994 22.9553 40.096C23.061 40.3296 23.2147 40.6704 23.297 40.8532C23.5197 41.3486 24.4126 43.1368 24.6064 43.4759C24.6992 43.6384 24.8921 43.9875 25.035 44.2516C25.178 44.5157 25.4383 44.9566 25.6133 45.2312C25.7883 45.5059 25.9314 45.7464 25.9314 45.765C25.9314 46.0555 28.7273 49.9318 30.2485 51.75C31.6819 53.4636 34.0919 55.9605 35.312 56.9959C35.3603 57.0373 35.6477 57.2864 35.9505 57.55C36.827 58.3132 36.8167 58.3045 37.6102 58.9386C38.3858 59.5582 38.3038 59.4955 39.2313 60.1782C39.6771 60.5064 40.4065 61.0173 40.8523 61.3141C41.2981 61.6105 41.7527 61.9155 41.8625 61.9914C41.9723 62.0677 42.0789 62.13 42.0994 62.13C42.1199 62.13 42.4194 62.3127 42.7648 62.5364C43.1104 62.76 43.4077 62.9427 43.4257 62.9427C43.4436 62.9427 43.618 63.0391 43.8131 63.1573C44.6149 63.6427 46.675 64.6991 48.3314 65.4741C49.5564 66.0473 49.7 66.0491 50.8364 65.5077C51.3023 65.2859 52.0154 64.9468 52.4204 64.755C55.2591 63.4105 56.3373 62.8068 58.4973 61.3523C60.5668 59.9596 63.5682 57.6391 64.4677 56.7368C64.4882 56.7168 64.7036 56.5195 64.9468 56.2986C65.7773 55.5436 67.0827 54.2486 67.7836 53.4841C68.1686 53.0641 68.5627 52.635 68.6595 52.5309C68.7564 52.4264 69.2709 51.8082 69.8032 51.1573C70.7877 49.9527 71.2064 49.3927 72.2214 47.9214C72.5345 47.4673 72.825 47.0559 72.8664 47.0068C72.9077 46.9577 72.9414 46.9005 72.9414 46.88C72.9414 46.8591 73.13 46.5505 73.3605 46.1936C74.2668 44.7887 76.6255 40.315 76.6255 40.0005C76.6255 39.9842 76.705 39.7955 76.8018 39.581C76.8986 39.3664 77.0514 39.0081 77.1409 38.7846C77.2304 38.5611 77.3382 38.2952 77.38 38.1936C77.515 37.8645 77.5686 37.7225 77.7677 37.1593C77.8754 36.8546 77.9932 36.5388 78.0286 36.4575C78.0645 36.3762 78.1968 35.9773 78.3227 35.571C78.7164 34.3019 78.7809 34.0976 78.8377 33.9456C78.9095 33.7543 79.0045 33.4067 79.2841 32.3203C79.4091 31.8327 79.5423 31.3175 79.58 31.1752C79.6173 31.033 79.7345 30.5011 79.84 29.9932C79.9459 29.4853 80.0618 28.9367 80.0977 28.7742C80.1336 28.6117 80.1954 28.3125 80.2354 28.1093C80.275 27.9061 80.3918 27.341 80.495 26.8534C80.5977 26.3658 80.7114 25.784 80.7473 25.5605C80.7832 25.337 80.8341 21.3725 80.8609 16.7506L80.9091 8.34695L79.2645 8.34495C77.155 8.34236 75.9027 8.26255 73.6045 7.98405C72.9218 7.90114 71.3736 7.6335 71.0259 7.53818C70.8841 7.49923 70.4695 7.39655 70.1045 7.30973C69.005 7.04818 67.1918 6.46214 66.3468 6.095C66.2254 6.04218 65.9773 5.94282 65.7964 5.87427C65.4727 5.75164 63.6123 4.84109 63.1786 4.59305C63.0568 4.5236 62.7586 4.35258 62.5154 4.21295C62.2723 4.07332 61.6586 3.69377 61.1523 3.36926C60.1968 2.75755 59.0936 2.1126 58.6468 1.90482C57.6468 1.43958 57.2745 1.29034 56.3786 0.995941C55.0759 0.567632 55.0277 0.553595 54.3732 0.406763C53.8495 0.289482 53.6173 0.213573 53.3241 0.0639704C53.1627 -0.0184035 46.2164 -0.0226514 46.1654 0.0595377ZM51.7204 4.17453C53.6514 4.37437 55.2386 4.77459 56.5468 5.39132C56.79 5.50582 57.105 5.65209 57.2468 5.716C57.3886 5.78009 57.6041 5.892 57.7259 5.96495C57.8473 6.03773 58.1127 6.19305 58.3155 6.30995C58.5177 6.42686 58.9877 6.71705 59.3595 6.95455C59.7314 7.19227 60.0577 7.38655 60.085 7.38655C60.1123 7.38655 60.2268 7.45232 60.3395 7.53282C60.6032 7.72123 62.885 8.86705 63.51 9.12509C63.7736 9.23368 64.1227 9.38327 64.2864 9.45736C64.4495 9.53141 64.7977 9.66327 65.06 9.75045C65.3218 9.83764 65.6027 9.9385 65.6836 9.9745C65.89 10.0663 66.9304 10.405 67.4154 10.5385C67.6382 10.5999 67.92 10.6785 68.0414 10.7133C68.7095 10.9046 68.8814 10.949 69.1836 11.008C69.3659 11.0439 69.7473 11.1257 70.0309 11.19C70.6904 11.3396 71.1718 11.4336 71.7259 11.5211C71.9691 11.5597 72.3832 11.626 72.6468 11.6689C73.405 11.7919 75.0495 11.9786 75.83 12.0303C76.2232 12.0565 76.5814 12.1145 76.6264 12.1595C76.7336 12.2673 76.6823 19.8954 76.5614 21.7927C76.4836 23.0178 76.3486 24.4064 76.1845 25.6713C76.1527 25.9151 76.1054 26.2975 76.0786 26.5209C76.0523 26.7444 75.9991 27.0935 75.9605 27.2966C75.9218 27.4998 75.8391 27.9486 75.7768 28.294C75.7145 28.6394 75.6327 29.0549 75.595 29.2175C75.3814 30.1457 74.9873 31.7555 74.935 31.914C74.9018 32.0156 74.8318 32.2483 74.7804 32.4311C74.3632 33.9055 73.3709 36.6078 72.7614 37.9317C72.6173 38.2442 72.4995 38.5157 72.4995 38.535C72.4995 38.6799 70.7959 41.9182 70.3277 42.6632C70.2 42.8664 70.0768 43.0825 70.0536 43.1435C70.0304 43.2044 69.7259 43.6801 69.3768 44.2006C69.0273 44.7211 68.7414 45.1603 68.7414 45.1767C68.7414 45.193 68.6005 45.4026 68.4282 45.6423C68.2564 45.8823 67.9032 46.3736 67.6436 46.735C67.3845 47.0959 67.0095 47.5909 66.81 47.8345C66.6109 48.0786 66.4086 48.3277 66.3604 48.3886C65.9604 48.8955 65.6604 49.2609 65.5364 49.3918C65.4554 49.4777 65.1754 49.7941 64.9145 50.095C64.4095 50.6773 62.3205 52.7859 61.8891 53.1491C61.7473 53.2686 61.3823 53.5864 61.0786 53.8555C60.7745 54.1245 60.2109 54.5914 59.8259 54.8927C59.4409 55.1941 59.1091 55.46 59.0891 55.4832C58.9286 55.6682 55.3291 58.0668 55.2118 58.0668C55.1886 58.0668 55.0818 58.1282 54.9741 58.2032C54.7714 58.3445 54.2914 58.6082 52.9732 59.3032C49.755 61 49.7954 60.9845 49.1668 60.765C48.8618 60.6582 47.0854 59.77 46.5259 59.4445C46.3636 59.35 46.0654 59.1796 45.8627 59.0659C45.66 58.9518 45.3518 58.7782 45.1774 58.68C45.0029 58.5814 44.4805 58.2536 44.0161 57.9514C43.5519 57.6491 43.1568 57.4018 43.1384 57.4018C43.0904 57.4018 41.6892 56.4155 41.0461 55.9286C40.7473 55.7027 40.4143 55.4514 40.3059 55.37C40.062 55.1873 39.0237 54.3509 38.9734 54.2968C38.9531 54.275 38.5552 53.9209 38.0892 53.51C35.1772 50.9418 32.7482 48.1323 30.525 44.7599C30.0249 44.0011 29.6156 43.358 29.6156 43.3307C29.6156 43.3032 29.5216 43.142 29.4069 42.972C29.2923 42.8021 29.0628 42.4139 28.897 42.1091C28.7314 41.8044 28.4766 41.339 28.3311 41.0749C27.8569 40.2144 26.9416 38.3076 26.5583 37.381C26.3374 36.8475 26.2249 36.5823 26.0563 36.1989C25.9937 36.0567 25.8714 35.7409 25.7844 35.4971C25.6974 35.2533 25.5985 34.9873 25.5646 34.906C25.2228 34.086 24.5207 31.9188 24.3081 31.0275C24.2743 30.8852 24.2096 30.6359 24.1644 30.4734C23.9917 29.85 23.684 28.4325 23.5074 27.4444C23.4236 26.9756 23.1567 25.0537 23.061 24.2307C22.8513 22.4238 22.6308 14.009 22.7731 13.2443C22.894 12.5962 23.1497 12.4741 24.6788 12.3351C25.5486 12.2559 26.5067 12.148 26.9629 12.0776C28.1543 11.8944 28.3149 11.8649 30.0209 11.5178C30.4919 11.4221 30.8577 11.33 31.605 11.119C31.99 11.0105 32.3879 10.905 32.4892 10.8847C32.5905 10.8644 32.7398 10.8189 32.8208 10.7836C32.9019 10.7484 33.3163 10.6 33.7419 10.454C34.1674 10.308 34.7642 10.085 35.0682 9.95859C35.3721 9.83209 35.7369 9.68136 35.8787 9.62396C36.8377 9.23477 38.9677 8.09891 40.195 7.32191C42.5109 5.85618 43.1253 5.51486 44.2049 5.09377C45.4786 4.59691 47.055 4.21516 47.8764 4.20426C48.1064 4.20131 48.4436 4.17231 48.6259 4.13962C49.1768 4.04136 50.5886 4.05725 51.7204 4.17453ZM48.405 8.31427C48.3036 8.33146 47.9386 8.383 47.5945 8.42877C45.645 8.68846 45.0324 8.93818 39.7102 11.6426C37.4642 12.7839 36.7098 13.1442 35.6208 13.5962C35.2155 13.7644 34.7182 13.977 34.5155 14.0688C34.3129 14.1604 33.9648 14.2921 33.7419 14.3612C33.5189 14.4303 33.2789 14.5182 33.2086 14.5566C33.1382 14.5952 33.0301 14.6266 32.9682 14.6266C32.9063 14.6266 32.7982 14.6595 32.7278 14.6995C32.6051 14.7697 32.0937 14.9132 30.3893 15.3558C30.2271 15.3979 29.7298 15.5181 29.284 15.623C28.8382 15.7279 28.3574 15.8437 28.2156 15.8805C28.0738 15.9172 27.7753 15.9937 27.5524 16.0506L27.1472 16.1538L27.1566 18.6225C27.1617 19.9801 27.2061 21.5397 27.2551 22.0882C27.3043 22.6368 27.3714 23.4014 27.4044 23.7875C27.4371 24.1735 27.4981 24.6887 27.5395 24.9325C27.5812 25.1763 27.6714 25.7249 27.7403 26.1515C27.9339 27.3504 28.0038 27.71 28.2491 28.7742C28.3147 29.0586 28.3979 29.441 28.4339 29.6238C28.47 29.8066 28.547 30.1058 28.6048 30.2887C28.6627 30.4715 28.7518 30.7707 28.803 30.9536C28.854 31.1365 28.9229 31.3691 28.9561 31.4707C28.9893 31.5723 29.0696 31.8549 29.1346 32.0987C29.1996 32.3425 29.2814 32.6085 29.3162 32.6897C29.351 32.771 29.4196 32.9538 29.4682 33.096C29.5169 33.2383 29.5832 33.4211 29.6152 33.5024C29.6474 33.5836 29.7294 33.8164 29.7978 34.0195C29.8659 34.2227 29.9523 34.4637 29.9897 34.5551C30.0271 34.6465 30.0874 34.7962 30.1238 34.8876C30.6904 36.3129 30.901 36.7851 31.549 38.0828C31.9512 38.888 32.186 39.3321 32.5749 40.0221C32.6493 40.1541 32.7794 40.3869 32.8639 40.5392C33.0371 40.8512 33.5451 41.6733 33.7525 41.9769C33.8277 42.087 33.8892 42.1946 33.8892 42.2161C33.8892 42.2377 33.9362 42.3138 33.9935 42.3853C34.0508 42.4569 34.3833 42.9401 34.7324 43.4589C35.0812 43.9777 35.4139 44.4598 35.4716 44.5301C35.5292 44.6005 35.835 44.993 36.1511 45.4026C36.8237 46.2736 37.1749 46.7 37.6915 47.2714C37.8982 47.5 38.18 47.8186 38.3178 47.9791C39.9366 49.87 43.2463 52.6814 45.9732 54.4818C48.3545 56.0545 49.0732 56.4414 49.6109 56.4414C50.0691 56.4414 50.0645 56.4436 51.4259 55.5886C51.9323 55.2705 52.745 54.7618 53.2314 54.4591C54.7204 53.5314 56.6086 52.1873 57.5004 51.4195C60.7427 48.6305 62.8886 46.2205 65.3645 42.5894C65.9286 41.7617 66.2154 41.2902 67.1177 39.7081C67.47 39.0898 68.5054 36.9715 68.8509 36.162C68.9027 36.0401 69.0154 35.7828 69.1014 35.5902C69.1873 35.3977 69.2573 35.2199 69.2573 35.1951C69.2573 35.1704 69.3032 35.0453 69.3595 34.9171C69.6482 34.2593 70.4164 32.0418 70.6936 31.0644C70.7632 30.8206 70.8459 30.538 70.8773 30.4365C71.0223 29.9723 71.4245 28.3407 71.5423 27.7399C71.59 27.4961 71.6586 27.147 71.695 26.9642C71.8127 26.3656 71.9704 25.316 72.0554 24.5631C72.1009 24.1568 72.1691 23.6083 72.2064 23.3442C72.3986 21.988 72.4677 16.2957 72.2945 16.0864C72.2423 16.0238 72.11 15.9538 71.9995 15.9307C71.8895 15.9078 71.65 15.8576 71.4677 15.819C71.2855 15.7804 70.8377 15.696 70.4732 15.6313C70.1082 15.5669 69.5445 15.4448 69.2205 15.36C68.8964 15.2752 68.515 15.1779 68.3732 15.1435C67.8109 15.0078 66.975 14.7747 66.7891 14.7018C66.7077 14.6702 66.2436 14.5174 65.7573 14.3625C65.2709 14.2075 64.8236 14.0557 64.7627 14.0247C64.7018 13.9938 64.3868 13.879 64.0627 13.7694C63.5118 13.583 63.3459 13.5168 62.5336 13.1586C62.3614 13.0827 62.1377 12.995 62.0364 12.9638C61.935 12.9325 61.6864 12.8323 61.4836 12.7409C61.2809 12.6494 60.9495 12.5005 60.7468 12.41C59.9618 12.0593 59.3373 11.7583 56.9814 10.5936C53.9836 9.11141 53.8554 9.05768 52.3286 8.641C51.4277 8.395 49.0823 8.19977 48.405 8.31427ZM56.9259 20.6485C56.9495 20.71 56.9368 20.8015 56.8977 20.8517C56.8586 20.902 56.6677 21.2424 56.4736 21.608C55.8609 22.762 55.6064 23.2311 55.5514 23.3072C55.5223 23.3479 55.3068 23.7468 55.0718 24.1938C54.8373 24.6407 54.5627 25.156 54.4614 25.3389C54.3604 25.5217 54.1923 25.8375 54.0877 26.0407C53.9832 26.2439 53.8804 26.4267 53.8586 26.447C53.8373 26.4674 53.7186 26.6835 53.595 26.9272C53.4714 27.171 53.2118 27.6614 53.0186 28.017L52.6664 28.6634H56.7254C59.4804 28.6634 60.7836 28.688 60.7836 28.74C60.7836 28.8084 56.6364 33.01 46.5891 43.1207C42.3278 47.4086 42.3326 47.4086 44.6301 43.0695C44.813 42.7242 45.2437 41.893 45.5868 41.2226C46.2773 39.8747 47.165 38.1598 47.6132 37.3071C48.2327 36.128 48.6995 35.1994 48.6995 35.1461C48.6995 35.1157 47.3068 35.0907 45.605 35.0907C43.0241 35.0907 42.5102 35.0738 42.5102 34.9888C42.5102 34.9024 43.9852 31.9365 48.5686 22.806C49.4904 20.9701 49.61 20.8005 50.0873 20.6532C50.6136 20.4908 56.8641 20.4866 56.9259 20.6485Z" fill="#4474D4"/>
</g>
<defs>
<clipPath id="clip0_1070_1020">
<rect width="100" height="65.9091" fill="white"/>
</clipPath>
</defs>
</svg>
