<svg width="54" height="32" viewBox="0 0 54 32" fill="none" xmlns="http://www.w3.org/2000/svg">
<path fill-rule="evenodd" clip-rule="evenodd" d="M24.4142 0.0289066C24.3901 0.0679141 24.2085 0.123152 23.7306 0.236588C23.308 0.336841 22.6 0.558601 22.3695 0.66289C22.0204 0.820714 21.6905 0.988041 21.6796 1.0127C21.673 1.0275 21.6512 1.0396 21.6311 1.0396C21.611 1.0396 21.2682 1.25751 20.8693 1.52383C20.4704 1.79016 20.1354 2.00806 20.1247 2.00806C20.1141 2.00806 19.985 2.07944 19.8379 2.1667C19.5605 2.33106 18.6374 2.78588 18.4181 2.86623C18.3492 2.89143 18.2607 2.92507 18.2213 2.94093C17.8402 3.09497 16.8548 3.41601 16.5578 3.48281C16.489 3.49833 16.3521 3.52953 16.2537 3.55222C15.8616 3.64244 15.7697 3.661 15.2699 3.75084C14.9846 3.80215 14.6063 3.85863 14.4292 3.87648C13.4722 3.97261 12.7361 4.02372 11.612 4.07188L11.0485 4.096L11.0483 7.36528C11.0482 9.25109 11.063 10.7864 11.0834 10.9932C11.1028 11.1905 11.1356 11.5698 11.1562 11.8362C11.1769 12.1025 11.2086 12.4172 11.2269 12.5356C11.2451 12.654 11.2855 12.9445 11.3168 13.1812C11.3767 13.6358 11.4268 13.9488 11.4775 14.1856C11.4944 14.2645 11.5354 14.4582 11.5687 14.616C11.6839 15.1626 11.8735 15.9146 12.0208 16.4094C12.1186 16.7379 12.4736 17.8239 12.5132 17.916C12.5302 17.9554 12.6206 18.1895 12.7141 18.4361C12.8755 18.8618 12.9262 18.9834 13.1453 19.4673C13.1966 19.5807 13.2712 19.7462 13.3112 19.8349C13.4193 20.0755 13.8528 20.9436 13.9469 21.1083C13.992 21.1872 14.0856 21.3567 14.155 21.4849C14.2244 21.6132 14.3508 21.8272 14.4358 21.9605C14.5207 22.0939 14.5902 22.2106 14.5902 22.2197C14.5902 22.3607 15.9477 24.2428 16.6863 25.1255C17.3822 25.9575 18.5523 27.1698 19.1447 27.6725C19.1681 27.6926 19.3076 27.8135 19.4547 27.9415C19.8802 28.3121 19.8752 28.3079 20.2605 28.6157C20.637 28.9165 20.5972 28.8861 21.0475 29.2175C21.264 29.3769 21.6181 29.6249 21.8346 29.7691C22.051 29.9129 22.2717 30.061 22.3251 30.0979C22.3784 30.135 22.4301 30.1652 22.4401 30.1652C22.45 30.1652 22.5954 30.2539 22.7631 30.3625C22.9309 30.4711 23.0752 30.5598 23.084 30.5598C23.0927 30.5598 23.1774 30.6066 23.2721 30.6639C23.6614 30.8996 24.6616 31.4125 25.4658 31.7888C26.0605 32.0671 26.1303 32.068 26.682 31.8051C26.9082 31.6974 27.2545 31.5328 27.4511 31.4397C28.8293 30.7869 29.3528 30.4938 30.4015 29.7876C31.4063 29.1114 32.8635 27.9848 33.3003 27.5467C33.3102 27.537 33.4148 27.4412 33.5329 27.334C33.9361 26.9674 34.5699 26.3386 34.9102 25.9674C35.0971 25.7635 35.2885 25.5552 35.3355 25.5047C35.3825 25.4539 35.6323 25.1538 35.8907 24.8377C36.3687 24.2529 36.572 23.981 37.0648 23.2666C37.2168 23.0462 37.3579 22.8465 37.3779 22.8226C37.398 22.7988 37.4144 22.771 37.4144 22.761C37.4144 22.7509 37.5059 22.601 37.6178 22.4278C38.0579 21.7457 39.203 19.5736 39.203 19.4209C39.203 19.413 39.2417 19.3214 39.2887 19.2173C39.3357 19.1131 39.4098 18.9391 39.4533 18.8306C39.4968 18.7221 39.5491 18.593 39.5694 18.5437C39.6349 18.3839 39.661 18.3149 39.7576 18.0415C39.8099 17.8935 39.8671 17.7402 39.8843 17.7007C39.9017 17.6613 39.966 17.4676 40.0271 17.2703C40.2182 16.6542 40.2496 16.555 40.2771 16.4812C40.312 16.3883 40.3581 16.2195 40.4939 15.6921C40.5546 15.4553 40.6192 15.2052 40.6375 15.1361C40.6556 15.0671 40.7126 14.8088 40.7638 14.5622C40.8152 14.3156 40.8715 14.0493 40.8889 13.9704C40.9063 13.8915 40.9363 13.7462 40.9558 13.6475C40.975 13.5489 41.0317 13.2745 41.0818 13.0378C41.1317 12.801 41.1868 12.5186 41.2043 12.4101C41.2217 12.3016 41.2464 10.3767 41.2594 8.1327L41.2828 4.05259L40.4844 4.05162C39.4601 4.05036 38.8521 4.01161 37.7363 3.87639C37.4049 3.83614 36.6532 3.7062 36.4844 3.65992C36.4155 3.641 36.2142 3.59115 36.037 3.549C35.5032 3.42201 34.6229 3.13748 34.2126 2.95923C34.1537 2.93358 34.0332 2.88534 33.9453 2.85206C33.7882 2.79252 32.8849 2.35043 32.6744 2.23C32.6152 2.19629 32.4705 2.11325 32.3524 2.04546C32.2343 1.97767 31.9364 1.79339 31.6905 1.63583C31.2267 1.33884 30.691 1.0257 30.4741 0.924822C29.9886 0.69894 29.8078 0.626483 29.3729 0.483547C28.7404 0.275595 28.717 0.26878 28.3992 0.197491C28.145 0.140549 28.0322 0.103693 27.8898 0.0310588C27.8115 -0.00893523 24.4389 -0.0109977 24.4142 0.0289066ZM27.1112 2.02681C28.0487 2.12383 28.8194 2.31815 29.4545 2.61758C29.5726 2.67317 29.7255 2.74419 29.7944 2.77522C29.8632 2.80633 29.9678 2.86067 30.027 2.89609C30.0859 2.93142 30.2148 3.00683 30.3132 3.06359C30.4114 3.12035 30.6396 3.26124 30.8202 3.37655C31.0007 3.49197 31.1591 3.5863 31.1724 3.5863C31.1856 3.5863 31.2412 3.61823 31.296 3.65731C31.424 3.74879 32.5318 4.3051 32.8353 4.43039C32.9633 4.48311 33.1328 4.55574 33.2122 4.59171C33.2914 4.62766 33.4605 4.69169 33.5878 4.73401C33.7149 4.77634 33.8513 4.82531 33.8906 4.84279C33.9908 4.88735 34.496 5.05181 34.7314 5.11665C34.8396 5.14642 34.9764 5.18462 35.0353 5.20148C35.3597 5.29439 35.4432 5.31591 35.5899 5.3446C35.6784 5.36199 35.8636 5.40171 36.0013 5.43292C36.3215 5.50557 36.5552 5.55121 36.8242 5.59371C36.9423 5.61245 37.1434 5.64465 37.2713 5.66543C37.6395 5.72518 38.4379 5.81583 38.8168 5.84093C39.0077 5.85366 39.1816 5.88182 39.2035 5.90363C39.2556 5.95597 39.2306 9.65954 39.1719 10.5807C39.1342 11.1755 39.0686 11.8497 38.989 12.4639C38.9735 12.5822 38.9506 12.7679 38.9376 12.8764C38.9248 12.9849 38.8989 13.1543 38.8802 13.253C38.8614 13.3516 38.8213 13.5695 38.791 13.7372C38.7608 13.9049 38.7211 14.1067 38.7027 14.1856C38.599 14.6363 38.4077 15.4179 38.3823 15.4948C38.3662 15.5441 38.3322 15.6571 38.3073 15.7459C38.1047 16.4617 37.6229 17.7737 37.327 18.4165C37.257 18.5682 37.1998 18.7001 37.1998 18.7094C37.1998 18.7798 36.3727 20.352 36.1454 20.7137C36.0834 20.8124 36.0236 20.9173 36.0123 20.9469C36.0011 20.9765 35.8532 21.2075 35.6837 21.4602C35.514 21.7129 35.3752 21.9261 35.3752 21.9341C35.3752 21.942 35.3068 22.0438 35.2231 22.1601C35.1397 22.2766 34.9682 22.5152 34.8422 22.6907C34.7164 22.8659 34.5344 23.1062 34.4375 23.2245C34.3408 23.343 34.2426 23.4639 34.2192 23.4935C34.025 23.7396 33.8793 23.917 33.8191 23.9806C33.7798 24.0223 33.6439 24.1759 33.5172 24.322C33.272 24.6047 32.2577 25.6285 32.0483 25.8048C31.9794 25.8628 31.8022 26.0171 31.6548 26.1478C31.5072 26.2784 31.2335 26.5051 31.0466 26.6514C30.8597 26.7977 30.6985 26.9268 30.6888 26.938C30.6109 27.0279 28.8633 28.1924 28.8064 28.1924C28.7951 28.1924 28.7432 28.2222 28.6909 28.2586C28.5925 28.3273 28.3595 28.4553 27.7195 28.7927C26.157 29.6166 26.1766 29.6091 25.8714 29.5025C25.7233 29.4506 24.8609 29.0194 24.5892 28.8614C24.5104 28.8155 24.3656 28.7327 24.2672 28.6775C24.1688 28.6221 24.0192 28.5378 23.9345 28.4902C23.8498 28.4423 23.5961 28.2831 23.3706 28.1364C23.1453 27.9896 22.9534 27.8696 22.9445 27.8696C22.9212 27.8696 22.2409 27.3907 21.9287 27.1543C21.7836 27.0446 21.6219 26.9226 21.5693 26.8831C21.4509 26.7944 20.9467 26.3883 20.9223 26.362C20.9125 26.3514 20.7193 26.1795 20.493 25.98C19.0792 24.7331 17.8999 23.3691 16.8205 21.7317C16.5777 21.3633 16.3789 21.0511 16.3789 21.0378C16.3789 21.0244 16.3333 20.9462 16.2776 20.8637C16.222 20.7812 16.1105 20.5927 16.0301 20.4447C15.9496 20.2968 15.826 20.0708 15.7553 19.9426C15.5251 19.5248 15.0807 18.599 14.8946 18.1491C14.7873 17.8901 14.7327 17.7613 14.6509 17.5752C14.6204 17.5061 14.5611 17.3528 14.5188 17.2344C14.4766 17.1161 14.4286 16.9869 14.4121 16.9475C14.2462 16.5493 13.9053 15.4971 13.8021 15.0644C13.7856 14.9953 13.7542 14.8743 13.7323 14.7953C13.6484 14.4927 13.4991 13.8045 13.4133 13.3247C13.3726 13.0971 13.243 12.164 13.1966 11.7644C13.0948 10.8872 12.9877 6.80159 13.0568 6.43035C13.1155 6.11569 13.2396 6.05641 13.982 5.9889C14.4044 5.95043 14.8695 5.89806 15.091 5.86388C15.6695 5.77494 15.7474 5.7606 16.5757 5.5921C16.8044 5.54564 16.982 5.50089 17.3449 5.39849C17.5318 5.34577 17.725 5.29457 17.7741 5.2847C17.8233 5.27484 17.8958 5.25277 17.9351 5.23564C17.9745 5.21852 18.1757 5.1465 18.3823 5.07558C18.5889 5.00473 18.8787 4.89642 19.0263 4.83507C19.1738 4.77365 19.3509 4.70047 19.4198 4.6726C19.8854 4.48364 20.9195 3.93216 21.5155 3.55491C22.6399 2.84328 22.9381 2.67756 23.4623 2.47311C24.0807 2.23188 24.8461 2.04653 25.2449 2.04124C25.3565 2.03981 25.5203 2.02573 25.6088 2.00986C25.8763 1.96215 26.5617 1.96987 27.1112 2.02681ZM25.5015 4.03672C25.4523 4.04507 25.2751 4.07009 25.108 4.09231C24.1615 4.21839 23.8641 4.33964 21.2801 5.6527C20.1896 6.20679 19.8233 6.38175 19.2946 6.60118C19.0978 6.68286 18.8563 6.78608 18.758 6.83065C18.6596 6.87512 18.4905 6.93906 18.3823 6.9726C18.2741 7.00615 18.1576 7.04883 18.1234 7.06748C18.0892 7.08621 18.0367 7.10146 18.0067 7.10146C17.9766 7.10146 17.9241 7.11742 17.89 7.13688C17.8304 7.17096 17.5821 7.24063 16.7546 7.45549C16.6759 7.47593 16.4344 7.5343 16.218 7.58524C16.0015 7.63617 15.7681 7.6924 15.6992 7.71024C15.6304 7.72809 15.4855 7.76521 15.3773 7.79284L15.1805 7.84296L15.1851 9.04152C15.1876 9.7007 15.2091 10.4579 15.2329 10.7242C15.2568 10.9905 15.2893 11.3618 15.3054 11.5492C15.3213 11.7366 15.3509 11.9868 15.371 12.1052C15.3912 12.2235 15.435 12.4899 15.4685 12.697C15.5625 13.2791 15.5964 13.4537 15.7155 13.9704C15.7473 14.1085 15.7878 14.2941 15.8052 14.3829C15.8227 14.4716 15.8601 14.6169 15.8882 14.7057C15.9163 14.7945 15.9596 14.9397 15.9844 15.0285C16.0092 15.1173 16.0427 15.2303 16.0588 15.2796C16.0749 15.3289 16.1139 15.4661 16.1454 15.5845C16.177 15.7028 16.2167 15.832 16.2336 15.8714C16.2505 15.9109 16.2838 15.9996 16.3074 16.0687C16.331 16.1378 16.3632 16.2265 16.3788 16.266C16.3944 16.3054 16.4342 16.4184 16.4674 16.5171C16.5005 16.6157 16.5424 16.7327 16.5606 16.7771C16.5787 16.8215 16.608 16.8941 16.6257 16.9385C16.9008 17.6305 17.003 17.8598 17.3177 18.4899C17.5129 18.8808 17.6269 19.0964 17.8157 19.4314C17.8519 19.4955 17.915 19.6085 17.9561 19.6825C18.0401 19.834 18.2868 20.2331 18.3875 20.3805C18.424 20.434 18.4539 20.4862 18.4539 20.4966C18.4539 20.5071 18.4767 20.5441 18.5045 20.5788C18.5323 20.6136 18.6937 20.8482 18.8632 21.1C19.0326 21.3519 19.1941 21.586 19.2221 21.6201C19.2501 21.6543 19.3986 21.8449 19.5521 22.0438C19.8786 22.4667 20.0491 22.6737 20.2999 22.9511C20.4003 23.0621 20.5371 23.2168 20.604 23.2947C21.39 24.2127 22.9969 25.5777 24.3208 26.4519C25.477 27.2155 25.8259 27.4033 26.087 27.4033C26.3095 27.4033 26.3073 27.4044 26.9682 26.9892C27.2141 26.8348 27.6087 26.5878 27.8448 26.4408C28.5678 25.9904 29.4845 25.3378 29.9175 24.9651C31.4917 23.6109 32.5336 22.4408 33.7357 20.6779C34.0096 20.276 34.1488 20.0471 34.5869 19.279C34.7579 18.9788 35.2606 17.9503 35.4284 17.5573C35.4535 17.4981 35.5083 17.3732 35.55 17.2796C35.5917 17.1862 35.6257 17.0999 35.6257 17.0878C35.6257 17.0758 35.648 17.0151 35.6753 16.9529C35.8155 16.6335 36.1884 15.5569 36.323 15.0823C36.3568 14.9639 36.397 14.8267 36.4122 14.7774C36.4826 14.5521 36.6779 13.7599 36.7351 13.4682C36.7582 13.3498 36.7916 13.1804 36.8092 13.0916C36.8664 12.801 36.943 12.2913 36.9842 11.9258C37.0063 11.7286 37.0394 11.4622 37.0575 11.334C37.1509 10.6755 37.1844 7.91183 37.1003 7.81023C37.0749 7.77984 37.0107 7.74585 36.9571 7.73464C36.9037 7.72352 36.7874 7.69913 36.6989 7.68038C36.6104 7.66164 36.393 7.62066 36.216 7.58928C36.0388 7.55798 35.7651 7.4987 35.6078 7.45755C35.4504 7.41639 35.2653 7.36914 35.1964 7.35245C34.9234 7.28653 34.5176 7.17339 34.4273 7.13796C34.3878 7.12263 34.1625 7.04845 33.9264 6.97322C33.6902 6.89799 33.4731 6.82428 33.4435 6.80923C33.4139 6.79424 33.261 6.73847 33.1036 6.68529C32.8362 6.5948 32.7556 6.56263 32.3612 6.38875C32.2776 6.35189 32.169 6.3093 32.1198 6.29414C32.0706 6.27897 31.9499 6.23029 31.8514 6.18591C31.753 6.14151 31.5921 6.06923 31.4937 6.02529C31.1126 5.85501 30.8093 5.70884 29.6655 5.14337C28.2101 4.42375 28.1478 4.39766 27.4065 4.19535C26.9691 4.07592 25.8304 3.98113 25.5015 4.03672ZM29.6386 10.0252C29.6501 10.0551 29.6439 10.0995 29.6249 10.1239C29.6059 10.1483 29.5132 10.3135 29.419 10.4911C29.1215 11.0513 28.9979 11.2791 28.9712 11.3161C28.9571 11.3358 28.8525 11.5295 28.7384 11.7465C28.6245 11.9635 28.4912 12.2137 28.442 12.3025C28.393 12.3912 28.3113 12.5446 28.2606 12.6432C28.2098 12.7418 28.16 12.8306 28.1494 12.8405C28.139 12.8504 28.0814 12.9553 28.0214 13.0736C27.9613 13.192 27.8353 13.4301 27.7415 13.6027L27.5705 13.9166H29.5413C30.8789 13.9166 31.5116 13.9285 31.5116 13.9538C31.5116 13.987 29.498 16.0269 24.6199 20.9359C22.551 23.0177 22.5533 23.0177 23.6687 20.911C23.7576 20.7433 23.9667 20.3398 24.1333 20.0143C24.4685 19.3599 24.8995 18.5273 25.1171 18.1132C25.4179 17.5408 25.6445 17.0899 25.6445 17.0641C25.6445 17.0493 24.9683 17.0372 24.1421 17.0372C22.889 17.0372 22.6395 17.0289 22.6395 16.9877C22.6395 16.9457 23.3556 15.5057 25.581 11.0727C26.0285 10.1813 26.0866 10.099 26.3183 10.0275C26.5739 9.94865 29.6086 9.94659 29.6386 10.0252Z" fill="#4474D4"/>
</svg>
