<svg width="56" height="32" viewBox="0 0 56 32" fill="none" xmlns="http://www.w3.org/2000/svg">
<g clip-path="url(#clip0_1073_1106)">
<mask id="mask0_1073_1106" style="mask-type:luminance" maskUnits="userSpaceOnUse" x="0" y="0" width="56" height="32">
<path d="M55.4331 0H0V32H55.4331V0Z" fill="white"/>
</mask>
<g mask="url(#mask0_1073_1106)">
<path d="M11.3386 4.00317H39.361V21.3504C39.361 22.0583 39.0799 22.7371 38.5794 23.2376C38.079 23.7381 37.4002 24.0193 36.6925 24.0193H14.0074C13.2996 24.0193 12.6208 23.7381 12.1203 23.2376C11.6198 22.7371 11.3386 22.0583 11.3386 21.3504V4.00317Z" fill="url(#paint0_linear_1073_1106)"/>
<path d="M11.3386 2.6688C11.3386 1.961 11.6198 1.28218 12.1203 0.781677C12.6208 0.281177 13.2996 0 14.0074 0H36.6925C37.4002 0 38.079 0.281177 38.5794 0.781677C39.0799 1.28218 39.361 1.961 39.361 2.6688V4.00323H11.3386V2.6688Z" fill="url(#paint1_linear_1073_1106)"/>
<path d="M29.353 15.0112H41.3626V30.9279C41.3626 31.8567 40.2489 32.3639 39.5159 31.7695L36.0783 28.9835C35.874 28.8194 35.6197 28.73 35.3579 28.73C35.0959 28.73 34.8417 28.8194 34.6373 28.9835L31.1997 31.7695C30.4667 32.3639 29.353 31.8567 29.353 30.9279V15.0112Z" fill="url(#paint2_linear_1073_1106)"/>
<path opacity="0.5" d="M35.3223 24.0353C40.3063 24.0353 44.3466 19.9951 44.3466 15.0112C44.3466 10.0273 40.3063 5.98706 35.3223 5.98706C30.3387 5.98706 26.2983 10.0273 26.2983 15.0112C26.2983 19.9951 30.3387 24.0353 35.3223 24.0353Z" fill="url(#paint3_radial_1073_1106)"/>
<path opacity="0.5" d="M35.3226 23.5175C40.0206 23.5175 43.8288 19.7091 43.8288 15.0112C43.8288 10.3132 40.0206 6.50476 35.3226 6.50476C30.6247 6.50476 26.8162 10.3132 26.8162 15.0112C26.8162 19.7091 30.6247 23.5175 35.3226 23.5175Z" fill="url(#paint4_radial_1073_1106)"/>
<path d="M35.3581 23.0176C39.7799 23.0176 43.3644 19.433 43.3644 15.0112C43.3644 10.5894 39.7799 7.00476 35.3581 7.00476C30.9361 7.00476 27.3516 10.5894 27.3516 15.0112C27.3516 19.433 30.9361 23.0176 35.3581 23.0176Z" fill="url(#paint5_linear_1073_1106)"/>
</g>
</g>
<defs>
<linearGradient id="paint0_linear_1073_1106" x1="25.3498" y1="24.0193" x2="25.3498" y2="4.00317" gradientUnits="userSpaceOnUse">
<stop stop-color="#0669BC"/>
<stop offset="1" stop-color="#0078D4"/>
</linearGradient>
<linearGradient id="paint1_linear_1073_1106" x1="25.3498" y1="4.00323" x2="25.3498" y2="0" gradientUnits="userSpaceOnUse">
<stop stop-color="#0C59A4"/>
<stop offset="1" stop-color="#1493DF"/>
</linearGradient>
<linearGradient id="paint2_linear_1073_1106" x1="35.3579" y1="32.0257" x2="35.3579" y2="15.0112" gradientUnits="userSpaceOnUse">
<stop stop-color="#0078D4"/>
<stop offset="1" stop-color="#5EA0EF"/>
</linearGradient>
<radialGradient id="paint3_radial_1073_1106" cx="0" cy="0" r="1" gradientUnits="userSpaceOnUse" gradientTransform="translate(35.3223 15.013) scale(9.02415)">
<stop/>
<stop offset="0.859" stop-opacity="0.532"/>
<stop offset="1" stop-opacity="0"/>
</radialGradient>
<radialGradient id="paint4_radial_1073_1106" cx="0" cy="0" r="1" gradientUnits="userSpaceOnUse" gradientTransform="translate(19.3452 15.0129) scale(8.50641)">
<stop/>
<stop offset="0.859" stop-opacity="0.532"/>
<stop offset="1" stop-opacity="0"/>
</radialGradient>
<linearGradient id="paint5_linear_1073_1106" x1="35.3581" y1="23.0586" x2="35.3581" y2="6.48167" gradientUnits="userSpaceOnUse">
<stop stop-color="#32BEDD"/>
<stop offset="1" stop-color="#50E6FF"/>
</linearGradient>
<clipPath id="clip0_1073_1106">
<rect width="55.4331" height="32" fill="white"/>
</clipPath>
</defs>
</svg>
