<svg width="100" height="82" viewBox="0 0 100 82" fill="none" xmlns="http://www.w3.org/2000/svg">
<path fill-rule="evenodd" clip-rule="evenodd" d="M29.8159 27.9999C30.2681 22.9589 32.5903 18.2696 36.3255 14.8545C40.0608 11.4393 44.9389 9.54541 50 9.54541C55.0614 9.54541 59.9391 11.4393 63.6746 14.8545C67.4101 18.2696 69.7319 22.9589 70.1841 27.9999C73.9178 28.4439 77.3401 30.298 79.7514 33.1825C82.1628 36.0671 83.3805 39.7642 83.1555 43.5172C82.9305 47.27 81.2796 50.7954 78.541 53.3709C75.8023 55.9468 72.1828 57.3786 68.4228 57.3736H31.5771C27.8175 57.3786 24.1979 55.9468 21.4592 53.3709C18.7205 50.7954 17.0697 47.27 16.8447 43.5172C16.6196 39.7642 17.8374 36.0671 20.2487 33.1825C22.66 30.298 26.0825 28.4439 29.8159 27.9999Z" fill="url(#paint0_linear_1070_1029)"/>
<path fill-rule="evenodd" clip-rule="evenodd" d="M83.1613 42.6351C83.1613 46.5441 81.6086 50.2927 78.8445 53.0568C76.0804 55.8205 72.3318 57.3736 68.4227 57.3736H62.1591C62.0141 57.3736 61.87 57.4023 61.7359 57.4577C61.6018 57.5132 61.48 57.5946 61.3773 57.6973C61.275 57.8 61.1932 57.9218 61.1377 58.0559C61.0823 58.19 61.0536 58.3336 61.0536 58.4786V59.9527C61.0536 60.2459 60.9373 60.5268 60.73 60.7341C60.5227 60.9414 60.2413 61.0582 59.9482 61.0582H58.4745C58.3295 61.0582 58.1854 61.0868 58.0513 61.1423C57.9173 61.1977 57.7954 61.2791 57.6927 61.3818C57.5904 61.4846 57.5086 61.6064 57.4532 61.7405C57.3977 61.8746 57.3691 62.0182 57.3691 62.1636V63.6373C57.3691 63.9305 57.2527 64.2114 57.0454 64.4191C56.8382 64.6264 56.5568 64.7427 56.2636 64.7427H54.79C54.4968 64.7427 54.2154 64.8591 54.0082 65.0664C53.8009 65.2736 53.6845 65.555 53.6845 65.8482V67.3218C53.6845 67.615 53.5682 67.8964 53.3609 68.1036C53.1536 68.3109 52.8723 68.4273 52.5791 68.4273H51.1054C50.8123 68.4273 50.5309 68.5436 50.3236 68.7509C50.1163 68.9582 50 69.2396 50 69.5327V71.0064C50 71.2996 49.8836 71.5809 49.6763 71.7882C49.4691 71.9955 49.1877 72.1118 48.8945 72.1118H40.0516C39.7584 72.1118 39.4773 71.9955 39.2699 71.7882C39.0626 71.5809 38.9462 71.2996 38.9462 71.0064V61.515C38.9464 61.2218 39.0631 60.9409 39.2704 60.7336L54.0532 45.9514C53.5923 43.9303 53.5632 41.835 53.9677 39.802C54.3718 37.7691 55.2004 35.8443 56.3991 34.1533C57.5977 32.4623 59.1395 31.0432 60.9241 29.9886C62.7086 28.934 64.6954 28.2676 66.7545 28.033C68.8141 27.7983 70.9 28.0007 72.8759 28.627C74.8518 29.2532 76.6732 30.2891 78.2214 31.6672C79.77 33.0452 81.01 34.7344 81.8613 36.6243C82.7123 38.5142 83.1554 40.5624 83.1613 42.6351ZM73.2495 41.6182C74.2268 41.6182 75.1641 41.23 75.855 40.539C76.5459 39.848 76.9341 38.9108 76.9341 37.9336C76.9341 36.9564 76.5459 36.0192 75.855 35.3282C75.1641 34.6372 74.2268 34.249 73.2495 34.249C72.2723 34.249 71.3354 34.6372 70.6441 35.3282C69.9532 36.0192 69.565 36.9564 69.565 37.9336C69.565 38.9108 69.9532 39.848 70.6441 40.539C71.3354 41.23 72.2723 41.6182 73.2495 41.6182Z" fill="url(#paint1_radial_1070_1029)"/>
<defs>
<linearGradient id="paint0_linear_1070_1029" x1="50" y1="57.3622" x2="50" y2="9.56591" gradientUnits="userSpaceOnUse">
<stop stop-color="#0078D4"/>
<stop offset="0.156" stop-color="#1380DA"/>
<stop offset="0.528" stop-color="#3C91E5"/>
<stop offset="0.822" stop-color="#559CEC"/>
<stop offset="1" stop-color="#5EA0EF"/>
</linearGradient>
<radialGradient id="paint1_radial_1070_1029" cx="0" cy="0" r="1" gradientUnits="userSpaceOnUse" gradientTransform="translate(57.2918 49.1091) rotate(121.131) scale(35.4829 24.1948)">
<stop offset="0.266" stop-color="#FFD70F"/>
<stop offset="0.487" stop-color="#FFCB12"/>
<stop offset="0.884" stop-color="#FEAC19"/>
<stop offset="1" stop-color="#FEA11B"/>
</radialGradient>
</defs>
</svg>
