<svg width="53" height="32" viewBox="0 0 53 32" fill="none" xmlns="http://www.w3.org/2000/svg">
<path d="M15.5281 26.0077C16.3103 26.4912 17.6105 27.0288 18.9854 27.0288C20.2372 27.0288 21.4004 26.669 22.364 26.0558C22.364 26.0558 22.3661 26.0558 22.3681 26.0537L26.0067 23.7999V31.9379C25.4302 31.9379 24.8497 31.7819 24.3458 31.4702L15.5281 26.0077Z" fill="#225086"/>
<path d="M23.7177 1.00992L8.76318 17.8619C7.60869 19.1647 7.90977 21.1327 9.40723 22.0669C9.40723 22.0669 14.9424 25.523 15.6403 25.9593C16.414 26.4412 17.7001 26.9772 19.06 26.9772C20.2982 26.9772 21.4487 26.6185 22.4018 26.007C22.4018 26.007 22.4038 26.007 22.4058 26.0051L26.0049 23.7582L17.3033 18.3241L26.0068 8.51563V0C25.1615 0 24.316 0.336642 23.7177 1.00992Z" fill="#66DDFF"/>
<path d="M17.2561 18.3555L17.3604 18.4193L26.005 23.8002H26.0068V8.52995L26.005 8.52795L17.2561 18.3555Z" fill="#CBF8FF"/>
<path d="M42.6063 22.1159C44.1041 21.1798 44.4052 19.2079 43.2506 17.9026L33.436 6.82337C32.6443 6.45413 31.7566 6.24255 30.8175 6.24255C28.9726 6.24255 27.3231 7.03893 26.2263 8.29034L26.009 8.53584L34.7125 18.3636L26.0068 23.8084V31.9376C26.5793 31.9376 27.1496 31.7821 27.6483 31.4707L42.6063 22.1139V22.1159Z" fill="#074793"/>
<path d="M26.009 0V8.52788L26.2292 8.28252C27.3402 7.03177 29.0108 6.23583 30.8791 6.23583C31.8327 6.23583 32.7297 6.44928 33.5316 6.81633L28.322 1.01337C27.7178 0.339122 26.8614 0.00199492 26.0068 0.00199492L26.009 0Z" fill="#0294E4"/>
<path d="M34.7578 18.356L26.0068 8.52795V23.8002L34.7578 18.356Z" fill="#96BCC2"/>
</svg>
