<svg width="54" height="32" viewBox="0 0 54 32" fill="none" xmlns="http://www.w3.org/2000/svg">
<path d="M39.9806 0.0206299H10.8709C10.3008 0.0206299 9.83862 0.482788 9.83862 1.05289V19.7574C9.83862 20.3275 10.3008 20.7897 10.8709 20.7897H39.9806C40.5506 20.7897 41.0128 20.3275 41.0128 19.7574V1.05289C41.0128 0.482788 40.5506 0.0206299 39.9806 0.0206299Z" fill="url(#paint0_linear_1073_1098)"/>
<path d="M38.7007 1.75488H12.1511C11.8318 1.75488 11.573 2.01369 11.573 2.33295V18.4981C11.573 18.8174 11.8318 19.0762 12.1511 19.0762H38.7007C39.02 19.0762 39.2788 18.8174 39.2788 18.4981V2.33295C39.2788 2.01369 39.02 1.75488 38.7007 1.75488Z" fill="white"/>
<path d="M31.6814 27.0865C28.5846 26.6117 28.4607 24.382 28.4814 20.8929H22.2878C22.2878 24.4852 22.1639 26.7149 19.0878 27.0865C18.6698 27.1495 18.2874 27.358 18.008 27.6751C17.7285 27.9926 17.5699 28.398 17.5601 28.8207H33.1265C33.1165 28.4109 32.9683 28.0168 32.7059 27.702C32.4437 27.3871 32.0824 27.1701 31.6814 27.0865Z" fill="url(#paint1_linear_1073_1098)"/>
<path d="M44.2541 9.62062H30.0502C29.8149 8.4621 29.1573 7.43231 28.2059 6.73102C27.2541 6.02971 26.0758 5.70692 24.8995 5.82522C23.7232 5.94351 22.6328 6.49448 21.8398 7.37126C21.0468 8.24803 20.6077 9.38811 20.6077 10.5703C20.6077 11.7525 21.0468 12.8926 21.8398 13.7693C22.6328 14.6461 23.7232 15.1971 24.8995 15.3154C26.0758 15.4337 27.2541 15.1109 28.2059 14.4096C29.1573 13.7083 29.8149 12.6785 30.0502 11.52H31.5161V31.298C31.5161 31.4787 31.5878 31.6521 31.7155 31.7799C31.8433 31.9076 32.0167 31.9793 32.1973 31.9793H44.2335C44.4141 31.9793 44.5875 31.9076 44.7153 31.7799C44.843 31.6521 44.9148 31.4787 44.9148 31.298V10.3019C44.9148 10.1248 44.8459 9.95451 44.7225 9.82733C44.5991 9.70013 44.4311 9.62599 44.2541 9.62062Z" fill="#32BEDD"/>
<path d="M43.4284 11.4994H33.0439C32.9071 11.4994 32.7961 11.6103 32.7961 11.7471V29.2129C32.7961 29.3497 32.9071 29.4607 33.0439 29.4607H43.4284C43.5652 29.4607 43.6761 29.3497 43.6761 29.2129V11.7471C43.6761 11.6103 43.5652 11.4994 43.4284 11.4994Z" fill="white"/>
<path opacity="0.9" d="M25.4258 13.6671C27.0906 13.6671 28.44 12.3176 28.44 10.6529C28.44 8.98817 27.0906 7.63867 25.4258 7.63867C23.7611 7.63867 22.4116 8.98817 22.4116 10.6529C22.4116 12.3176 23.7611 13.6671 25.4258 13.6671Z" fill="url(#paint2_linear_1073_1098)"/>
<path d="M39.5264 19.7575L37.2142 17.4452C37.1956 17.4285 37.1726 17.4177 37.1479 17.4144C37.1231 17.411 37.098 17.4151 37.0756 17.4263C37.0534 17.4374 37.0348 17.4551 37.023 17.4769C37.0108 17.4987 37.0054 17.5236 37.0077 17.5484V18.9523C37.0077 18.9852 36.9946 19.0167 36.9713 19.0399C36.9481 19.0631 36.9166 19.0762 36.8839 19.0762H31.5161V20.7897H36.8839C36.9166 20.7897 36.9481 20.8028 36.9713 20.826C36.9946 20.8492 37.0077 20.8808 37.0077 20.9136V22.3381C37.0191 22.3552 37.0343 22.3691 37.0524 22.3788C37.0704 22.3885 37.0906 22.3935 37.1109 22.3935C37.1313 22.3935 37.1515 22.3885 37.1695 22.3788C37.1876 22.3691 37.2028 22.3552 37.2142 22.3381L39.5264 20.1291C39.5528 20.1058 39.5739 20.0772 39.5884 20.0452C39.6028 20.0132 39.6103 19.9784 39.6103 19.9433C39.6103 19.9081 39.6028 19.8734 39.5884 19.8413C39.5739 19.8093 39.5528 19.7807 39.5264 19.7575Z" fill="#0078D4"/>
<defs>
<linearGradient id="paint0_linear_1073_1098" x1="25.4257" y1="20.7897" x2="25.4257" y2="0.0206299" gradientUnits="userSpaceOnUse">
<stop stop-color="#0078D4"/>
<stop offset="0.82" stop-color="#5EA0EF"/>
</linearGradient>
<linearGradient id="paint1_linear_1073_1098" x1="25.4259" y1="28.8207" x2="25.4259" y2="20.7897" gradientUnits="userSpaceOnUse">
<stop stop-color="#1490DF"/>
<stop offset="0.98" stop-color="#1F56A3"/>
</linearGradient>
<linearGradient id="paint2_linear_1073_1098" x1="25.4258" y1="13.6671" x2="25.4258" y2="7.61803" gradientUnits="userSpaceOnUse">
<stop stop-color="#D2EBFF"/>
<stop offset="1" stop-color="#F0FFFD"/>
</linearGradient>
</defs>
</svg>
