<svg width="46" height="32" viewBox="0 0 46 32" fill="none" xmlns="http://www.w3.org/2000/svg">
<g clip-path="url(#clip0_1073_1049)">
<mask id="mask0_1073_1049" style="mask-type:luminance" maskUnits="userSpaceOnUse" x="0" y="0" width="46" height="32">
<path d="M45.4194 0H0V32H45.4194V0Z" fill="white"/>
</mask>
<g mask="url(#mask0_1073_1049)">
<path d="M35.3276 10.4997L37.209 9.41296L37.1583 27.4758L35.2769 28.5624L35.3276 10.4997Z" fill="#D9D9D9"/>
<path d="M31.147 18.0385V18.8864L25.3242 15.5511V14.7033L31.147 18.0385ZM31.147 20.0755V20.9234L25.3242 17.5882V16.7403L31.147 20.0755ZM31.8252 16.4556V17.3037L25.3242 13.5162V12.6678L31.8252 16.4556Z" fill="#E2E2E2"/>
<path d="M35.6387 10.3205L35.9533 10.1388L35.9015 28.2008L35.5879 28.3825L35.6387 10.3205Z" fill="#C8C8C8"/>
<path d="M36.2669 9.95719L36.5808 9.77551L36.53 27.8384L36.2153 28.0201L36.2669 9.95719Z" fill="#C8C8C8"/>
<path d="M36.8954 9.59488L37.2092 9.41321L37.1584 27.475L36.8438 27.6567L36.8954 9.59488Z" fill="#C8C8C8"/>
<path d="M33.0426 9.91029L33.6692 9.54858L33.6603 12.6827L33.0337 13.0444L33.0426 9.91049V9.91029Z" fill="#2195DC"/>
<path d="M30.6233 8.52049L31.2507 8.15796L33.6693 9.54862L33.0429 9.91032L30.6233 8.52049Z" fill="#32B0E7"/>
<path d="M16.8047 12.1751L18.1858 11.3724L20.4783 12.6964L19.0977 13.4983L16.8047 12.1751Z" fill="#0078D4"/>
<path d="M19.9048 12.6414L21.2861 11.8394L23.5792 13.1631L22.1978 13.9652L19.9048 12.6414Z" fill="#0078D4"/>
<path d="M22.9854 20.186L24.3667 19.3835L26.6592 20.7073L25.2784 21.51L22.9854 20.186Z" fill="#0078D4"/>
<path d="M34.3124 18.209L34.2711 29.5845C34.2711 30.4723 33.6517 30.8232 32.8878 30.369L14.1008 19.5303C13.7017 19.2661 13.3696 18.9127 13.1304 18.4981C12.8914 18.081 12.7503 17.6151 12.7175 17.1355L12.7588 5.76001L34.3124 18.209Z" fill="#FBFBFB"/>
<path d="M33.8789 30.4516L34.7254 29.9561C34.9731 29.8116 35.1176 29.5019 35.1176 29.0684L34.2712 29.5638C34.2712 30.018 34.106 30.3071 33.8789 30.4516Z" fill="#DCDCDC"/>
<path d="M34.3123 18.2091L34.271 29.5846L35.1174 29.0891L35.1587 17.7136L34.3123 18.2091Z" fill="#DCDCDC"/>
<path d="M32.929 13.1922C33.3281 13.4565 33.6603 13.8099 33.8993 14.2245C34.1384 14.6416 34.2794 15.1075 34.3122 15.5871V18.2916L12.738 5.84256V3.13804C12.738 2.2503 13.3574 1.89933 14.1213 2.33288L32.929 13.1922Z" fill="#F0F0F0"/>
<path d="M34.7665 13.7084C34.5212 13.2984 34.1903 12.9462 33.7961 12.6761L15.009 1.83744C14.6168 1.61034 14.2658 1.5897 14.0181 1.73422L13.1716 2.22969C13.4194 2.08517 13.7703 2.10582 14.1626 2.33292L32.9497 13.1716C33.3488 13.4359 33.6809 13.7893 33.92 14.2039C34.1591 14.621 34.3001 15.0869 34.3329 15.5665V18.271L35.1794 17.7755V15.071C35.1368 14.5933 34.9962 14.1294 34.7665 13.7084Z" fill="#D2D2D2"/>
<path d="M21.6156 13.8323C21.744 13.9157 21.8503 14.0291 21.9253 14.1626C22.0008 14.2964 22.05 14.4438 22.0698 14.5962C22.0698 14.9059 21.8633 14.9884 21.6156 14.8646L16.1446 11.7059C16.0095 11.6152 15.8966 11.4953 15.8143 11.3549C15.7327 11.2175 15.6899 11.0605 15.6904 10.9007C15.6904 10.591 15.8969 10.5084 16.1446 10.653L21.6156 13.8323ZM26.0543 15.4839L26.4259 16.1446L24.1756 17.4246L23.2466 15.8142L23.6182 15.5872L24.1756 16.5575L26.0543 15.4839Z" fill="#50E6FF"/>
<path d="M21.5949 20.1084C21.7233 20.1918 21.8296 20.3052 21.9045 20.4388C21.9801 20.5725 22.0292 20.7197 22.0491 20.8723C22.0491 21.182 21.8426 21.2646 21.5949 21.1407L16.1239 17.982C15.9888 17.8914 15.8758 17.7714 15.7936 17.631C15.712 17.4936 15.6691 17.3366 15.6697 17.1768C15.6697 16.8671 15.8761 16.7846 16.1239 16.9291L21.5949 20.1084ZM26.0336 21.8426L26.4052 22.5033L24.1549 23.7833L23.2258 22.173L23.5974 21.9459L24.1549 22.9162L26.0336 21.8426Z" fill="#32B0E7"/>
<path d="M21.6156 16.9497C21.744 17.0331 21.8503 17.1465 21.9253 17.2801C21.9948 17.4165 22.0436 17.5627 22.0698 17.7136C22.0698 18.0233 21.8633 18.1059 21.6156 17.982L16.1446 14.8233C16.0095 14.7327 15.8966 14.6127 15.8143 14.4723C15.7327 14.3349 15.6899 14.1779 15.6904 14.0181C15.6904 13.7085 15.8969 13.6259 16.1446 13.7704L21.6156 16.9497ZM26.0543 18.5807L26.4259 19.2414L24.1756 20.5214L23.2053 18.911L23.5769 18.6839L24.155 19.6543L26.0543 18.5807Z" fill="#45CAF2"/>
<path d="M15.9382 25.2491C15.8236 24.2519 15.4384 23.3053 14.8243 22.5113C14.2102 21.7175 13.3906 21.1068 12.4543 20.7455C11.518 20.384 10.5006 20.2857 9.51243 20.4611C8.52423 20.6365 7.60286 21.0789 6.84809 21.7404C5.83685 22.6269 5.18537 23.853 5.01687 25.1871C4.97161 25.3833 4.95768 25.5854 4.97558 25.7858C5.03751 26.5497 5.59493 27.2929 6.5859 27.8916C8.75364 29.1304 12.222 29.1304 14.3691 27.8916C15.3601 27.3136 15.8969 26.5497 15.9588 25.8065C15.9734 25.6205 15.9665 25.4334 15.9382 25.2491Z" fill="url(#paint0_linear_1073_1049)"/>
<path d="M10.4672 19.7987C11.1217 19.8016 11.762 19.6074 12.3046 19.2413C12.8471 18.8789 13.27 18.3639 13.5199 17.7613C13.7697 17.1586 13.8354 16.4954 13.7085 15.8555C13.5833 15.2125 13.2667 14.6224 12.8001 14.1626C12.3322 13.7069 11.7455 13.3921 11.1072 13.2542C10.4695 13.1287 9.80905 13.1933 9.20782 13.44C8.60606 13.6956 8.09019 14.1183 7.72137 14.6581C7.35254 15.1994 7.15804 15.8405 7.16395 16.4955C7.16232 16.9276 7.24653 17.3556 7.41169 17.7549C7.58148 18.1557 7.8268 18.5202 8.13427 18.8284C8.43881 19.1403 8.80423 19.3863 9.20782 19.551C9.60706 19.7162 10.0351 19.8004 10.4672 19.7987Z" fill="url(#paint1_linear_1073_1049)"/>
<path d="M36.5283 20.538C36.6109 20.4968 36.6109 20.3316 36.5283 20.1664L36.0741 19.3613C35.9915 19.2168 35.9709 19.0516 36.0535 18.969L36.5489 18.68C36.6315 18.6387 36.6315 18.4735 36.5489 18.3084L35.9089 17.1935V16.9251L34.7735 17.5858V17.8542L35.4135 18.969C35.4517 19.0187 35.4742 19.0787 35.4779 19.1413C35.4816 19.2039 35.4663 19.2662 35.4341 19.32L34.9386 19.609C34.8354 19.6709 34.8354 19.8361 34.9386 20.0013L35.4135 20.8064C35.4517 20.8562 35.4742 20.9161 35.4779 20.9788C35.4816 21.0414 35.4663 21.1035 35.4341 21.1574L34.9593 21.4464C34.856 21.5084 34.856 21.6735 34.9593 21.8387L35.4341 22.6438C35.5167 22.7884 35.5167 22.9535 35.4341 23.0155L36.5696 22.3548C36.6522 22.3135 36.6522 22.1484 36.5696 21.9832L36.0948 21.178C36.0122 21.0129 35.9915 20.8477 36.0741 20.7858L36.5283 20.538ZM38.7718 12.4904L35.7989 7.32906C35.5117 6.79786 35.092 6.34984 34.5808 6.02842C34.1473 5.76003 33.6931 5.71874 33.3628 5.90454L32.2273 6.56519C32.5576 6.37938 33.0118 6.44132 33.4454 6.68906C33.9611 7.00497 34.382 7.45436 34.6634 7.98971L37.6363 13.151C38.3176 14.3278 38.3176 15.5871 37.6363 15.9794L38.7718 15.3187C39.4531 14.9265 39.4531 13.6465 38.7718 12.4904ZM33.5486 10.4258L33.6105 10.4465L33.6518 10.4671C33.6725 10.4671 33.6931 10.4878 33.7137 10.4878H34.0234C34.0441 10.4878 34.0441 10.4878 34.0647 10.4671C34.0854 10.4671 34.0854 10.4671 34.106 10.4465C34.1266 10.4465 34.1266 10.4258 34.1473 10.4258C34.2487 10.355 34.329 10.2582 34.3798 10.1456C34.4305 10.0329 34.4502 9.90865 34.4363 9.78584C34.4396 9.71639 34.4328 9.64681 34.4157 9.57938C33.985 9.23413 33.6981 8.74115 33.6105 8.19616C33.5604 8.15448 33.5048 8.11975 33.4454 8.09293C33.1563 7.92777 32.7744 7.89556 32.6092 8.01944L32.5886 8.04008C32.5832 8.04008 32.5778 8.04225 32.5739 8.04613C32.5702 8.04999 32.5679 8.05525 32.5679 8.06073L32.5473 8.08137C32.5473 8.10202 32.5266 8.10202 32.5266 8.12266L32.506 8.14331C32.506 8.16395 32.4854 8.16395 32.4854 8.1846C32.4854 8.20524 32.4647 8.20524 32.4647 8.22589C32.4624 8.24152 32.4552 8.25599 32.4441 8.26718C32.4441 8.28782 32.4234 8.28782 32.4234 8.30847C32.4234 8.32911 32.4028 8.34976 32.4028 8.3704V8.41169C32.4036 8.4406 32.3966 8.46919 32.3821 8.49427V8.61814C32.3943 8.97896 32.4823 9.33319 32.6402 9.65783C32.8132 9.951 33.5486 10.4258 33.5486 10.4258Z" fill="#32B0E7"/>
<path d="M37.6361 15.9588L34.7871 17.5897V17.8581L35.4271 18.9729C35.5096 19.1175 35.5096 19.2826 35.4271 19.3446L34.9522 19.6129C34.849 19.6749 34.849 19.84 34.9522 20.0052L35.4271 20.8103C35.5096 20.9549 35.5096 21.12 35.4271 21.182L34.9522 21.4503C34.849 21.5123 34.849 21.6774 34.9522 21.8426L35.4271 22.6478C35.5096 22.7923 35.5096 22.9574 35.4271 23.0194L34.7664 23.391L33.6516 24.031C33.6053 24.0479 33.5562 24.0549 33.5071 24.0516C33.4567 24.0475 33.4076 24.0335 33.3625 24.0103C33.248 23.941 33.1549 23.8409 33.0942 23.7213L31.9587 21.76C31.8542 21.585 31.7972 21.3857 31.7935 21.182L31.8142 15.8555C31.8076 15.6875 31.7578 15.524 31.6696 15.3807L29.1922 11.0865C28.5109 9.90972 28.5316 8.65037 29.1922 8.25811L32.2064 6.54456C32.5367 6.35875 32.9909 6.42069 33.4245 6.66843C33.9402 6.98434 34.3612 7.43371 34.6425 7.96908L37.6154 13.1304C38.3174 14.3071 38.3174 15.5871 37.6361 15.9588ZM33.4245 8.09295C32.8877 7.78327 32.4335 8.03101 32.4335 8.65037C32.4566 8.99122 32.5553 9.32278 32.7225 9.62069C32.8956 9.91404 33.1363 10.1618 33.4245 10.3433C33.9613 10.6529 34.4154 10.4052 34.4154 9.78585C34.3923 9.44496 34.2936 9.11348 34.1264 8.81553C33.9534 8.52216 33.7127 8.2744 33.4245 8.09295ZM31.2774 12.3871L35.6542 14.9265C35.7987 15.0091 35.9225 14.9471 35.9225 14.782V14.72C35.924 14.6241 35.8951 14.5302 35.84 14.4517C35.7956 14.3689 35.7318 14.2981 35.6542 14.2452L31.2774 11.7059C31.1329 11.6233 31.009 11.6852 31.009 11.8504V11.9123C31.0076 12.0083 31.0365 12.1022 31.0916 12.1807C31.1484 12.254 31.2105 12.3231 31.2774 12.3871ZM31.0296 10.7768V10.8388C31.0282 10.9348 31.0571 11.0287 31.1122 11.1071C31.163 11.1852 31.2256 11.255 31.298 11.3136L35.6748 13.8323C35.8193 13.9149 35.9432 13.8529 35.9432 13.6878V13.6259C35.9446 13.5299 35.9157 13.436 35.8606 13.3575C35.8162 13.2747 35.7524 13.2038 35.6748 13.151L31.298 10.6117C31.1535 10.5497 31.0296 10.6117 31.0296 10.7768ZM32.9703 21.8013L32.9909 17.4865C32.988 17.3879 32.9517 17.2932 32.8877 17.2181C32.8617 17.1687 32.8171 17.1316 32.7638 17.1149C32.6606 17.0529 32.5574 17.0942 32.5574 17.2388L32.5367 21.5536C32.5351 21.6337 32.5566 21.7125 32.5987 21.7807C32.6301 21.8432 32.6806 21.8938 32.7432 21.9252C32.8671 22.0078 32.9703 21.9665 32.9703 21.8013Z" fill="url(#paint2_linear_1073_1049)"/>
<path d="M31.2775 12.3871L35.6542 14.9264C35.7988 15.009 35.9226 14.9471 35.9226 14.7819V14.72C35.9241 14.624 35.8952 14.5301 35.8401 14.4516C35.7957 14.3688 35.7319 14.298 35.6542 14.2451L31.2775 11.7058C31.133 11.6232 31.0091 11.6851 31.0091 11.8503V11.9122C31.0076 12.0082 31.0365 12.1022 31.0917 12.1806C31.1484 12.2539 31.2106 12.3231 31.2775 12.3871ZM31.0297 10.7767V10.8387C31.0283 10.9347 31.0572 11.0286 31.1123 11.1071C31.1567 11.1898 31.2205 11.2607 31.2981 11.3135L35.6749 13.8322C35.8194 13.9148 35.9433 13.8529 35.9433 13.6877V13.6258C35.9447 13.5298 35.9158 13.4359 35.8607 13.3574C35.8163 13.2746 35.7525 13.2038 35.6749 13.1509L31.2981 10.6116C31.1536 10.5496 31.0297 10.6116 31.0297 10.7767ZM32.9704 21.8012L32.991 17.4864C32.9881 17.3878 32.9516 17.2932 32.8878 17.218C32.8465 17.1767 32.8259 17.1354 32.7639 17.1148C32.6607 17.0529 32.5575 17.0942 32.5575 17.2387L32.5368 21.5535C32.5352 21.6336 32.5566 21.7125 32.5988 21.7806C32.6301 21.8432 32.6807 21.8937 32.7433 21.9251C32.8672 22.0077 32.9704 21.9664 32.9704 21.8012Z" fill="#ACF3FD"/>
</g>
</g>
<defs>
<linearGradient id="paint0_linear_1073_1049" x1="10.4637" y1="20.3807" x2="10.4637" y2="28.819" gradientUnits="userSpaceOnUse">
<stop stop-color="#4DC2EB"/>
<stop offset="1" stop-color="#0078D4"/>
</linearGradient>
<linearGradient id="paint1_linear_1073_1049" x1="10.4649" y1="13.1929" x2="10.4649" y2="19.8" gradientUnits="userSpaceOnUse">
<stop stop-color="#4DC2EB"/>
<stop offset="1" stop-color="#0078D4"/>
</linearGradient>
<linearGradient id="paint2_linear_1073_1049" x1="33.4168" y1="1.05211" x2="33.4168" y2="25.6826" gradientUnits="userSpaceOnUse">
<stop offset="0.09" stop-color="#50E6FF"/>
<stop offset="1" stop-color="#45CAF2"/>
</linearGradient>
<clipPath id="clip0_1073_1049">
<rect width="45.4194" height="32" fill="white"/>
</clipPath>
</defs>
</svg>
