<svg width="100" height="62" viewBox="0 0 100 62" fill="none" xmlns="http://www.w3.org/2000/svg">
<path d="M29.7769 49.8728C31.2768 50.8001 33.7702 51.831 36.4066 51.831C38.8072 51.831 41.0378 51.141 42.8856 49.9651C42.8856 49.9651 42.8894 49.9651 42.8933 49.961L49.8708 45.6392V61.2446C48.7654 61.2446 47.6522 60.9455 46.6858 60.3478L29.7769 49.8728Z" fill="#225086"/>
<path d="M45.4814 1.93665L16.8043 34.2522C14.5904 36.7504 15.1678 40.5244 18.0394 42.3159C18.0394 42.3159 28.6538 48.9432 29.992 49.78C31.4756 50.7041 33.9418 51.7318 36.5496 51.7318C38.924 51.7318 41.1303 51.0441 42.958 49.8714C42.958 49.8714 42.9618 49.8714 42.9656 49.8677L49.8673 45.5591L33.1809 35.1385L49.8709 16.3297V0C48.25 0 46.6287 0.64555 45.4814 1.93665Z" fill="#66DDFF"/>
<path d="M33.0903 35.1986L33.2902 35.3211L49.8672 45.6396H49.8709V16.3571L49.8672 16.3533L33.0903 35.1986Z" fill="#CBF8FF"/>
<path d="M81.7022 42.4099C84.5745 40.6149 85.1518 36.8335 82.9377 34.3304L64.1172 13.0847C62.599 12.3767 60.8968 11.9709 59.0958 11.9709C55.5581 11.9709 52.3949 13.4981 50.2918 15.8978L49.8749 16.3686L66.5649 35.2145L49.8708 45.6555V61.2442C50.9686 61.2442 52.0622 60.946 53.0186 60.3487L81.7022 42.4061V42.4099Z" fill="#074793"/>
<path d="M49.8749 0V16.3532L50.2972 15.8827C52.4277 13.4842 55.6313 11.9579 59.214 11.9579C61.0427 11.9579 62.7627 12.3672 64.3004 13.0711L54.3104 1.94326C53.1518 0.650304 51.5095 0.00382549 49.8708 0.00382549L49.8749 0Z" fill="#0294E4"/>
<path d="M66.6518 35.1997L49.8708 16.3533V45.6396L66.6518 35.1997Z" fill="#96BCC2"/>
</svg>
