<svg width="40" height="32" viewBox="0 0 40 32" fill="none" xmlns="http://www.w3.org/2000/svg">
<path fill-rule="evenodd" clip-rule="evenodd" d="M11.6613 10.951C11.8382 8.97945 12.7464 7.14542 14.2073 5.8097C15.6682 4.47399 17.576 3.73328 19.5555 3.73328C21.5351 3.73328 23.4428 4.47399 24.9038 5.8097C26.3648 7.14542 27.2729 8.97945 27.4498 10.951C28.91 11.1247 30.2485 11.8498 31.1916 12.978C32.1347 14.1062 32.611 15.5522 32.523 17.02C32.435 18.4878 31.7893 19.8666 30.7182 20.8739C29.6471 21.8814 28.2314 22.4414 26.7609 22.4394H12.3501C10.8797 22.4414 9.46401 21.8814 8.39288 20.8739C7.32174 19.8666 6.6761 18.4878 6.5881 17.02C6.50008 15.5522 6.97635 14.1062 7.91944 12.978C8.86252 11.8498 10.2011 11.1247 11.6613 10.951Z" fill="url(#paint0_linear_1073_1130)"/>
<path fill-rule="evenodd" clip-rule="evenodd" d="M32.5253 16.6751C32.5253 18.204 31.9181 19.6701 30.837 20.7512C29.7559 21.8321 28.2898 22.4395 26.7609 22.4395H24.3111C24.2544 22.4395 24.1981 22.4507 24.1456 22.4724C24.0932 22.4941 24.0455 22.5259 24.0053 22.5661C23.9653 22.6063 23.9333 22.6539 23.9117 22.7064C23.89 22.7588 23.8788 22.815 23.8788 22.8717V23.4482C23.8788 23.5629 23.8333 23.6728 23.7522 23.7538C23.6711 23.8349 23.5611 23.8806 23.4464 23.8806H22.8701C22.8133 23.8806 22.757 23.8918 22.7045 23.9135C22.6521 23.9352 22.6045 23.967 22.5643 24.0072C22.5243 24.0473 22.4923 24.095 22.4706 24.1474C22.4489 24.1999 22.4377 24.2561 22.4377 24.3129V24.8893C22.4377 25.004 22.3922 25.1138 22.3111 25.1951C22.2301 25.2761 22.12 25.3217 22.0053 25.3217H21.429C21.3143 25.3217 21.2043 25.3672 21.1232 25.4482C21.0421 25.5293 20.9966 25.6393 20.9966 25.754V26.3304C20.9966 26.445 20.9511 26.5551 20.8701 26.6361C20.789 26.7172 20.6789 26.7627 20.5643 26.7627H19.9879C19.8733 26.7627 19.7632 26.8082 19.6821 26.8893C19.6011 26.9704 19.5556 27.0804 19.5556 27.1951V27.7714C19.5556 27.8861 19.5101 27.9961 19.429 28.0772C19.3479 28.1583 19.2379 28.2038 19.1232 28.2038H15.6646C15.55 28.2038 15.44 28.1583 15.3589 28.0772C15.2778 27.9961 15.2323 27.8861 15.2323 27.7714V24.0593C15.2324 23.9446 15.278 23.8347 15.3591 23.7537L21.1408 17.9721C20.9605 17.1817 20.9492 16.3622 21.1074 15.5671C21.2654 14.772 21.5895 14.0191 22.0583 13.3578C22.5271 12.6964 23.1301 12.1414 23.8281 11.7289C24.5261 11.3164 25.3031 11.0558 26.1085 10.9641C26.914 10.8723 27.7298 10.9514 28.5026 11.1964C29.2754 11.4413 29.9877 11.8465 30.5933 12.3854C31.1989 12.9244 31.6839 13.585 32.0169 14.3242C32.3497 15.0634 32.523 15.8644 32.5253 16.6751ZM28.6487 16.2774C29.0309 16.2774 29.3975 16.1255 29.6677 15.8553C29.938 15.585 30.0898 15.2185 30.0898 14.8363C30.0898 14.4541 29.938 14.0876 29.6677 13.8173C29.3975 13.547 29.0309 13.3952 28.6487 13.3952C28.2665 13.3952 27.9001 13.547 27.6297 13.8173C27.3595 14.0876 27.2077 14.4541 27.2077 14.8363C27.2077 15.2185 27.3595 15.585 27.6297 15.8553C27.9001 16.1255 28.2665 16.2774 28.6487 16.2774Z" fill="url(#paint1_radial_1073_1130)"/>
<defs>
<linearGradient id="paint0_linear_1073_1130" x1="19.5555" y1="22.435" x2="19.5555" y2="3.74129" gradientUnits="userSpaceOnUse">
<stop stop-color="#0078D4"/>
<stop offset="0.156" stop-color="#1380DA"/>
<stop offset="0.528" stop-color="#3C91E5"/>
<stop offset="0.822" stop-color="#559CEC"/>
<stop offset="1" stop-color="#5EA0EF"/>
</linearGradient>
<radialGradient id="paint1_radial_1073_1130" cx="0" cy="0" r="1" gradientUnits="userSpaceOnUse" gradientTransform="translate(22.4075 19.2072) rotate(121.131) scale(13.8778 9.46286)">
<stop offset="0.266" stop-color="#FFD70F"/>
<stop offset="0.487" stop-color="#FFCB12"/>
<stop offset="0.884" stop-color="#FEAC19"/>
<stop offset="1" stop-color="#FEA11B"/>
</radialGradient>
</defs>
</svg>
