<svg width="57" height="32" viewBox="0 0 57 32" fill="none" xmlns="http://www.w3.org/2000/svg">
<path d="M40.9807 0.0206299H11.871C11.3009 0.0206299 10.8387 0.482788 10.8387 1.05289V19.7574C10.8387 20.3275 11.3009 20.7897 11.871 20.7897H40.9807C41.5507 20.7897 42.0129 20.3275 42.0129 19.7574V1.05289C42.0129 0.482788 41.5507 0.0206299 40.9807 0.0206299Z" fill="url(#paint0_linear_1073_1098)"/>
<path d="M39.7006 1.75488H13.1509C12.8317 1.75488 12.5729 2.01369 12.5729 2.33295V18.4981C12.5729 18.8174 12.8317 19.0762 13.1509 19.0762H39.7006C40.0198 19.0762 40.2787 18.8174 40.2787 18.4981V2.33295C40.2787 2.01369 40.0198 1.75488 39.7006 1.75488Z" fill="white"/>
<path d="M32.6813 27.0865C29.5845 26.6117 29.4606 24.382 29.4813 20.8929H23.2877C23.2877 24.4852 23.1638 26.7149 20.0877 27.0865C19.6697 27.1495 19.2873 27.358 19.0078 27.6751C18.7284 27.9926 18.5698 28.398 18.5599 28.8207H34.1264C34.1164 28.4109 33.9682 28.0168 33.7058 27.702C33.4436 27.3871 33.0823 27.1701 32.6813 27.0865Z" fill="url(#paint1_linear_1073_1098)"/>
<path d="M45.2542 9.62062H31.0504C30.815 8.46209 30.1575 7.43231 29.206 6.73102C28.2542 6.02971 27.0759 5.70692 25.8997 5.82522C24.7233 5.94351 23.6329 6.49448 22.8399 7.37126C22.0469 8.24803 21.6078 9.38811 21.6078 10.5703C21.6078 11.7525 22.0469 12.8926 22.8399 13.7693C23.6329 14.6461 24.7233 15.1971 25.8997 15.3154C27.0759 15.4337 28.2542 15.1109 29.206 14.4096C30.1575 13.7083 30.815 12.6785 31.0504 11.52H32.5162V31.298C32.5162 31.4787 32.5879 31.6521 32.7157 31.7799C32.8434 31.9076 33.0168 31.9793 33.1975 31.9793H45.2336C45.4142 31.9793 45.5877 31.9076 45.7154 31.7799C45.8431 31.6521 45.9149 31.4787 45.9149 31.298V10.3019C45.9149 10.1248 45.846 9.95451 45.7226 9.82733C45.5993 9.70013 45.4313 9.62599 45.2542 9.62062Z" fill="#32BEDD"/>
<path d="M44.4284 11.4994H34.0439C33.9071 11.4994 33.7961 11.6103 33.7961 11.7471V29.2129C33.7961 29.3497 33.9071 29.4607 34.0439 29.4607H44.4284C44.5652 29.4607 44.6761 29.3497 44.6761 29.2129V11.7471C44.6761 11.6103 44.5652 11.4994 44.4284 11.4994Z" fill="white"/>
<path opacity="0.9" d="M26.4258 13.6671C28.0906 13.6671 29.44 12.3176 29.44 10.6529C29.44 8.98817 28.0906 7.63867 26.4258 7.63867C24.7611 7.63867 23.4116 8.98817 23.4116 10.6529C23.4116 12.3176 24.7611 13.6671 26.4258 13.6671Z" fill="url(#paint2_linear_1073_1098)"/>
<path d="M40.5264 19.7575L38.2142 17.4452C38.1956 17.4285 38.1726 17.4177 38.1479 17.4144C38.1231 17.411 38.098 17.4151 38.0756 17.4263C38.0534 17.4374 38.0348 17.4551 38.023 17.4769C38.0108 17.4987 38.0054 17.5236 38.0077 17.5484V18.9523C38.0077 18.9852 37.9946 19.0167 37.9713 19.0399C37.9481 19.0631 37.9166 19.0762 37.8839 19.0762H32.5161V20.7897H37.8839C37.9166 20.7897 37.9481 20.8028 37.9713 20.826C37.9946 20.8492 38.0077 20.8808 38.0077 20.9136V22.3381C38.0191 22.3552 38.0343 22.3691 38.0524 22.3788C38.0704 22.3885 38.0906 22.3935 38.1109 22.3935C38.1313 22.3935 38.1515 22.3885 38.1695 22.3788C38.1876 22.3691 38.2028 22.3552 38.2142 22.3381L40.5264 20.1291C40.5528 20.1058 40.5739 20.0772 40.5884 20.0452C40.6028 20.0132 40.6103 19.9784 40.6103 19.9433C40.6103 19.9081 40.6028 19.8734 40.5884 19.8413C40.5739 19.8093 40.5528 19.7807 40.5264 19.7575Z" fill="#0078D4"/>
<defs>
<linearGradient id="paint0_linear_1073_1098" x1="26.4258" y1="20.7897" x2="26.4258" y2="0.0206299" gradientUnits="userSpaceOnUse">
<stop stop-color="#0078D4"/>
<stop offset="0.82" stop-color="#5EA0EF"/>
</linearGradient>
<linearGradient id="paint1_linear_1073_1098" x1="26.4258" y1="28.8207" x2="26.4258" y2="20.7897" gradientUnits="userSpaceOnUse">
<stop stop-color="#1490DF"/>
<stop offset="0.98" stop-color="#1F56A3"/>
</linearGradient>
<linearGradient id="paint2_linear_1073_1098" x1="26.4258" y1="13.6671" x2="26.4258" y2="7.61803" gradientUnits="userSpaceOnUse">
<stop stop-color="#D2EBFF"/>
<stop offset="1" stop-color="#F0FFFD"/>
</linearGradient>
</defs>
</svg>
