<svg width="50" height="32" viewBox="0 0 50 32" fill="none" xmlns="http://www.w3.org/2000/svg">
<g clip-path="url(#clip0_1073_1077)">
<path d="M0.680908 16.9677V16.2229L24.0141 3.15051L49.2215 16.2229V16.9677L25.1434 31.0252L0.680908 16.9677Z" fill="#50E6FF"/>
<path d="M25.0233 30.2323L49.2215 16.2707L24.0141 3.15051L0.7771 16.1266L25.0233 30.2323Z" fill="#45CAF2"/>
<path d="M34.2509 22.1342H34.2268C35.5243 20.2599 36.7498 18.3855 38.0957 16.583L39.225 17.5444H39.249V17.5685L41.4598 19.4428C39.7778 19.2506 38.1197 19.1544 36.4376 18.9381L36.2694 19.1544C38.0235 19.3947 39.7057 19.4669 41.4598 19.6832C40.9425 20.2415 40.4986 20.8632 40.1382 21.5335L40.7871 21.1488C41.1028 20.6574 41.4561 20.1914 41.8444 19.7551L42.373 20.2118L42.6615 20.0436L42.0605 19.5148C42.6222 18.9522 43.2159 18.4227 43.8389 17.9289C44.0792 17.7609 44.2714 17.4963 44.1993 17.2321C43.6945 16.1269 42.3249 15.646 41.0753 14.853C40.6668 14.6367 40.2583 14.3966 39.8979 14.1803C40.1382 13.8678 40.3545 13.5796 40.5948 13.2671C41.8204 13.5074 43.3582 13.7478 44.6799 13.8919L44.0792 13.5796C42.9687 13.4362 41.863 13.2598 40.763 13.0508C40.9793 12.7626 41.1956 12.4741 41.4359 12.1857L41.1234 12.0177C40.6427 12.6182 40.0901 13.3633 39.6094 13.9879C38.7686 13.4593 38.1438 13.0267 37.9034 12.4741C37.9034 12.0656 37.9034 11.6571 37.9275 11.2486C38.2879 11.1283 38.6242 11.0082 38.9608 10.8882L38.6242 10.7198C38.3884 10.7892 38.156 10.8695 37.9275 10.9604V10.3594L37.4949 10.1431C37.519 10.4797 37.519 10.7922 37.519 11.1283C37.0624 11.2967 36.5817 11.513 36.1253 11.7052C34.9957 11.237 33.8962 10.6993 32.8331 10.0952H32.785C33.6261 9.73459 34.4912 9.37419 35.3802 9.06191L35.0679 8.89351C34.2035 9.21923 33.346 9.56374 32.4966 9.92682V9.90299C32.1843 9.73459 31.8958 9.54236 31.6076 9.37419C32.384 8.92917 33.2165 8.58976 34.0827 8.36495L33.7462 8.19678C32.891 8.43203 32.0679 8.77096 31.2951 9.20602V9.18197C30.6944 8.82157 30.0696 8.41306 29.4929 8.05266L26.7534 8.58123L25.1915 10.7679L26.9218 11.3927H26.9456C26.8977 13.2911 26.9456 15.2134 26.6333 17.0878C25.2396 16.7996 24.783 16.7033 24.3745 16.6073L24.3023 16.7033C23.4719 17.7007 22.4401 18.5115 21.2746 19.0824C20.7941 19.3226 20.6257 19.3947 20.3375 19.5148C19.4964 17.8807 17.5739 16.5592 16.2524 15.3818C18.3909 14.5648 18.7995 13.7956 19.4243 11.6571C20.6019 8.58123 23.0048 6.03394 25.7922 4.06356L25.4799 3.89539C22.6923 5.84171 20.3134 8.34089 19.0879 11.3689C17.9622 11.3754 16.8528 11.6383 15.8439 12.1378C16.8531 10.5516 17.2616 8.6534 17.4779 6.75496L17.0454 6.9953C16.7329 9.51831 16.0361 11.9694 14.1377 13.6518C14.1377 13.6518 11.8069 11.6569 11.7828 11.6569L10.5814 10.6478L10.2929 10.816L11.158 11.5609C11.2783 11.9934 11.1821 13.8919 10.7014 14.1803L7.26516 12.5222L6.3038 13.051L5.19855 14.4685L4.23742 14.2282L3.92491 14.3966L5.03016 14.6848L3.75674 16.2948C2.87199 16.2031 1.99043 16.0829 1.11344 15.9344L0.7771 16.1266C1.8104 16.3189 2.8916 16.4149 3.97302 16.5592C4.06902 16.4389 5.27072 14.9252 5.41484 14.757L7.6015 15.3335C7.57745 15.7903 7.55339 16.6073 7.52956 17.0637C7.55339 17.1118 7.57745 17.16 7.67367 17.3281C6.56843 17.5925 5.46295 17.8807 4.38153 18.2173L4.69382 18.3855C5.71693 18.0686 6.75096 17.7881 7.79396 17.5444C8.39447 18.6258 9.428 19.9714 10.5332 20.5962C10.77 21.1777 11.0511 21.7401 11.3743 22.2784L12.0232 22.6628C11.6147 21.942 11.158 21.2451 10.8936 20.4762C10.413 19.5148 11.1819 18.6978 11.9989 18.1211L13.9454 18.3133C12.2154 19.2506 12.864 19.7792 13.2725 21.2932C13.4648 22.0621 13.6332 23.0472 13.7292 23.648L14.1858 23.9124C14.1136 23.4076 13.9454 22.3505 13.8013 21.7257C14.6184 22.0621 15.5073 22.3265 16.1562 22.855C16.2765 23.4798 15.8439 24.1287 15.5554 24.7053L15.8679 24.8976C16.2283 24.2247 16.7329 23.5039 16.5406 22.7829C15.7717 22.1102 14.7144 21.8458 13.7292 21.4373C13.2485 19.491 12.5758 19.2747 14.5943 18.3133C14.6184 18.2895 14.6424 18.2654 14.6424 18.2414L16.0602 15.6941C17.4539 16.8956 19.3042 18.2173 20.1453 19.9714C21.659 19.2987 23.5815 18.1933 24.5667 16.9196C25.4799 17.1118 27.5944 17.5685 28.844 17.8088C29.1806 20.8125 22.8367 20.0676 23.99 22.3024C23.3893 22.3024 23.0048 22.3265 22.5242 22.3265L22.4761 22.5668C23.2452 24.0324 23.966 25.5224 24.5667 26.9882C24.9752 27.8774 25.1193 28.6704 24.5908 29.5115C24.4707 29.6075 24.3264 29.6796 24.2063 29.7756L24.687 30.0641C24.7834 29.9336 24.8717 29.797 24.9512 29.6556C28.3636 27.3005 28.3636 24.465 24.7108 22.5428C25.8403 22.5187 26.9697 22.4946 28.1473 22.4706C28.6277 23.576 29.541 25.6665 30.0215 26.796C29.6611 27.1805 29.3247 27.589 28.9643 27.9734C29.2044 27.8293 30.0455 27.3968 30.1898 27.1324L30.2377 27.2286L30.5743 27.0364C29.9976 25.7387 29.1565 23.7442 28.5796 22.4465C31.7036 22.3984 35.5243 22.2784 38.4561 22.4946L38.8165 22.2784C37.9034 22.1821 36.4135 22.1342 34.2509 22.1342ZM15.2431 12.8345C15.2561 13.083 15.2481 13.3322 15.2191 13.5794C15.181 13.8548 15.0999 14.1225 14.9788 14.3728L14.378 13.772L15.2431 12.8345ZM10.7736 14.4685C11.5425 14.1322 11.6866 12.7864 11.6147 11.8972L13.8971 13.844L13.873 13.868C12.2152 15.2617 10.1245 16.0309 7.93762 16.271L7.98573 15.3099C8.49047 15.1896 10.2205 14.7332 10.7734 14.4688L10.7736 14.4685ZM5.55895 14.5407L7.02482 12.6904L10.437 14.3244C9.93251 14.5407 8.44258 14.9492 7.79373 15.1174L5.55895 14.5407ZM11.9991 17.6647C11.254 18.3133 10.0526 19.0103 10.3651 20.1396C9.32991 19.2896 8.49333 18.2234 7.91401 17.0158L7.93807 16.5111C10.1969 16.2708 12.4076 15.4778 14.1377 14.06L14.7865 14.6129C14.258 15.9344 13.0803 16.7755 11.9991 17.6647ZM15.6035 15.6221L14.2339 18.0732L12.2395 17.8807C13.3207 16.9677 14.4742 16.1266 15.0988 14.8771C15.1229 14.8771 15.6998 15.3818 15.6998 15.3818L15.6035 15.6221ZM15.988 15.2136C15.988 15.2136 15.2672 14.5888 15.2431 14.5888C15.4599 13.9976 15.542 13.3655 15.4835 12.7385C15.7958 12.3538 18.0065 11.537 19.0157 11.6333C18.5353 13.3633 18.0065 14.565 15.988 15.2136ZM37.4468 16.8477C36.9718 17.5108 36.4993 18.1756 36.0291 18.8421C35.6687 18.794 35.2601 18.7218 34.8757 18.6739C34.8035 17.977 33.9143 16.7274 33.602 16.0785H33.578V16.0545C32.785 14.757 32.2803 13.7718 34.0106 12.9788C35.2601 14.1082 36.5576 15.2134 37.8553 16.3189C37.7101 16.4879 37.5737 16.6644 37.4468 16.8477ZM39.7057 14.4204C41.0512 15.2856 42.9978 15.9825 43.7667 17.2081C43.8032 17.3108 43.8014 17.4232 43.7617 17.5248C43.722 17.6263 43.6469 17.71 43.5504 17.7607C42.9293 18.2389 42.343 18.7608 41.7963 19.3226L39.8257 17.6166L39.7538 17.5925H39.7778L38.2879 16.2948C38.7686 15.67 39.225 15.0452 39.7057 14.4204ZM36.1012 11.9934C36.5576 11.8012 37.0142 11.5849 37.4709 11.417C37.2546 13.051 38.0475 13.3152 39.3934 14.2765C39.3934 14.2765 38.4561 15.5021 37.9994 16.1026C36.7498 15.0452 35.5005 13.964 34.275 12.8586C34.8757 12.5463 35.4524 12.2819 36.1012 11.9934ZM32.2562 10.3594C32.3093 10.2875 32.3858 10.2365 32.4725 10.2153V10.2393C33.5276 10.8431 34.619 11.3808 35.7406 11.8493C35.1399 12.1137 34.6113 12.3781 34.0587 12.6423C33.3136 11.8734 32.3765 11.2486 32.2562 10.3594ZM31.3192 9.54236C31.6076 9.71076 31.8718 9.87893 32.1602 10.0471H32.1843C31.0548 10.5276 33.1935 12.1857 33.7702 12.7864C33.4747 12.9374 33.1933 13.1144 32.9291 13.3152L29.3247 11.9934C29.9255 11.1045 30.4061 10.2153 31.3192 9.54236ZM26.9218 11.1523L25.6722 10.6719L27.0418 8.77346L29.3488 8.31683C29.5891 8.46117 29.8533 8.62934 30.1177 8.79751C28.9881 9.37419 27.0899 9.71053 26.9218 11.1523ZM26.9696 17.184C27.3303 15.2375 27.2581 13.243 27.3062 11.2726C27.3782 9.83082 29.2766 9.54236 30.3821 8.98974C30.5984 9.11002 30.7906 9.25414 31.0069 9.37419H31.0307C30.0696 10.0471 29.5891 10.9601 28.9643 11.8734C27.8588 13.6277 28.3636 15.574 28.82 17.5685C28.1473 17.4244 27.5225 17.3041 26.9696 17.184ZM28.6999 14.5888C28.6575 13.773 28.8316 12.9606 29.2044 12.2338L32.7369 13.5315C32.0402 14.3004 32.7129 15.3096 33.1454 16.0066H33.1214C33.4098 16.6073 34.3469 17.9529 34.4431 18.6018C32.785 18.2895 30.9106 18.0251 29.2525 17.6166C29.0603 16.6314 28.6759 15.4297 28.6999 14.5888ZM24.9512 23.0232C27.7388 24.441 27.7388 27.1805 25.2396 29.0549C25.8163 27.6611 23.5334 24.0565 22.8845 22.5668C23.2452 22.5668 23.7016 22.5668 24.2304 22.5428C24.4226 22.6869 24.687 22.855 24.9512 23.0232ZM28.4836 22.2062C27.4022 22.2303 25.2637 22.2784 24.4466 22.3024C22.9808 20.428 29.4448 20.9566 29.2285 17.9048C32.2083 18.4817 33.6261 18.7459 35.8609 19.0824C35.1639 20.1158 34.4912 21.125 33.7702 22.1342C32.064 22.1342 30.2137 22.1583 28.4836 22.2062Z" fill="#84ECFD"/>
<path d="M25.2636 8.55718C26.5182 7.50425 27.9183 6.63818 29.4207 5.98584L27.4743 4.95276C25.1433 6.20235 22.356 7.86045 21.6109 10.5757C21.5752 10.7421 21.5512 10.9107 21.5389 11.0804C21.5149 12.3779 21.9234 13.6994 21.6109 15.0214C21.1304 17.5444 18.3428 18.3855 16.1802 19.0584C15.7484 19.17 15.3465 19.3751 15.0028 19.6591C13.2005 21.9899 25.3837 24.2247 20.8179 27.7812L21.2264 28.0216C25.7681 24.6573 17.5498 22.4706 16.0601 20.2358C16.0842 19.9474 16.4927 19.8754 16.7328 19.7792C21.2505 18.674 24.2782 16.7993 23.5815 11.6812C23.5574 10.4316 24.3744 9.35038 25.2636 8.55718Z" fill="#50E6FF"/>
<path d="M7.4849 8.06128C7.1544 7.84284 6.7553 7.75306 6.36309 7.80891C6.26986 7.82802 6.17985 7.86036 6.09574 7.90491C5.71968 8.10531 5.48706 8.55399 5.48706 9.20261C5.48706 11.5788 7.47174 12.8747 7.48717 15.3784C7.49171 14.6737 7.65239 14.2489 7.88502 13.9454C8.4676 13.1847 9.48729 13.2149 9.48729 11.5125C9.48275 10.2416 8.58924 8.6981 7.4849 8.06128ZM8.42629 11.4201C8.2697 11.7506 7.90658 11.8355 7.48286 11.5919C7.18517 11.3986 6.9373 11.1377 6.75934 10.8306C6.58137 10.5234 6.47836 10.1787 6.45864 9.82423C6.45864 9.33969 6.71532 9.07007 7.08048 9.10344C7.22278 9.12023 7.35986 9.16698 7.48286 9.24029C7.78051 9.43367 8.02834 9.69453 8.20627 10.0017C8.38417 10.3088 8.48716 10.6536 8.50686 11.008C8.51142 11.1497 8.48387 11.2906 8.42629 11.4201Z" fill="#2195DC"/>
<path d="M7.48492 9.23958C7.34898 9.15715 7.19701 9.10468 7.03919 9.08571C6.63272 9.05121 6.3479 9.34897 6.3479 9.8882C6.36971 10.282 6.4843 10.6651 6.68229 11.0063C6.88026 11.3474 7.15605 11.637 7.48719 11.8513C7.95902 12.1232 8.36322 12.0274 8.53525 11.6591C8.599 11.5148 8.63016 11.3583 8.62648 11.2007C8.60249 10.8074 8.48677 10.4252 8.28853 10.0847C8.09029 9.74418 7.81507 9.45459 7.48492 9.23958Z" fill="#2195DC"/>
<path d="M8.02417 7.74992C7.46746 7.42833 6.96522 7.40019 6.60437 7.6108L6.59234 7.61988L6.09668 7.90833C6.18079 7.86378 6.27082 7.83146 6.36403 7.81233C6.75622 7.75736 7.15502 7.8469 7.48607 8.06425C8.59132 8.7013 9.48618 10.2473 9.48618 11.5148C9.48618 13.2169 8.46649 13.1865 7.88391 13.9477C7.59373 14.3668 7.45355 14.8715 7.48607 15.3802L8.02394 15.0693C8.03733 12.5821 10.0243 13.5796 10.0243 11.2039C10.0243 9.93069 9.12874 8.38697 8.02417 7.74992Z" fill="#0078D4"/>
<path d="M8.42189 12.092L7.9437 11.8158L7.80458 11.2375L7.11102 10.8374L6.97394 11.255L6.4978 10.9808L7.20657 9.15454L7.72629 9.4548L8.42189 12.092ZM7.70472 10.7943L7.49593 9.92209C7.47798 9.85008 7.46695 9.77652 7.46302 9.7024L7.45236 9.69604C7.44782 9.75596 7.43624 9.81519 7.41741 9.87216L7.20453 10.5069L7.70472 10.7943Z" fill="white"/>
<path d="M39.4437 7.10176C39.1133 6.88355 38.7143 6.79395 38.3224 6.84985C38.2291 6.86893 38.1392 6.90125 38.0552 6.94585C37.6794 7.14556 37.4468 7.59447 37.4468 8.24332C37.4468 10.6184 39.4308 11.9131 39.4458 14.4141C39.4501 13.7101 39.611 13.2846 39.8436 12.9823C40.4257 12.222 41.445 12.2524 41.445 10.551C41.4427 9.28094 40.5467 7.73836 39.4437 7.10176ZM40.3867 10.4556C40.2301 10.7858 39.8674 10.8705 39.4437 10.6272C39.1462 10.4339 38.8986 10.1733 38.7207 9.86631C38.5427 9.55938 38.4399 9.21483 38.4202 8.86063C38.4202 8.37609 38.6766 8.1067 39.0416 8.13983C39.1839 8.15656 39.3209 8.2032 39.4437 8.27668C39.7412 8.46995 39.9888 8.73065 40.1665 9.0376C40.3445 9.34453 40.4473 9.68909 40.467 10.0433C40.472 10.185 40.4446 10.3261 40.3867 10.4556Z" fill="#2195DC"/>
<path d="M39.4437 8.27937C39.308 8.19676 39.1559 8.14413 38.9982 8.12505C38.5917 8.09032 38.3074 8.38808 38.3074 8.92709C38.3292 9.32069 38.4435 9.70358 38.6414 10.0445C38.8391 10.3855 39.1149 10.6749 39.4458 10.8891C39.9174 11.1605 40.3216 11.065 40.4931 10.6968C40.5569 10.5526 40.588 10.3961 40.5844 10.2384C40.5612 9.84529 40.4459 9.46312 40.2478 9.12281C40.0497 8.7825 39.7742 8.49357 39.4437 8.27937Z" fill="#2195DC"/>
<path d="M39.9845 6.78879C39.4282 6.46743 38.9271 6.43906 38.5667 6.64967L38.5538 6.65829L38.0583 6.94516C38.1423 6.90068 38.2322 6.86822 38.3255 6.84916C38.7174 6.79433 39.1159 6.88386 39.4466 7.10107C40.5505 7.73767 41.4458 9.28275 41.4458 10.5496C41.4458 12.2508 40.4266 12.2204 39.8444 12.9809C39.5542 13.3998 39.4141 13.9044 39.4466 14.413L39.9854 14.102C39.9988 11.6163 41.9846 12.6137 41.9846 10.2389C41.9814 8.97024 41.0884 7.42539 39.9845 6.78879Z" fill="#0078D4"/>
<path d="M40.3105 10.4783C40.3105 10.6821 40.2476 10.8063 40.1194 10.8539C40.0284 10.8722 39.9346 10.8708 39.8443 10.8498C39.754 10.8287 39.6693 10.7886 39.5958 10.7321L38.8462 10.2997V8.06494L39.5545 8.47345C39.749 8.57969 39.9192 8.72539 40.0542 8.90125C40.1643 9.04015 40.2261 9.21081 40.2301 9.38784C40.2344 9.43545 40.2272 9.4834 40.209 9.52766C40.1909 9.57189 40.1625 9.61111 40.126 9.64202C40.0858 9.66873 40.04 9.68564 39.9918 9.69136C39.944 9.69706 39.8954 9.69145 39.85 9.67493V9.68128C39.9855 9.77742 40.0981 9.90208 40.1802 10.0464C40.2628 10.1755 40.3078 10.3252 40.3105 10.4783ZM39.7717 9.21558C39.7717 9.05059 39.6653 8.90693 39.4501 8.78301L39.2851 8.68701V9.21717L39.4773 9.32792C39.5073 9.35077 39.5418 9.36689 39.5786 9.37519C39.6153 9.3835 39.6535 9.38377 39.6902 9.37603C39.7458 9.35901 39.7717 9.30477 39.7717 9.21558ZM39.8498 10.2042C39.8489 10.1106 39.8194 10.0196 39.7649 9.94341C39.7032 9.85538 39.6221 9.78257 39.5279 9.73053L39.2878 9.59141V10.1803L39.5245 10.3174C39.5581 10.3424 39.5965 10.3602 39.6373 10.3699C39.678 10.3796 39.7202 10.381 39.7615 10.3739C39.8196 10.3562 39.8498 10.2999 39.8498 10.2042Z" fill="white"/>
<path d="M17.0959 3.7991L18.5364 2.9621C19.2334 2.55813 20.1632 2.53385 21.2135 2.95144L19.7735 3.78843C18.7227 3.36948 17.7918 3.39376 17.0959 3.7991ZM30.8723 10.1333C30.8532 7.15637 28.6665 3.49861 25.9588 1.93537C24.541 1.11722 23.2513 1.03143 22.3417 1.56L20.9015 2.39677C21.8106 1.86797 23.101 1.95421 24.5181 2.7726C27.2259 4.3347 29.413 7.99337 29.4318 10.9705L29.4223 10.9757C31.3057 12.4262 32.7328 15.0411 32.7269 17.1942C32.7235 18.3493 32.308 19.1618 31.6321 19.5547L33.0825 18.7118C33.7586 18.3192 34.1742 17.5062 34.1773 16.3513C34.1823 14.1986 32.7555 11.5835 30.8723 10.1333Z" fill="#156AB3"/>
<path d="M29.4857 10.9663C29.468 7.97686 27.2713 4.30185 24.5516 2.73181C22.3508 1.46135 20.4544 1.94975 19.8065 3.75854C17.5388 2.85686 15.8271 4.00591 15.8198 6.58679C15.8117 9.4559 17.9432 13.0147 20.5817 14.5378C20.7229 14.6195 20.8618 14.6937 21.0009 14.7588L28.7386 19.2259C28.8017 19.2629 28.8697 19.2908 28.9405 19.3092C31.0709 20.4367 32.7742 19.5053 32.781 17.1663C32.7851 15.0194 31.3635 12.4124 29.4857 10.9663Z" fill="url(#paint0_linear_1073_1077)"/>
<path d="M27.2507 10.2729C27.4697 10.9172 27.5857 11.592 27.5946 12.2724C27.5946 14.5021 26.143 15.4633 24.2711 14.6177C24.1399 14.5613 24.0124 14.497 23.8889 14.4252C23.7339 14.3449 23.5923 14.2411 23.4688 14.1177H23.4307C21.5588 12.7719 20.1453 10.1574 20.1453 7.96597C20.1311 7.39154 20.2625 6.82282 20.5273 6.31286C21.062 5.39008 22.0937 5.08234 23.2777 5.54373C23.3492 5.54509 23.4175 5.57233 23.47 5.62089C23.5848 5.6976 23.7375 5.77454 23.8521 5.85147C23.9579 5.93 24.0734 5.99445 24.1957 6.0437C24.2722 6.08228 24.3104 6.12064 24.388 6.15899C25.7047 7.1827 26.6879 8.57442 27.2126 10.1576L27.2507 10.1962V10.2729ZM23.698 11.3879V8.54288L22.0937 7.6201C21.9964 8.0752 21.9452 8.53893 21.9407 9.00427C21.9553 9.50901 22.0197 10.0112 22.133 10.5035L23.698 11.3879ZM24.08 8.73488V11.5802L25.5697 12.426C25.6925 12.0141 25.7572 11.587 25.7622 11.1573C25.7699 10.6278 25.7186 10.0991 25.6092 9.58095L24.08 8.73488ZM24.8441 14.4252C25.2138 14.5278 25.6069 14.5085 25.9648 14.3699C26.3227 14.2314 26.6264 13.9811 26.8306 13.6563L25.7991 13.0413C25.621 13.5852 25.2894 14.0657 24.8441 14.4252ZM26.9827 13.3104C27.1429 12.9204 27.2208 12.5015 27.2119 12.0799C27.2165 11.5303 27.1261 10.984 26.9446 10.4651L25.9133 9.85011C26.0039 10.3709 26.0549 10.8978 26.066 11.4263C26.064 11.8564 25.9993 12.2838 25.8738 12.6952L26.9827 13.3104ZM20.4892 8.1582C20.4905 8.66657 20.5677 9.17221 20.7184 9.65766L21.7496 10.2729C21.6291 9.79571 21.5776 9.30366 21.5969 8.81181C21.5845 8.3457 21.6359 7.88007 21.7496 7.42787L20.7565 6.85096C20.5795 7.26401 20.4885 7.70881 20.4892 8.1582ZM20.8711 10.1962C21.2664 11.3305 21.9204 12.3571 22.7812 13.1949C22.3842 12.4251 22.0766 11.6124 21.8643 10.7727L20.8711 10.1962ZM23.698 13.8871V11.811L22.2464 10.9649C22.5519 12.0799 23.0104 13.1566 23.5072 13.7718C23.5834 13.8102 23.6218 13.8485 23.698 13.8871ZM23.698 8.11984V6.12041C23.5986 6.07563 23.4965 6.03714 23.3923 6.00512C23.0104 5.96654 22.5136 6.38957 22.2083 7.27377L23.698 8.11984ZM26.7925 9.92682C26.4217 8.92418 25.8493 8.00823 25.1104 7.23564C25.4453 7.92221 25.7016 8.64451 25.8743 9.38872L26.7925 9.92682ZM24.1563 14.1563C24.653 14.1177 25.1115 13.5796 25.417 12.8105L24.08 12.0415V14.1177C24.1004 14.1386 24.1274 14.1522 24.1563 14.1563ZM24.08 6.35145V8.3123L25.4934 9.15791C25.188 7.88926 24.6912 6.88955 24.3092 6.50486C24.2327 6.46651 24.1563 6.3898 24.08 6.35145ZM22.5519 5.77454C21.8643 5.73596 21.2912 5.96677 20.9474 6.50509L21.8273 7.04342C21.9694 6.57097 22.2172 6.13707 22.5519 5.77454Z" fill="#50E6FF"/>
</g>
<defs>
<linearGradient id="paint0_linear_1073_1077" x1="23.3249" y1="3.8559" x2="25.0804" y2="18.3505" gradientUnits="userSpaceOnUse">
<stop stop-color="#2195DC"/>
<stop offset="1" stop-color="#156AB3"/>
</linearGradient>
<clipPath id="clip0_1073_1077">
<rect width="49.9291" height="32" fill="white"/>
</clipPath>
</defs>
</svg>
