<svg width="100" height="57" viewBox="0 0 100 57" fill="none" xmlns="http://www.w3.org/2000/svg">
<g clip-path="url(#clip0_1070_970)">
<path d="M72.1819 0.036377H20.9091C19.905 0.036377 19.0909 0.850406 19.0909 1.85456V34.8C19.0909 35.8042 19.905 36.6182 20.9091 36.6182H72.1819C73.1859 36.6182 74 35.8042 74 34.8V1.85456C74 0.850406 73.1859 0.036377 72.1819 0.036377Z" fill="url(#paint0_linear_1070_970)"/>
<path d="M69.9273 3.09082H23.1637C22.6014 3.09082 22.1455 3.54667 22.1455 4.109V32.5818C22.1455 33.1441 22.6014 33.5999 23.1637 33.5999H69.9273C70.4896 33.5999 70.9455 33.1441 70.9455 32.5818V4.109C70.9455 3.54667 70.4896 3.09082 69.9273 3.09082Z" fill="white"/>
<path d="M57.5637 47.7091C52.1091 46.8728 51.891 42.9455 51.9273 36.8H41.0182C41.0182 43.1273 40.8 47.0546 35.3818 47.7091C34.6456 47.82 33.9721 48.1873 33.4798 48.746C32.9876 49.305 32.7083 50.0191 32.6909 50.7637H60.1091C60.0914 50.0419 59.8305 49.3478 59.3682 48.7932C58.9064 48.2387 58.2701 47.8564 57.5637 47.7091Z" fill="url(#paint1_linear_1070_970)"/>
<path d="M79.7091 16.9455H54.6909C54.2764 14.9049 53.1182 13.0911 51.4423 11.8559C49.7659 10.6206 47.6904 10.0521 45.6186 10.2604C43.5467 10.4688 41.626 11.4393 40.2293 12.9836C38.8325 14.5279 38.0591 16.536 38.0591 18.6183C38.0591 20.7006 38.8325 22.7086 40.2293 24.2529C41.626 25.7973 43.5467 26.7677 45.6186 26.9761C47.6904 27.1845 49.7659 26.6159 51.4423 25.3807C53.1182 24.1454 54.2764 22.3316 54.6909 20.291H57.2727V55.1274C57.2727 55.4455 57.3991 55.751 57.6241 55.976C57.8491 56.201 58.1545 56.3274 58.4727 56.3274H79.6727C79.9909 56.3274 80.2964 56.201 80.5214 55.976C80.7464 55.751 80.8727 55.4455 80.8727 55.1274V18.1455C80.8727 17.8335 80.7514 17.5336 80.5341 17.3096C80.3168 17.0856 80.0209 16.955 79.7091 16.9455Z" fill="#32BEDD"/>
<path d="M78.2545 20.2546H59.9636C59.7227 20.2546 59.5272 20.45 59.5272 20.691V51.4546C59.5272 51.6955 59.7227 51.891 59.9636 51.891H78.2545C78.4954 51.891 78.6909 51.6955 78.6909 51.4546V20.691C78.6909 20.45 78.4954 20.2546 78.2545 20.2546Z" fill="white"/>
<path opacity="0.9" d="M46.5454 24.0728C49.4777 24.0728 51.8545 21.6958 51.8545 18.7637C51.8545 15.8315 49.4777 13.4546 46.5454 13.4546C43.6133 13.4546 41.2363 15.8315 41.2363 18.7637C41.2363 21.6958 43.6133 24.0728 46.5454 24.0728Z" fill="url(#paint2_linear_1070_970)"/>
<path d="M71.3818 34.8L67.3091 30.7273C67.2763 30.6978 67.2359 30.6789 67.1922 30.6729C67.1486 30.667 67.1045 30.6743 67.065 30.6939C67.0259 30.7136 66.9932 30.7446 66.9723 30.783C66.9509 30.8214 66.9413 30.8654 66.9454 30.9091V33.3818C66.9454 33.4397 66.9223 33.4952 66.8813 33.5361C66.8404 33.577 66.785 33.6 66.7273 33.6H57.2727V36.6182H66.7273C66.785 36.6182 66.8404 36.6412 66.8813 36.6821C66.9223 36.723 66.9454 36.7785 66.9454 36.8364V39.3455C66.9654 39.3755 66.9923 39.4001 67.0241 39.4171C67.0559 39.4341 67.0913 39.443 67.1272 39.443C67.1632 39.443 67.1986 39.4341 67.2304 39.4171C67.2622 39.4001 67.2891 39.3755 67.3091 39.3455L71.3818 35.4545C71.4282 35.4136 71.4654 35.3632 71.4909 35.3068C71.5163 35.2504 71.5295 35.1892 71.5295 35.1273C71.5295 35.0654 71.5163 35.0042 71.4909 34.9477C71.4654 34.8913 71.4282 34.841 71.3818 34.8Z" fill="#0078D4"/>
</g>
<defs>
<linearGradient id="paint0_linear_1070_970" x1="46.5455" y1="36.6182" x2="46.5455" y2="0.036377" gradientUnits="userSpaceOnUse">
<stop stop-color="#0078D4"/>
<stop offset="0.82" stop-color="#5EA0EF"/>
</linearGradient>
<linearGradient id="paint1_linear_1070_970" x1="46.5455" y1="50.7637" x2="46.5455" y2="36.6182" gradientUnits="userSpaceOnUse">
<stop stop-color="#1490DF"/>
<stop offset="0.98" stop-color="#1F56A3"/>
</linearGradient>
<linearGradient id="paint2_linear_1070_970" x1="46.5454" y1="24.0728" x2="46.5454" y2="13.4182" gradientUnits="userSpaceOnUse">
<stop stop-color="#D2EBFF"/>
<stop offset="1" stop-color="#F0FFFD"/>
</linearGradient>
<clipPath id="clip0_1070_970">
<rect width="100" height="56.3636" fill="white"/>
</clipPath>
</defs>
</svg>
