<svg width="100" height="65" viewBox="0 0 100 65" fill="none" xmlns="http://www.w3.org/2000/svg">
<path d="M1.36353 33.9837V32.4919L48.0963 6.31006L98.5826 32.4919V33.9837L50.3581 62.1387L1.36353 33.9837Z" fill="#50E6FF"/>
<path d="M50.1177 60.5505L98.5827 32.5878L48.0964 6.31006L1.5564 32.2992L50.1177 60.5505Z" fill="#45CAF2"/>
<path d="M68.5991 44.3313H68.5509C71.1495 40.5772 73.6041 36.8231 76.2995 33.2131L78.5614 35.1386H78.6095V35.1868L83.0373 38.9408C79.6686 38.5558 76.3477 38.3631 72.9786 37.9299L72.6418 38.3631C76.155 38.8445 79.5241 38.989 83.0373 39.4222C82.0014 40.5404 81.1123 41.7856 80.3904 43.1281L81.69 42.3577C82.3223 41.3734 83.03 40.4401 83.8077 39.5663L84.8664 40.4808L85.4441 40.144L84.2404 39.0849C85.3654 37.9582 86.5545 36.8976 87.8023 35.9086C88.2836 35.5722 88.6686 35.0422 88.5241 34.5131C87.5132 32.2995 84.77 31.3363 82.2673 29.7481C81.4491 29.3149 80.6309 28.834 79.9091 28.4008C80.3905 27.7749 80.8236 27.1977 81.305 26.5718C83.7595 27.0531 86.8395 27.5345 89.4868 27.8231L88.2836 27.1977C86.0595 26.9104 83.845 26.5572 81.6418 26.1386C82.075 25.5613 82.5082 24.9836 82.9895 24.4058L82.3636 24.0695C81.4009 25.2722 80.2941 26.7645 79.3314 28.0154C77.6473 26.9568 76.3959 26.0904 75.9145 24.9836C75.9145 24.1654 75.9145 23.3472 75.9627 22.529C76.6845 22.2881 77.3582 22.0477 78.0323 21.8072L77.3582 21.4699C76.8859 21.6089 76.4205 21.7697 75.9627 21.9518V20.7481L75.0964 20.3149C75.1445 20.989 75.1445 21.6149 75.1445 22.2881C74.23 22.6254 73.2673 23.0586 72.3532 23.4436C70.0909 22.5058 67.8886 21.4288 65.7595 20.219H65.6632C67.3477 19.4968 69.0805 18.7749 70.8609 18.1495L70.2355 17.8122C68.5041 18.4646 66.7868 19.1546 65.0855 19.8818V19.834C64.46 19.4968 63.8823 19.1118 63.305 18.7749C64.86 17.8836 66.5273 17.2038 68.2623 16.7536L67.5882 16.4168C65.8755 16.8879 64.2268 17.5668 62.6791 18.4381V18.3899C61.4759 17.6681 60.2245 16.8499 59.0695 16.1281L53.5827 17.1868L50.4545 21.5663L53.92 22.8177H53.9677C53.8718 26.6199 53.9677 30.4699 53.3423 34.224C50.5509 33.6468 49.6364 33.454 48.8182 33.2618L48.6736 33.454C47.0105 35.4517 44.944 37.0754 42.6096 38.219C41.6473 38.6999 41.31 38.8445 40.7328 39.0849C39.0482 35.8122 35.1978 33.1654 32.551 30.8072C36.8341 29.1708 37.6523 27.6304 38.9037 23.3472C41.2623 17.1868 46.075 12.0849 51.6577 8.13858L51.0323 7.80176C45.4491 11.6999 40.6846 16.7054 38.23 22.7699C35.9754 22.783 33.7534 23.3097 31.7328 24.3099C33.7541 21.1331 34.5723 17.3313 35.0055 13.529L34.1391 14.0104C33.5132 19.0636 32.1178 23.9727 28.3155 27.3422C28.3155 27.3422 23.6473 23.3468 23.5991 23.3468L21.1928 21.3258L20.615 21.6627L22.3478 23.1545C22.5887 24.0208 22.396 27.8231 21.4332 28.4008L14.551 25.0799L12.6255 26.139L10.4119 28.9781L8.48686 28.4968L7.86096 28.834L10.0746 29.4113L7.52414 32.6359C5.75214 32.4522 3.98651 32.2115 2.23003 31.914L1.5564 32.299C3.62594 32.684 5.79141 32.8763 7.95732 33.1654C8.14959 32.9245 10.5564 29.8927 10.845 29.5558L15.2246 30.7104C15.1764 31.6254 15.1282 33.2618 15.0805 34.1759C15.1282 34.2722 15.1764 34.3686 15.3691 34.7054C13.1555 35.2349 10.9414 35.8122 8.7755 36.4863L9.40096 36.8231C11.4501 36.1884 13.5211 35.6266 15.61 35.1386C16.8128 37.3045 18.8828 39.9995 21.0964 41.2508C21.5705 42.4155 22.1337 43.5418 22.781 44.6199L24.0805 45.3899C23.2623 43.9463 22.3478 42.5504 21.8182 41.0104C20.8555 39.0849 22.3955 37.4486 24.0319 36.2936L27.9305 36.6786C24.4655 38.5558 25.7646 39.6145 26.5828 42.6468C26.9678 44.1868 27.305 46.1599 27.4973 47.3631L28.4119 47.8926C28.2673 46.8817 27.9305 44.7645 27.6419 43.5131C29.2782 44.1868 31.0587 44.7163 32.3582 45.7749C32.5991 47.0263 31.7328 48.3258 31.155 49.4808L31.781 49.8658C32.5028 48.5181 33.5132 47.0744 33.1282 45.6304C31.5882 44.2831 29.4705 43.7536 27.4973 42.9354C26.5346 39.0372 25.1873 38.604 29.23 36.6786C29.2782 36.6308 29.3264 36.5827 29.3264 36.5345L32.166 31.4327C34.9573 33.839 38.6632 36.4863 40.3478 39.9995C43.3796 38.6522 47.23 36.4381 49.2032 33.8872C51.0323 34.2722 55.2673 35.1868 57.77 35.6681C58.4441 41.684 45.7382 40.1922 48.0482 44.6681C46.845 44.6681 46.075 44.7163 45.1123 44.7163L45.016 45.1977C46.5564 48.1331 48 51.1172 49.2032 54.0531C50.0214 55.834 50.31 57.4222 49.2514 59.1067C49.0109 59.299 48.7218 59.4435 48.4814 59.6358L49.4441 60.2135C49.6373 59.9522 49.8141 59.6785 49.9732 59.3953C56.8077 54.6785 56.8077 48.9994 49.4918 45.1495C51.7541 45.1013 54.0159 45.0531 56.3745 45.0049C57.3368 47.219 59.1659 51.4058 60.1282 53.6681C59.4064 54.4381 58.7327 55.2563 58.0109 56.0263C58.4918 55.7376 60.1764 54.8713 60.4655 54.3417L60.5614 54.5344L61.2355 54.1494C60.0805 51.5503 58.3959 47.5558 57.2405 44.9568C63.4973 44.8604 71.1495 44.6199 77.0214 45.0531L77.7432 44.6199C75.9145 44.4272 72.9305 44.3313 68.5991 44.3313ZM30.5296 25.7054C30.5556 26.2031 30.5395 26.7022 30.4814 27.1972C30.4052 27.7488 30.2428 28.2851 30 28.7863L28.7969 27.5831L30.5296 25.7054ZM21.5778 28.9781C23.1178 28.3045 23.4064 25.609 23.2623 23.8281L27.8337 27.7272L27.7855 27.7754C24.465 30.5668 20.2778 32.1072 15.8978 32.5881L15.9941 30.6631C17.005 30.4222 20.47 29.5081 21.5773 28.9786L21.5778 28.9781ZM11.1337 29.1227L14.0696 25.4168L20.9037 28.6895C19.8932 29.1227 16.9091 29.9408 15.6096 30.2777L11.1337 29.1227ZM24.0323 35.3795C22.54 36.6786 20.1337 38.0745 20.7596 40.3363C18.6863 38.634 17.0108 36.4986 15.8505 34.0799L15.8987 33.069C20.4228 32.5877 24.8505 30.9995 28.3155 28.1599L29.615 29.2672C28.5564 31.914 26.1978 33.5986 24.0323 35.3795ZM31.2514 31.2886L28.5082 36.1977L24.5137 35.8122C26.6791 33.9836 28.9896 32.299 30.2405 29.7963C30.2887 29.7963 31.4441 30.8072 31.4441 30.8072L31.2514 31.2886ZM32.0214 30.4704C32.0214 30.4704 30.5778 29.219 30.5296 29.219C30.9637 28.0349 31.1282 26.7688 31.011 25.5131C31.6364 24.7427 36.0641 23.1068 38.0855 23.2995C37.1232 26.7645 36.0641 29.1713 32.0214 30.4704ZM75 33.7431C74.0486 35.0713 73.1023 36.4028 72.1605 37.7377C71.4386 37.6413 70.6205 37.4968 69.8505 37.4008C69.7059 36.0049 67.925 33.5022 67.2995 32.2027H67.2514V32.1545C65.6632 29.5558 64.6523 27.5827 68.1177 25.9945C70.6204 28.2563 73.2191 30.4699 75.8182 32.684C75.5273 33.0225 75.2541 33.376 75 33.7431ZM79.5241 28.8818C82.2191 30.6145 86.1177 32.0104 87.6577 34.4649C87.7309 34.6707 87.7273 34.8958 87.6477 35.0992C87.5682 35.3025 87.4177 35.4703 87.2245 35.5718C85.9805 36.5294 84.8064 37.5748 83.7114 38.6999L79.7645 35.2831L79.6204 35.2349H79.6686L76.6845 32.6359C77.6473 31.3845 78.5614 30.1331 79.5241 28.8818ZM72.305 24.0208C73.2191 23.6358 74.1336 23.2027 75.0482 22.8663C74.615 26.139 76.2032 26.6681 78.8986 28.5936C78.8986 28.5936 77.0214 31.0481 76.1068 32.2509C73.6041 30.1331 71.1018 27.9677 68.6473 25.7536C69.8505 25.1281 71.0055 24.5986 72.305 24.0208ZM64.6041 20.7481C64.7105 20.6041 64.8636 20.502 65.0373 20.4595V20.5077C67.1505 21.7168 69.3364 22.7938 71.5827 23.7322C70.3795 24.2618 69.3209 24.7913 68.2141 25.3204C66.7218 23.7804 64.845 22.529 64.6041 20.7481ZM62.7273 19.1118C63.305 19.449 63.8341 19.7858 64.4118 20.1227H64.46C62.1977 21.0849 66.4814 24.4058 67.6364 25.609C67.0445 25.9115 66.4809 26.2659 65.9518 26.6681L58.7327 24.0208C59.9359 22.2404 60.8986 20.4595 62.7273 19.1118ZM53.92 22.3363L51.4173 21.374L54.1605 17.5718L58.7809 16.6572C59.2623 16.9463 59.7914 17.2831 60.3209 17.6199C58.0586 18.7749 54.2568 19.4486 53.92 22.3363ZM54.0159 34.4168C54.7382 30.5181 54.5936 26.5236 54.69 22.5772C54.8341 19.6895 58.6364 19.1118 60.8505 18.0049C61.2836 18.2458 61.6686 18.5345 62.1018 18.7749H62.1495C60.2245 20.1227 59.2623 21.9513 58.0109 23.7804C55.7968 27.294 56.8077 31.1922 57.7218 35.1868C56.3745 34.8981 55.1232 34.6572 54.0159 34.4168ZM57.4814 29.219C57.3964 27.5851 57.745 25.9578 58.4918 24.5022L65.5668 27.1013C64.1714 28.6413 65.5186 30.6627 66.385 32.0586H66.3368C66.9145 33.2618 68.7914 35.9568 68.9841 37.2563C65.6632 36.6309 61.9091 36.1013 58.5882 35.2831C58.2032 33.3099 57.4332 30.9031 57.4814 29.219ZM49.9732 46.1117C55.5564 48.9513 55.5564 54.4381 50.5509 58.1922C51.7059 55.4008 47.1336 48.1813 45.8341 45.1977C46.5564 45.1977 47.4705 45.1977 48.5295 45.1495C48.9145 45.4381 49.4441 45.7749 49.9732 46.1117ZM57.0482 44.4754C54.8823 44.5236 50.5991 44.6199 48.9627 44.6681C46.0268 40.914 58.9732 41.9727 58.54 35.8604C64.5082 37.0158 67.3477 37.5449 71.8236 38.219C70.4277 40.2886 69.0805 42.3099 67.6364 44.3313C64.2191 44.3313 60.5132 44.3795 57.0482 44.4754Z" fill="#84ECFD"/>
<path d="M50.5991 17.1385C53.1119 15.0297 55.916 13.2951 58.925 11.9885L55.0269 9.91943C50.3582 12.4222 44.7755 15.7431 43.2833 21.1813C43.2119 21.5145 43.1637 21.8523 43.1392 22.1922C43.091 24.7908 43.9092 27.4376 43.2833 30.0853C42.321 35.1385 36.7378 36.8231 32.4065 38.1708C31.5418 38.3943 30.7367 38.8051 30.0483 39.374C26.4387 44.0422 50.8396 48.5181 41.6951 55.6413L42.5133 56.1226C51.6096 49.3844 35.1496 45.0049 32.166 40.529C32.2142 39.9513 33.0324 39.8072 33.5133 39.6144C42.5615 37.4008 48.6255 33.6463 47.23 23.3953C47.1819 20.8926 48.8182 18.7272 50.5991 17.1385Z" fill="#50E6FF"/>
<path d="M14.9909 16.1455C14.3289 15.708 13.5296 15.5282 12.744 15.6401C12.5573 15.6784 12.377 15.7431 12.2086 15.8324C11.4554 16.2337 10.9895 17.1324 10.9895 18.4314C10.9895 23.1905 14.9645 25.786 14.9954 30.8005C15.0045 29.3892 15.3263 28.5383 15.7922 27.9305C16.959 26.4069 19.0013 26.4674 19.0013 23.0578C18.9922 20.5124 17.2027 17.421 14.9909 16.1455ZM16.8763 22.8728C16.5627 23.5346 15.8354 23.7046 14.9868 23.2169C14.3905 22.8296 13.8941 22.3072 13.5377 21.692C13.1812 21.0769 12.9749 20.3863 12.9354 19.6764C12.9354 18.706 13.4495 18.166 14.1809 18.2328C14.4659 18.2664 14.7404 18.3601 14.9868 18.5069C15.5829 18.8942 16.0793 19.4167 16.4356 20.0319C16.792 20.647 16.9982 21.3375 17.0377 22.0474C17.0468 22.3311 16.9916 22.6133 16.8763 22.8728Z" fill="#2195DC"/>
<path d="M14.9909 18.5055C14.7186 18.3404 14.4143 18.2353 14.0982 18.1973C13.2841 18.1282 12.7136 18.7246 12.7136 19.8046C12.7573 20.5933 12.9868 21.3607 13.3834 22.0439C13.7799 22.7272 14.3322 23.3071 14.9954 23.7364C15.9404 24.2809 16.75 24.0891 17.0945 23.3514C17.2222 23.0625 17.2846 22.749 17.2773 22.4332C17.2292 21.6455 16.9974 20.8801 16.6004 20.1981C16.2034 19.5161 15.6521 18.9361 14.9909 18.5055Z" fill="#2195DC"/>
<path d="M16.0709 15.5219C14.9559 14.8778 13.95 14.8214 13.2273 15.2432L13.2032 15.2614L12.2104 15.8391C12.3789 15.7499 12.5592 15.6852 12.7459 15.6469C13.5314 15.5368 14.3301 15.7161 14.9932 16.1514C17.2068 17.4273 18.9991 20.5237 18.9991 23.0623C18.9991 26.4714 16.9568 26.4105 15.79 27.935C15.2088 28.7744 14.928 29.7853 14.9932 30.8041L16.0704 30.1814C16.0973 25.2 20.0768 27.1978 20.0768 22.4396C20.0768 19.8896 18.2832 16.7978 16.0709 15.5219Z" fill="#0078D4"/>
<path d="M16.8678 24.2181L15.9101 23.665L15.6314 22.5068L14.2423 21.7054L13.9678 22.5418L13.0142 21.9927L14.4337 18.335L15.4746 18.9363L16.8678 24.2181ZM15.4314 21.6191L15.0133 19.8722C14.9773 19.728 14.9552 19.5807 14.9473 19.4322L14.926 19.4195C14.9169 19.5395 14.8937 19.6581 14.856 19.7722L14.4296 21.0436L15.4314 21.6191Z" fill="white"/>
<path d="M78.9995 14.2236C78.3377 13.7865 77.5386 13.6071 76.7536 13.719C76.5668 13.7573 76.3868 13.822 76.2186 13.9113C75.4659 14.3113 75 15.2104 75 16.5099C75 21.2668 78.9736 23.8599 79.0036 28.869C79.0123 27.459 79.3345 26.6068 79.8005 26.0013C80.9664 24.4786 83.0077 24.5395 83.0077 21.1318C83.0032 18.5881 81.2086 15.4986 78.9995 14.2236ZM80.8882 20.9408C80.5745 21.6022 79.8482 21.7718 78.9995 21.2845C78.4036 20.8974 77.9077 20.3753 77.5514 19.7605C77.195 19.1458 76.9891 18.4557 76.9495 17.7463C76.9495 16.7758 77.4632 16.2363 78.1941 16.3027C78.4791 16.3362 78.7536 16.4296 78.9995 16.5768C79.5955 16.9638 80.0914 17.486 80.4473 18.1008C80.8036 18.7155 81.0095 19.4056 81.0491 20.1149C81.0591 20.3989 81.0041 20.6814 80.8882 20.9408Z" fill="#2195DC"/>
<path d="M78.9995 16.5824C78.7277 16.4169 78.4232 16.3115 78.1073 16.2733C77.2932 16.2038 76.7236 16.8001 76.7236 17.8797C76.7673 18.668 76.9964 19.4348 77.3927 20.1177C77.7886 20.8006 78.3409 21.3802 79.0036 21.8092C79.9482 22.3528 80.7577 22.1615 81.1014 21.4242C81.2291 21.1353 81.2914 20.8218 81.2841 20.506C81.2377 19.7187 81.0068 18.9533 80.61 18.2717C80.2132 17.5901 79.6614 17.0114 78.9995 16.5824Z" fill="#2195DC"/>
<path d="M80.0827 13.5969C78.9686 12.9533 77.965 12.8965 77.2432 13.3183L77.2172 13.3356L76.225 13.9101C76.3932 13.821 76.5732 13.756 76.76 13.7178C77.545 13.608 78.3432 13.7873 79.0054 14.2224C81.2163 15.4974 83.0095 18.5919 83.0095 21.1292C83.0095 24.5365 80.9682 24.4756 79.8022 25.9987C79.2209 26.8376 78.9404 27.8484 79.0054 28.8669L80.0845 28.2442C80.1113 23.2656 84.0886 25.2633 84.0886 20.5069C84.0822 17.966 82.2936 14.8719 80.0827 13.5969Z" fill="#0078D4"/>
<path d="M80.7355 20.9865C80.7355 21.3946 80.6096 21.6433 80.3527 21.7387C80.1705 21.7753 79.9827 21.7725 79.8018 21.7304C79.6209 21.6882 79.4514 21.6079 79.3041 21.4946L77.8027 20.6287V16.1528L79.2214 16.971C79.6109 17.1838 79.9518 17.4756 80.2223 17.8278C80.4427 18.106 80.5664 18.4478 80.5746 18.8024C80.5832 18.8977 80.5686 18.9938 80.5323 19.0824C80.4959 19.171 80.4391 19.2496 80.3659 19.3115C80.2855 19.365 80.1936 19.3988 80.0973 19.4103C80.0014 19.4217 79.9041 19.4105 79.8132 19.3774V19.3901C80.0846 19.5827 80.31 19.8323 80.4746 20.1215C80.64 20.38 80.73 20.6797 80.7355 20.9865ZM79.6564 18.4574C79.6564 18.1269 79.4432 17.8392 79.0123 17.591L78.6818 17.3987V18.4606L79.0668 18.6824C79.1268 18.7282 79.1959 18.7604 79.2696 18.7771C79.3432 18.7937 79.4195 18.7942 79.4932 18.7787C79.6045 18.7447 79.6564 18.636 79.6564 18.4574ZM79.8127 20.4374C79.8109 20.25 79.7518 20.0676 79.6427 19.9151C79.5191 19.7388 79.3568 19.593 79.1682 19.4887L78.6873 19.2101V20.3896L79.1614 20.6642C79.2286 20.7142 79.3055 20.7499 79.3873 20.7693C79.4686 20.7888 79.5532 20.7915 79.6359 20.7774C79.7523 20.7419 79.8127 20.6292 79.8127 20.4374Z" fill="white"/>
<path d="M34.2405 7.60916L37.1255 5.93279C38.5214 5.1237 40.3837 5.07507 42.4873 5.91143L39.6032 7.58779C37.4987 6.7487 35.6341 6.79734 34.2405 7.60916ZM61.8323 20.2955C61.7941 14.3332 57.4145 7.00734 51.9913 3.87642C49.1518 2.23778 46.5686 2.06596 44.7468 3.1246L41.8623 4.80052C43.6832 3.74142 46.2677 3.91414 49.1059 5.55325C54.5291 8.68188 58.9095 16.0096 58.9473 21.9723L58.9282 21.9828C62.7004 24.8878 65.5586 30.1251 65.5468 34.4373C65.54 36.751 64.7077 38.3783 63.3541 39.1651L66.2591 37.4769C67.6132 36.6905 68.4454 35.0623 68.4518 32.7492C68.4618 28.4378 65.6041 23.2001 61.8323 20.2955Z" fill="#156AB3"/>
<path d="M59.055 21.9635C59.0195 15.9763 54.62 8.6158 49.1727 5.47126C44.7649 2.92673 40.9668 3.90492 39.669 7.52762C35.1272 5.72171 31.699 8.02308 31.6845 13.1922C31.6681 18.9385 35.9372 26.0663 41.2218 29.1167C41.5045 29.2804 41.7827 29.429 42.0613 29.5594L57.5586 38.5063C57.685 38.5803 57.8214 38.6363 57.9632 38.6731C62.23 40.9313 65.6414 39.0658 65.655 34.3813C65.6632 30.0813 62.8159 24.8599 59.055 21.9635Z" fill="url(#paint0_linear_1070_947)"/>
<path d="M54.5786 20.575C55.0173 21.8654 55.2495 23.2168 55.2673 24.5796C55.2673 29.0455 52.36 30.9705 48.6109 29.2768C48.3482 29.1639 48.0927 29.0352 47.8455 28.8914C47.535 28.7305 47.2514 28.5227 47.0041 28.2755H46.9277C43.1786 25.58 40.3477 20.3437 40.3477 15.9546C40.3191 14.8041 40.5823 13.665 41.1127 12.6437C42.1836 10.7955 44.25 10.1791 46.6214 11.1032C46.7645 11.1059 46.9014 11.1605 47.0064 11.2577C47.2364 11.4114 47.5423 11.5655 47.7718 11.7196C47.9836 11.8768 48.215 12.0059 48.46 12.1046C48.6132 12.1818 48.6895 12.2587 48.845 12.3355C51.4823 14.3858 53.4514 17.1732 54.5023 20.3441L54.5786 20.4214V20.575ZM47.4632 22.8082V17.11L44.25 15.2618C44.0551 16.1733 43.9525 17.1021 43.9436 18.0341C43.9727 19.045 44.1018 20.0509 44.3286 21.0368L47.4632 22.8082ZM48.2282 17.4946V23.1932L51.2118 24.8873C51.4577 24.0623 51.5873 23.2068 51.5973 22.3464C51.6127 21.2859 51.51 20.2269 51.2909 19.1891L48.2282 17.4946ZM49.7586 28.8914C50.4991 29.0969 51.2864 29.0581 52.0032 28.7807C52.72 28.5032 53.3282 28.002 53.7373 27.3514L51.6714 26.1196C51.3145 27.2089 50.6505 28.1713 49.7586 28.8914ZM54.0418 26.6587C54.3627 25.8774 54.5186 25.0385 54.5009 24.1941C54.51 23.0933 54.3291 21.9992 53.9655 20.96L51.9 19.7282C52.0814 20.7713 52.1836 21.8266 52.2059 22.885C52.2018 23.7464 52.0723 24.6025 51.8209 25.4264L54.0418 26.6587ZM41.0363 16.3396C41.039 17.3577 41.1936 18.3705 41.4954 19.3427L43.5609 20.575C43.3194 19.6192 43.2164 18.6337 43.255 17.6487C43.2301 16.7151 43.333 15.7825 43.5609 14.8768L41.5718 13.7214C41.2172 14.5487 41.035 15.4395 41.0363 16.3396ZM41.8013 20.4214C42.5931 22.6931 43.9028 24.7493 45.6268 26.4273C44.8319 24.8854 44.2157 23.2577 43.7904 21.5759L41.8013 20.4214ZM47.4632 27.8137V23.6555L44.5559 21.9609C45.1677 24.1941 46.0859 26.3505 47.0809 27.5827C47.2336 27.6596 47.3105 27.7364 47.4632 27.8137ZM47.4632 16.2627V12.2582C47.2641 12.1685 47.0595 12.0914 46.8509 12.0273C46.0859 11.95 45.0909 12.7973 44.4795 14.5682L47.4632 16.2627ZM53.6609 19.8818C52.9182 17.8737 51.7718 16.0392 50.2918 14.4918C50.9627 15.8669 51.4759 17.3136 51.8218 18.8041L53.6609 19.8818ZM48.3809 28.3527C49.3759 28.2755 50.2941 27.1977 50.9059 25.6573L48.2282 24.1173V28.2755C48.2691 28.3173 48.3232 28.3446 48.3809 28.3527ZM48.2282 12.7209V16.6482L51.0591 18.3418C50.4473 15.8009 49.4523 13.7987 48.6873 13.0282C48.5341 12.9514 48.3809 12.7977 48.2282 12.7209ZM45.1677 11.5655C43.7904 11.4882 42.6427 11.9505 41.954 13.0287L43.7163 14.1068C44.0011 13.1606 44.4974 12.2916 45.1677 11.5655Z" fill="#50E6FF"/>
<defs>
<linearGradient id="paint0_linear_1070_947" x1="46.7159" y1="7.72262" x2="50.2318" y2="36.7531" gradientUnits="userSpaceOnUse">
<stop stop-color="#2195DC"/>
<stop offset="1" stop-color="#156AB3"/>
</linearGradient>
</defs>
</svg>
