<svg width="100" height="71" viewBox="0 0 100 71" fill="none" xmlns="http://www.w3.org/2000/svg">
<g clip-path="url(#clip0_1070_918)">
<mask id="mask0_1070_918" style="mask-type:luminance" maskUnits="userSpaceOnUse" x="0" y="0" width="100" height="71">
<path d="M100 0H0V70.4545H100V0Z" fill="white"/>
</mask>
<g mask="url(#mask0_1070_918)">
<path d="M77.781 23.1173L81.9233 20.7246L81.8115 60.4937L77.6692 62.886L77.781 23.1173Z" fill="#D9D9D9"/>
<path d="M68.5763 39.7154V41.5822L55.7563 34.239V32.3722L68.5763 39.7154ZM68.5763 44.2004V46.0672L55.7563 38.7241V36.8572L68.5763 44.2004ZM70.0695 36.2304V38.0977L55.7563 29.7586V27.8909L70.0695 36.2304Z" fill="#E2E2E2"/>
<path d="M78.4661 22.7228L79.1588 22.3228L79.0447 62.09L78.3542 62.49L78.4661 22.7228Z" fill="#C8C8C8"/>
<path d="M79.8492 21.9227L80.5401 21.5227L80.4283 61.2918L79.7356 61.6918L79.8492 21.9227Z" fill="#C8C8C8"/>
<path d="M81.2323 21.1251L81.9232 20.7251L81.8114 60.4919L81.1187 60.8919L81.2323 21.1251Z" fill="#C8C8C8"/>
<path d="M72.75 21.8196L74.1296 21.0232L74.11 27.9236L72.7305 28.72L72.75 21.82V21.8196Z" fill="#2195DC"/>
<path d="M67.4233 18.7596L68.8047 17.9614L74.1297 21.0232L72.7506 21.8196L67.4233 18.7596Z" fill="#32B0E7"/>
<path d="M36.9988 26.8058L40.0397 25.0386L45.087 27.9536L42.0474 29.719L36.9988 26.8058Z" fill="#0078D4"/>
<path d="M43.8242 27.8328L46.8655 26.0669L51.9142 28.9814L48.8728 30.7473L43.8242 27.8328Z" fill="#0078D4"/>
<path d="M50.6069 44.4436L53.6483 42.6768L58.6956 45.5913L55.6556 47.3586L50.6069 44.4436Z" fill="#0078D4"/>
<path d="M75.5454 40.091L75.4545 65.1364C75.4545 67.091 74.0909 67.8637 72.409 66.8637L31.0455 43.0001C30.1669 42.4182 29.4356 41.6402 28.9091 40.7273C28.3829 39.8091 28.072 38.7832 28 37.7273L28.0909 12.6819L75.5454 40.091Z" fill="#FBFBFB"/>
<path d="M74.5911 67.0455L76.4547 65.9545C77.0002 65.6364 77.3183 64.9545 77.3183 64L75.4547 65.0909C75.4547 66.0909 75.0911 66.7273 74.5911 67.0455Z" fill="#DCDCDC"/>
<path d="M75.5455 40.0909L75.4546 65.1364L77.3182 64.0455L77.4091 39L75.5455 40.0909Z" fill="#DCDCDC"/>
<path d="M72.5 29.0456C73.3786 29.6274 74.11 30.4054 74.6363 31.3183C75.1627 32.2366 75.4731 33.2624 75.5454 34.3183V40.2728L28.0454 12.8638V6.90921C28.0454 4.95467 29.409 4.18194 31.0909 5.13649L72.5 29.0456Z" fill="#F0F0F0"/>
<path d="M76.5454 30.1818C76.0054 29.2791 75.2768 28.5038 74.4091 27.9091L33.0455 4.04549C32.1818 3.54549 31.4091 3.50003 30.8636 3.81821L29 4.9091C29.5455 4.59092 30.3182 4.63638 31.1818 5.13638L72.5455 29C73.4241 29.5819 74.1555 30.3599 74.6818 31.2727C75.2082 32.1911 75.5186 33.2168 75.5909 34.2727V40.2273L77.4545 39.1364V33.1818C77.3609 32.13 77.0514 31.1087 76.5454 30.1818Z" fill="#D2D2D2"/>
<path d="M47.5909 30.4546C47.8736 30.6382 48.1077 30.8878 48.2727 31.1819C48.4391 31.4764 48.5472 31.801 48.5909 32.1364C48.5909 32.8182 48.1363 33 47.5909 32.7273L35.5454 25.7728C35.2479 25.5732 34.9993 25.3091 34.8181 25C34.6385 24.6975 34.5442 24.3519 34.5454 24C34.5454 23.3182 35 23.1364 35.5454 23.4546L47.5909 30.4546ZM57.3636 34.091L58.1818 35.5455L53.2272 38.3637L51.1818 34.8182L52 34.3182L53.2272 36.4546L57.3636 34.091Z" fill="#50E6FF"/>
<path d="M47.5455 44.2727C47.8282 44.4563 48.0623 44.7059 48.2273 45C48.3937 45.2945 48.5019 45.6186 48.5455 45.9545C48.5455 46.6363 48.091 46.8182 47.5455 46.5454L35.5 39.5909C35.2025 39.3913 34.9539 39.1272 34.7727 38.8182C34.5931 38.5156 34.4988 38.17 34.5 37.8182C34.5 37.1363 34.9546 36.9545 35.5 37.2727L47.5455 44.2727ZM57.3182 48.0909L58.1364 49.5454L53.1819 52.3636L51.1364 48.8182L51.9546 48.3182L53.1819 50.4545L57.3182 48.0909Z" fill="#32B0E7"/>
<path d="M47.5909 37.3184C47.8736 37.502 48.1077 37.7516 48.2727 38.0456C48.4259 38.3461 48.5331 38.6679 48.5909 39.0002C48.5909 39.682 48.1363 39.8638 47.5909 39.5911L35.5454 32.6365C35.2479 32.437 34.9993 32.1729 34.8181 31.8638C34.6385 31.5613 34.5442 31.2157 34.5454 30.8638C34.5454 30.182 35 30.0002 35.5454 30.3184L47.5909 37.3184ZM57.3636 40.9093L58.1818 42.3638L53.2272 45.182L51.0909 41.6365L51.9091 41.1365L53.1818 43.2729L57.3636 40.9093Z" fill="#45CAF2"/>
<path d="M35.091 55.5908C34.8387 53.3954 33.9907 51.3113 32.6386 49.5631C31.2866 47.8154 29.4821 46.4708 27.4206 45.6754C25.3591 44.8795 23.1192 44.663 20.9435 45.0491C18.7677 45.4353 16.7391 46.4094 15.0774 47.8658C12.8509 49.8176 11.4165 52.5172 11.0455 55.4544C10.9459 55.8863 10.9152 56.3313 10.9546 56.7726C11.091 58.4544 12.3183 60.0908 14.5001 61.409C19.2728 64.1363 26.9092 64.1363 31.6364 61.409C33.8183 60.1363 35.0001 58.4544 35.1365 56.8181C35.1686 56.4085 35.1534 55.9967 35.091 55.5908Z" fill="url(#paint0_linear_1070_918)"/>
<path d="M23.0455 43.591C24.4866 43.5974 25.8962 43.1697 27.0909 42.3637C28.2853 41.5659 29.2165 40.432 29.7666 39.1051C30.3167 37.7783 30.4612 36.3181 30.1818 34.9092C29.9063 33.4935 29.2091 32.1942 28.1818 31.1819C27.1517 30.1786 25.8601 29.4855 24.4546 29.1819C23.0507 28.9055 21.5965 29.0478 20.2727 29.591C18.9478 30.1536 17.8121 31.0844 17 32.2728C16.188 33.4646 15.7597 34.8762 15.7727 36.3183C15.7692 37.2695 15.9546 38.212 16.3182 39.091C16.692 39.9736 17.2322 40.7761 17.9091 41.4546C18.5796 42.1414 19.3842 42.6829 20.2727 43.0455C21.1517 43.4092 22.0942 43.5946 23.0455 43.591Z" fill="url(#paint1_linear_1070_918)"/>
<path d="M80.4241 45.2187C80.606 45.1278 80.606 44.7641 80.4241 44.4005L79.4241 42.6278C79.2423 42.3096 79.1969 41.946 79.3787 41.7641L80.4696 41.1278C80.6514 41.0369 80.6514 40.6732 80.4696 40.3096L79.0605 37.8551V37.2641L76.5605 38.7187V39.3096L77.9696 41.7641C78.0537 41.8736 78.1032 42.0057 78.1114 42.1435C78.1196 42.2813 78.0859 42.4184 78.015 42.5369L76.9241 43.1732C76.6969 43.3096 76.6969 43.6732 76.9241 44.0369L77.9696 45.8096C78.0537 45.9191 78.1032 46.051 78.1114 46.1891C78.1196 46.3269 78.0859 46.4637 78.015 46.5823L76.9696 47.2187C76.7423 47.3551 76.7423 47.7187 76.9696 48.0823L78.015 49.8551C78.1969 50.1732 78.1969 50.5369 78.015 50.6732L80.515 49.2187C80.6969 49.1278 80.6969 48.7641 80.515 48.4005L79.4696 46.6278C79.2878 46.2641 79.2423 45.9005 79.4241 45.7641L80.4241 45.2187ZM85.3637 27.5001L78.8182 16.1364C78.1859 14.9669 77.2619 13.9805 76.1364 13.2728C75.1819 12.6819 74.1819 12.591 73.4546 13.0001L70.9546 14.4546C71.6819 14.0455 72.6819 14.1819 73.6364 14.7273C74.7719 15.4229 75.6987 16.4123 76.3182 17.591L82.8637 28.9546C84.3637 31.5455 84.3637 34.3182 82.8637 35.1819L85.3637 33.7273C86.8637 32.8637 86.8637 30.0455 85.3637 27.5001ZM73.8637 22.9546L74 23.0001L74.091 23.0455C74.1364 23.0455 74.1819 23.091 74.2273 23.091H74.9091C74.9546 23.091 74.9546 23.091 75 23.0455C75.0455 23.0455 75.0455 23.0455 75.0909 23.0001C75.1364 23.0001 75.1364 22.9546 75.1819 22.9546C75.405 22.7987 75.5819 22.5855 75.6937 22.3375C75.8055 22.0895 75.8487 21.8159 75.8182 21.5455C75.8255 21.3926 75.8105 21.2394 75.7728 21.091C74.8246 20.3308 74.1928 19.2454 74 18.0455C73.8896 17.9537 73.7673 17.8773 73.6364 17.8182C73 17.4546 72.1591 17.3837 71.7955 17.6564L71.75 17.7019C71.7382 17.7019 71.7264 17.7066 71.7178 17.7152C71.7096 17.7237 71.7046 17.7353 71.7046 17.7473L71.6591 17.7928C71.6591 17.8382 71.6137 17.8382 71.6137 17.8837L71.5682 17.9291C71.5682 17.9746 71.5228 17.9746 71.5228 18.0201C71.5228 18.0655 71.4773 18.0655 71.4773 18.111C71.4723 18.1454 71.4564 18.1772 71.4319 18.2019C71.4319 18.2473 71.3864 18.2473 71.3864 18.2928C71.3864 18.3382 71.3409 18.3837 71.3409 18.4291V18.5201C71.3428 18.5837 71.3273 18.6466 71.2955 18.7019V18.9746C71.3223 19.769 71.516 20.5489 71.8637 21.2637C72.2446 21.9091 73.8637 22.9546 73.8637 22.9546Z" fill="#32B0E7"/>
<path d="M82.8637 35.1365L76.591 38.7274V39.3183L78.0001 41.7729C78.1819 42.0911 78.1819 42.4547 78.0001 42.5911L76.9546 43.182C76.7274 43.3183 76.7274 43.682 76.9546 44.0456L78.0001 45.8183C78.1819 46.1365 78.1819 46.5001 78.0001 46.6365L76.9546 47.2274C76.7274 47.3638 76.7274 47.7274 76.9546 48.091L78.0001 49.8638C78.1819 50.1819 78.1819 50.5456 78.0001 50.6819L76.5455 51.5001L74.091 52.9092C73.9892 52.9465 73.881 52.9619 73.7728 52.9547C73.6619 52.9456 73.5537 52.9147 73.4546 52.8638C73.2024 52.711 72.9974 52.4906 72.8637 52.2274L70.3637 47.9092C70.1337 47.5238 70.0083 47.0851 70.0001 46.6365L70.0455 34.9093C70.031 34.5393 69.9215 34.1793 69.7274 33.8638L64.2728 24.4093C62.7728 21.8183 62.8183 19.0456 64.2728 18.182L70.9092 14.4093C71.6365 14.0002 72.6365 14.1365 73.591 14.682C74.7265 15.3775 75.6533 16.3669 76.2728 17.5456L82.8183 28.9093C84.3637 31.5002 84.3637 34.3183 82.8637 35.1365ZM73.591 17.8183C72.4092 17.1365 71.4092 17.682 71.4092 19.0456C71.4601 19.7961 71.6774 20.5261 72.0455 21.182C72.4265 21.8278 72.9565 22.3733 73.591 22.7729C74.7728 23.4547 75.7728 22.9093 75.7728 21.5456C75.7219 20.7951 75.5046 20.0653 75.1365 19.4093C74.7555 18.7633 74.2255 18.2178 73.591 17.8183ZM68.8637 27.2729L78.5001 32.8638C78.8183 33.0456 79.091 32.9092 79.091 32.5456V32.4093C79.0942 32.198 79.0305 31.9912 78.9092 31.8183C78.8115 31.6361 78.671 31.4802 78.5001 31.3638L68.8637 25.7729C68.5455 25.5911 68.2728 25.7274 68.2728 26.0911V26.2274C68.2696 26.4388 68.3333 26.6456 68.4546 26.8183C68.5796 26.9797 68.7165 27.132 68.8637 27.2729ZM68.3183 23.7274V23.8638C68.3151 24.0752 68.3787 24.282 68.5001 24.4547C68.6119 24.6265 68.7496 24.7802 68.9092 24.9093L78.5455 30.4547C78.8637 30.6365 79.1365 30.5002 79.1365 30.1365V30.0002C79.1396 29.7889 79.076 29.5821 78.9546 29.4093C78.8569 29.227 78.7165 29.071 78.5455 28.9547L68.9092 23.3638C68.591 23.2274 68.3183 23.3638 68.3183 23.7274ZM72.591 48.0001L72.6365 38.5002C72.6301 38.283 72.5501 38.0746 72.4092 37.9093C72.3519 37.8004 72.2537 37.7188 72.1365 37.682C71.9092 37.5456 71.6819 37.6365 71.6819 37.9547L71.6365 47.4547C71.6328 47.631 71.6801 47.8047 71.7728 47.9547C71.8419 48.0924 71.9533 48.2038 72.091 48.2728C72.3637 48.4547 72.591 48.3638 72.591 48.0001Z" fill="url(#paint2_linear_1070_918)"/>
<path d="M68.8637 27.2727L78.5001 32.8636C78.8183 33.0455 79.091 32.9091 79.091 32.5455V32.4091C79.0942 32.1979 79.0306 31.991 78.9092 31.8182C78.8115 31.636 78.671 31.48 78.5001 31.3636L68.8637 25.7727C68.5455 25.5909 68.2728 25.7273 68.2728 26.0909V26.2273C68.2696 26.4386 68.3333 26.6455 68.4546 26.8182C68.5796 26.9795 68.7165 27.1318 68.8637 27.2727ZM68.3183 23.7273V23.8636C68.3151 24.075 68.3787 24.2818 68.5001 24.4545C68.5978 24.6368 68.7383 24.7927 68.9092 24.9091L78.5455 30.4545C78.8637 30.6364 79.1365 30.5 79.1365 30.1364V30C79.1396 29.7888 79.076 29.582 78.9546 29.4091C78.8569 29.2269 78.7165 29.0709 78.5455 28.9545L68.9092 23.3636C68.591 23.2273 68.3183 23.3636 68.3183 23.7273ZM72.591 48L72.6365 38.5C72.6301 38.283 72.5496 38.0745 72.4092 37.9091C72.3183 37.8182 72.2728 37.7273 72.1365 37.6818C71.9092 37.5455 71.6819 37.6364 71.6819 37.9545L71.6365 47.4545C71.6328 47.6309 71.6801 47.8045 71.7728 47.9545C71.8419 48.0923 71.9533 48.2036 72.091 48.2727C72.3637 48.4545 72.591 48.3636 72.591 48Z" fill="#ACF3FD"/>
</g>
</g>
<defs>
<linearGradient id="paint0_linear_1070_918" x1="23.0378" y1="44.8722" x2="23.0378" y2="63.4508" gradientUnits="userSpaceOnUse">
<stop stop-color="#4DC2EB"/>
<stop offset="1" stop-color="#0078D4"/>
</linearGradient>
<linearGradient id="paint1_linear_1070_918" x1="23.0405" y1="29.0469" x2="23.0405" y2="43.5937" gradientUnits="userSpaceOnUse">
<stop stop-color="#4DC2EB"/>
<stop offset="1" stop-color="#0078D4"/>
</linearGradient>
<linearGradient id="paint2_linear_1070_918" x1="73.5742" y1="2.3165" x2="73.5742" y2="56.5456" gradientUnits="userSpaceOnUse">
<stop offset="0.09" stop-color="#50E6FF"/>
<stop offset="1" stop-color="#45CAF2"/>
</linearGradient>
<clipPath id="clip0_1070_918">
<rect width="100" height="70.4545" fill="white"/>
</clipPath>
</defs>
</svg>
