<svg width="220" height="135" viewBox="0 0 220 135" fill="none" xmlns="http://www.w3.org/2000/svg">
<path d="M65.5093 109.72C68.8091 111.76 74.2946 114.028 80.0947 114.028C85.3761 114.028 90.2833 112.51 94.3485 109.923C94.3485 109.923 94.357 109.923 94.3655 109.914L109.716 100.406V134.738C107.284 134.738 104.835 134.08 102.709 132.765L65.5093 109.72Z" fill="#225086"/>
<path d="M100.059 4.26062L36.9694 75.3549C32.0989 80.8509 33.3691 89.1536 39.6865 93.0949C39.6865 93.0949 63.0382 107.675 65.9824 109.516C69.2463 111.549 74.672 113.81 80.409 113.81C85.6328 113.81 90.4865 112.297 94.5075 109.717C94.5075 109.717 94.5159 109.717 94.5243 109.709L109.708 100.23L72.998 77.3046L109.716 35.9253V0C106.15 0 102.583 1.42021 100.059 4.26062Z" fill="#66DDFF"/>
<path d="M72.7988 77.4369L73.2386 77.7063L109.708 100.407H109.716V35.9855L109.708 35.9771L72.7988 77.4369Z" fill="#CBF8FF"/>
<path d="M179.745 93.3017C186.064 89.3526 187.334 81.0334 182.463 75.5266L141.058 28.7862C137.718 27.2285 133.973 26.3359 130.011 26.3359C122.228 26.3359 115.269 29.6956 110.642 34.975L109.725 36.0107L146.443 77.4717L109.716 100.442V134.737C112.131 134.737 114.537 134.081 116.641 132.767L179.745 93.2932V93.3017Z" fill="#074793"/>
<path d="M109.725 0V35.977L110.654 34.9419C115.341 29.6653 122.389 26.3074 130.271 26.3074C134.294 26.3074 138.078 27.2079 141.461 28.7564L119.483 4.27517C116.934 1.43067 113.321 0.00841608 109.716 0.00841608L109.725 0Z" fill="#0294E4"/>
<path d="M146.634 77.4393L109.716 35.9771V100.407L146.634 77.4393Z" fill="#96BCC2"/>
</svg>
