<svg width="14" height="14" viewBox="0 0 14 14" fill="none" xmlns="http://www.w3.org/2000/svg">
<g clip-path="url(#clip0_789_102)">
<path d="M0.875 2.625C0.875 1.6585 1.6585 0.875 2.625 0.875H11.375C12.3415 0.875 13.125 1.6585 13.125 2.625V11.375C13.125 12.3415 12.3415 13.125 11.375 13.125H2.625C1.6585 13.125 0.875 12.3415 0.875 11.375V2.625Z" fill="#00A6ED"/>
<path d="M2.81503 5.42576C2.73779 5.30115 2.58726 5.2429 2.44626 5.28305C2.30526 5.32321 2.20801 5.45202 2.20801 5.59863V8.42187C2.20801 8.60309 2.35491 8.75 2.53613 8.75C2.71735 8.75 2.86426 8.60309 2.86426 8.42187V6.94282C2.86426 6.88777 2.93642 6.86722 2.96543 6.91401L4.00724 8.59474C4.08448 8.71935 4.23501 8.7776 4.37601 8.73745C4.51701 8.69729 4.61426 8.56848 4.61426 8.42187V5.59863C4.61426 5.41741 4.46735 5.27051 4.28613 5.27051C4.10491 5.27051 3.95801 5.41741 3.95801 5.59863V7.07768C3.95801 7.13273 3.88584 7.15328 3.85684 7.10649L2.81503 5.42576Z" fill="white"/>
<path d="M5.5872 5.28789C5.40599 5.28789 5.25908 5.43479 5.25908 5.61601V8.41945C5.25908 8.60067 5.40599 8.74757 5.5872 8.74757H7.17649C7.3577 8.74757 7.50461 8.60067 7.50461 8.41945C7.50461 8.23823 7.3577 8.09132 7.17649 8.09132H5.97002C5.93981 8.09132 5.91533 8.06684 5.91533 8.03663V7.45475C5.91533 7.42454 5.93981 7.40006 5.97002 7.40006H7.15508C7.33629 7.40006 7.4832 7.25315 7.4832 7.07193C7.4832 6.89072 7.33629 6.74381 7.15508 6.74381H5.97002C5.93981 6.74381 5.91533 6.71932 5.91533 6.68912V5.99883C5.91533 5.96862 5.93981 5.94414 5.97002 5.94414H7.17649C7.3577 5.94414 7.50461 5.79723 7.50461 5.61601C7.50461 5.43479 7.3577 5.28789 7.17649 5.28789H5.5872Z" fill="white"/>
<path d="M8.20391 5.30989C8.37847 5.26125 8.55942 5.36334 8.60806 5.53791L9.01295 6.9912C9.02773 7.04423 9.10276 7.04466 9.11814 6.9918L9.54235 5.53428C9.58293 5.39486 9.71032 5.29869 9.85552 5.29786C10.0007 5.29703 10.1292 5.39174 10.1714 5.53069L10.6132 6.98652C10.6292 7.03926 10.7044 7.03788 10.7184 6.98458L11.0987 5.54231C11.1449 5.36709 11.3244 5.26249 11.4997 5.3087C11.6749 5.3549 11.7795 5.53441 11.7333 5.70964L11.0087 8.45768C10.9712 8.59959 10.8442 8.69939 10.6974 8.70209C10.5507 8.70479 10.42 8.60974 10.3774 8.46931L9.91741 6.9536C9.90161 6.90155 9.82777 6.90197 9.81257 6.9542L9.37265 8.46572C9.33168 8.60648 9.20231 8.70299 9.05571 8.70214C8.90911 8.7013 8.78085 8.60331 8.74151 8.46209L7.97588 5.71404C7.92725 5.53947 8.02934 5.35853 8.20391 5.30989Z" fill="white"/>
</g>
<defs>
<clipPath id="clip0_789_102">
<rect width="14" height="14" fill="white"/>
</clipPath>
</defs>
</svg>
