<svg width="60" height="32" viewBox="0 0 60 32" fill="none" xmlns="http://www.w3.org/2000/svg">
<path d="M25.1525 9.93401L33.428 14.8853L38.3601 12.8133C39.3326 12.3938 40.4067 12.1586 41.5316 12.1586C41.716 12.1586 41.8939 12.165 42.0721 12.1777C40.7118 6.85775 35.8877 2.92346 30.1418 2.92346C25.839 2.92346 22.0572 5.12894 19.858 8.46581C19.9025 8.46581 19.9407 8.46581 19.9851 8.46581C21.8856 8.46581 23.6589 9.00606 25.1589 9.93401H25.1525Z" fill="url(#paint0_linear_1073_1093)"/>
<path d="M25.1525 9.93405C23.6461 9.00608 21.8792 8.46582 19.9788 8.46582C19.9343 8.46582 19.8961 8.46582 19.8516 8.46582C14.4681 8.53573 10.1271 12.915 10.1271 18.3175C10.1271 20.415 10.7817 22.3536 11.894 23.9489L19.1906 20.879L22.4322 19.5124L29.6526 16.4743L33.4215 14.8853L25.1461 9.9277L25.1525 9.93405Z" fill="url(#paint1_linear_1073_1093)"/>
<path d="M42.0722 12.1776C41.894 12.1649 41.7161 12.1586 41.5317 12.1586C40.4068 12.1586 39.3326 12.3937 38.3602 12.8132L33.4281 14.8853L34.8581 15.7433L39.5423 18.5526L41.5889 19.7793L48.5806 23.9679C49.1908 22.8365 49.5404 21.5463 49.5404 20.1671C49.5404 15.9277 46.2417 12.4637 42.0784 12.184L42.0722 12.1776Z" fill="url(#paint2_linear_1073_1093)"/>
<path d="M41.5889 19.773L39.5422 18.5463L34.858 15.7369L33.428 14.8789L29.6588 16.4679L22.4385 19.506L19.197 20.8725L11.9004 23.9424C13.6801 26.4912 16.6356 28.1627 19.9851 28.1627H41.5381C44.5825 28.1627 47.2331 26.4594 48.5868 23.9552L41.5954 19.7666L41.5889 19.773Z" fill="url(#paint3_linear_1073_1093)"/>
<defs>
<linearGradient id="paint0_linear_1073_1093" x1="-61.3072" y1="1.13744" x2="-55.5105" y2="11.1861" gradientUnits="userSpaceOnUse">
<stop stop-color="#0572C0"/>
<stop offset="0.88" stop-color="#0364B8"/>
</linearGradient>
<linearGradient id="paint1_linear_1073_1093" x1="-68.9915" y1="5.61837" x2="-63.9385" y2="14.3578" gradientUnits="userSpaceOnUse">
<stop stop-color="#1885D9"/>
<stop offset="0.89" stop-color="#107AD5"/>
</linearGradient>
<linearGradient id="paint2_linear_1073_1093" x1="-52.5041" y1="7.75391" x2="-46.7775" y2="17.6692" gradientUnits="userSpaceOnUse">
<stop stop-color="#138EDE"/>
<stop offset="0.94" stop-color="#0D7AD5"/>
</linearGradient>
<linearGradient id="paint3_linear_1073_1093" x1="-62.2544" y1="10.881" x2="-55.0021" y2="23.4403" gradientUnits="userSpaceOnUse">
<stop offset="0.1" stop-color="#29A9EA"/>
<stop offset="0.79" stop-color="#1C94E3"/>
</linearGradient>
</defs>
</svg>
