<svg width="100" height="54" viewBox="0 0 100 54" fill="none" xmlns="http://www.w3.org/2000/svg">
<path d="M42.1591 16.6508L56.03 24.9498L64.2968 21.4768C65.9268 20.7737 67.7272 20.3795 69.6127 20.3795C69.9218 20.3795 70.22 20.3901 70.5186 20.4115C68.2386 11.4946 60.1527 4.90015 50.5218 4.90015C43.3097 4.90015 36.9708 8.59683 33.2848 14.1899C33.3593 14.1899 33.4233 14.1899 33.4978 14.1899C36.6832 14.1899 39.6555 15.0954 42.1697 16.6508H42.1591Z" fill="url(#paint0_linear_1070_964)"/>
<path d="M42.1591 16.6507C39.6343 15.0952 36.6726 14.1897 33.4873 14.1897C33.4127 14.1897 33.3488 14.1897 33.2742 14.1897C24.2507 14.3069 16.9745 21.6471 16.9745 30.7025C16.9745 34.2181 18.0718 37.4674 19.9361 40.1414L32.1662 34.9958L37.5995 32.7053L49.7018 27.613L56.0191 24.9497L42.1485 16.64L42.1591 16.6507Z" fill="url(#paint1_linear_1070_964)"/>
<path d="M70.5187 20.4113C70.22 20.3901 69.9218 20.3794 69.6128 20.3794C67.7273 20.3794 65.9268 20.7736 64.2968 21.4767L56.03 24.9497L58.4268 26.3879L66.2782 31.0967L69.7087 33.1528L81.4278 40.1734C82.4505 38.2771 83.0364 36.1145 83.0364 33.8027C83.0364 26.6969 77.5073 20.8908 70.5291 20.422L70.5187 20.4113Z" fill="url(#paint2_linear_1070_964)"/>
<path d="M69.7087 33.1423L66.2782 31.0862L58.4269 26.3774L56.03 24.9392L49.7123 27.6025L37.6101 32.6949L32.1769 34.9853L19.9468 40.1309C22.9297 44.403 27.8836 47.2047 33.4979 47.2047H69.6237C74.7264 47.2047 79.1691 44.3497 81.4382 40.1523L69.7196 33.1317L69.7087 33.1423Z" fill="url(#paint3_linear_1070_964)"/>
<defs>
<linearGradient id="paint0_linear_1070_964" x1="-102.759" y1="1.90653" x2="-93.0432" y2="18.7495" gradientUnits="userSpaceOnUse">
<stop stop-color="#0572C0"/>
<stop offset="0.88" stop-color="#0364B8"/>
</linearGradient>
<linearGradient id="paint1_linear_1070_964" x1="-115.639" y1="9.41698" x2="-107.169" y2="24.0654" gradientUnits="userSpaceOnUse">
<stop stop-color="#1885D9"/>
<stop offset="0.89" stop-color="#107AD5"/>
</linearGradient>
<linearGradient id="paint2_linear_1070_964" x1="-88.0041" y1="12.9966" x2="-78.4054" y2="29.6159" gradientUnits="userSpaceOnUse">
<stop stop-color="#138EDE"/>
<stop offset="0.94" stop-color="#0D7AD5"/>
</linearGradient>
<linearGradient id="paint3_linear_1070_964" x1="-104.347" y1="18.2382" x2="-92.1909" y2="39.2893" gradientUnits="userSpaceOnUse">
<stop offset="0.1" stop-color="#29A9EA"/>
<stop offset="0.79" stop-color="#1C94E3"/>
</linearGradient>
</defs>
</svg>
