<svg width="54" height="32" viewBox="0 0 54 32" fill="none" xmlns="http://www.w3.org/2000/svg">
<g clip-path="url(#clip0_1073_1093)">
<path d="M20.2792 8.87548L30.8995 15.2131L37.2289 12.5609C38.477 12.024 39.8555 11.723 41.2991 11.723C41.5357 11.723 41.764 11.7311 41.9927 11.7474C40.247 4.93787 34.056 -0.0980225 26.6821 -0.0980225C21.1602 -0.0980225 16.3068 2.72499 13.4846 6.99618C13.5417 6.99618 13.5907 6.99618 13.6477 6.99618C16.0866 6.99618 18.3624 7.68771 20.2873 8.87548H20.2792Z" fill="url(#paint0_linear_1073_1093)"/>
<path d="M20.2792 8.87555C18.346 7.68775 16.0785 6.99622 13.6396 6.99622C13.5825 6.99622 13.5335 6.99622 13.4764 6.99622C6.56762 7.0857 0.996582 12.6911 0.996582 19.6064C0.996582 22.2911 1.83671 24.7725 3.26416 26.8145L12.6281 22.8851L16.7881 21.1359L26.0543 17.2471L30.8911 15.2132L20.271 8.86743L20.2792 8.87555Z" fill="url(#paint1_linear_1073_1093)"/>
<path d="M41.9924 11.7474C41.7637 11.7312 41.5354 11.723 41.2988 11.723C39.8552 11.723 38.4767 12.024 37.2287 12.561L30.8992 15.2132L32.7343 16.3115L38.7457 19.9074L41.3722 21.4776L50.3449 26.839C51.128 25.3908 51.5766 23.7393 51.5766 21.9739C51.5766 16.5474 47.3432 12.1135 42.0004 11.7556L41.9924 11.7474Z" fill="url(#paint2_linear_1073_1093)"/>
<path d="M41.3724 21.4693L38.7459 19.8992L32.7345 16.3032L30.8994 15.205L26.0622 17.2388L16.7962 21.1277L12.6362 22.8768L3.27222 26.8063C5.55612 30.0687 9.34904 32.2082 13.6476 32.2082H41.3073C45.2142 32.2082 48.6158 30.028 50.3531 26.8226L41.3808 21.4612L41.3724 21.4693Z" fill="url(#paint3_linear_1073_1093)"/>
</g>
<defs>
<linearGradient id="paint0_linear_1073_1093" x1="-90.6774" y1="-2.38413" x2="-83.2674" y2="10.4949" gradientUnits="userSpaceOnUse">
<stop stop-color="#0572C0"/>
<stop offset="0.88" stop-color="#0364B8"/>
</linearGradient>
<linearGradient id="paint1_linear_1073_1093" x1="-100.539" y1="3.35148" x2="-94.0795" y2="14.5525" gradientUnits="userSpaceOnUse">
<stop stop-color="#1885D9"/>
<stop offset="0.89" stop-color="#107AD5"/>
</linearGradient>
<linearGradient id="paint2_linear_1073_1093" x1="-79.3805" y1="6.08505" x2="-72.0599" y2="18.7931" gradientUnits="userSpaceOnUse">
<stop stop-color="#138EDE"/>
<stop offset="0.94" stop-color="#0D7AD5"/>
</linearGradient>
<linearGradient id="paint3_linear_1073_1093" x1="-91.8931" y1="10.0877" x2="-82.6222" y2="26.1845" gradientUnits="userSpaceOnUse">
<stop offset="0.1" stop-color="#29A9EA"/>
<stop offset="0.79" stop-color="#1C94E3"/>
</linearGradient>
<clipPath id="clip0_1073_1093">
<rect width="54" height="32" fill="white"/>
</clipPath>
</defs>
</svg>
