<svg width="14" height="14" viewBox="0 0 14 14" fill="none" xmlns="http://www.w3.org/2000/svg">
<g clip-path="url(#clip0_789_99)">
<path d="M12.9588 4.29655L9.31875 0.98467C9.0475 0.73967 8.61875 0.93217 8.61875 1.29529V2.88779C8.61875 3.04092 8.49187 3.16779 8.33875 3.16779H1.39125C1.10687 3.16342 0.875 3.39967 0.875 3.68405V5.5303C0.875 5.81905 1.10688 6.05092 1.39563 6.05092H8.34312C8.49625 6.05092 8.62312 6.17779 8.62312 6.33092V7.92342C8.62312 8.28655 9.05625 8.47905 9.32312 8.23405L12.9631 4.92217C13.1425 4.75154 13.1425 4.46279 12.9588 4.29655Z" fill="#785DC8"/>
<path d="M5.26313 13.1253C4.50626 13.1253 3.88938 12.5084 3.88938 11.7515V10.4915C3.88938 9.73467 4.50626 9.1178 5.26313 9.1178C6.02001 9.1178 6.63688 9.73467 6.63688 10.4915V11.7515C6.63688 12.5084 6.02001 13.1253 5.26313 13.1253ZM5.26313 9.98842C4.98751 9.98842 4.76001 10.2115 4.76001 10.4915V11.7515C4.76001 12.0272 4.98313 12.2547 5.26313 12.2547C5.53876 12.2547 5.76626 12.0315 5.76626 11.7515V10.4915C5.76626 10.2115 5.53876 9.98842 5.26313 9.98842Z" fill="#785DC8"/>
<path d="M6.99124 11.7515C6.99124 12.5084 7.60812 13.1253 8.36499 13.1253C9.12187 13.1253 9.73874 12.5084 9.73874 11.7515V10.4915C9.73874 9.73467 9.12187 9.1178 8.36499 9.1178C7.60812 9.1178 6.99124 9.73467 6.99124 10.4915V11.7515ZM7.86187 10.4915C7.86187 10.2115 8.08937 9.98842 8.36499 9.98842C8.64062 9.98842 8.86812 10.2115 8.86812 10.4915V11.7515C8.86812 12.0315 8.64062 12.2547 8.36499 12.2547C8.08499 12.2547 7.86187 12.0272 7.86187 11.7515V10.4915Z" fill="#785DC8"/>
<path d="M2.35374 13.1253C1.86374 13.1253 1.39124 12.9459 1.02811 12.6178C0.848739 12.4559 0.831239 12.1803 0.993114 12.0009C1.15499 11.8215 1.43061 11.804 1.60999 11.9659C1.81561 12.1497 2.07811 12.2503 2.35374 12.2503H2.41936C2.54186 12.2415 2.62499 12.1978 2.67749 12.119C2.73874 12.0228 2.72124 11.9309 2.70374 11.8828C2.67311 11.7953 2.60749 11.7253 2.51999 11.6947L1.65374 11.3709C1.32124 11.244 1.06311 10.9815 0.949364 10.6403C0.839989 10.3078 0.879364 9.94905 1.06749 9.6603C1.27311 9.33655 1.60561 9.14842 2.01249 9.12217C2.05186 9.1178 2.09124 9.1178 2.13061 9.1178C2.62061 9.1178 3.09311 9.29717 3.45624 9.6253C3.63561 9.78717 3.65311 10.0628 3.49124 10.2422C3.32936 10.4215 3.05374 10.439 2.87436 10.2772C2.66874 10.0934 2.40624 9.9928 2.13061 9.9928H2.06499C1.94249 10.0015 1.85936 10.0453 1.80686 10.124C1.74561 10.2203 1.76311 10.3122 1.78061 10.3603C1.81124 10.4478 1.87686 10.5178 1.96436 10.5484L2.83061 10.8722C3.16311 10.999 3.42124 11.2615 3.53499 11.6028C3.64436 11.9353 3.60499 12.294 3.41686 12.5828C3.21124 12.9065 2.87874 13.0947 2.47186 13.1209C2.43249 13.1253 2.39311 13.1253 2.35374 13.1253Z" fill="#785DC8"/>
<path d="M12.2981 12.9284C12.3769 13.0553 12.5169 13.1253 12.6612 13.1253C12.7006 13.1253 12.7444 13.1209 12.7881 13.1078C12.9719 13.0509 13.0987 12.8803 13.0987 12.6878V9.55092C13.0987 9.31029 12.9019 9.11342 12.6612 9.11342C12.4206 9.11342 12.2237 9.31029 12.2237 9.55092V11.2265L10.9681 9.31029C10.8631 9.14842 10.6619 9.07404 10.4781 9.13092C10.2944 9.18779 10.1675 9.35842 10.1675 9.55092V12.6878C10.1675 12.9284 10.3644 13.1253 10.605 13.1253C10.8456 13.1253 11.0425 12.9284 11.0425 12.6878V11.0122L12.2981 12.9284Z" fill="#785DC8"/>
</g>
<defs>
<clipPath id="clip0_789_99">
<rect width="14" height="14" fill="white"/>
</clipPath>
</defs>
</svg>
