<svg width="100" height="82" viewBox="0 0 100 82" fill="none" xmlns="http://www.w3.org/2000/svg">
<path d="M84.0228 44.9826C84.0228 41.8842 79.5037 40.8652 77.7651 38.4789C75.3715 35.1948 75.1137 30.9902 70.7387 30.2743C70.521 25.2045 68.3133 20.4249 64.5951 16.9717C60.8769 13.5186 55.9474 11.6702 50.8751 11.8274C46.7774 11.7515 42.7567 12.9497 39.3689 15.2567C35.9811 17.5636 33.3931 20.8654 31.9622 24.7062C27.6254 25.2333 23.6211 27.2975 20.6758 30.5242C17.7306 33.7509 16.0395 37.9264 15.9092 42.2933C16.0995 47.1945 18.225 51.8204 21.8197 55.1572C25.4145 58.4945 30.1854 60.2704 35.0872 60.0963C35.6592 60.0963 36.2236 60.0699 36.7766 60.0245H67.8374C68.1142 60.0208 68.3892 59.9804 68.6555 59.9031C72.6455 59.8745 76.471 58.3072 79.3337 55.5272C82.1969 52.7477 83.8765 48.9704 84.0228 44.9826Z" fill="url(#paint0_linear_1067_900)"/>
<path d="M78.5682 31.479H46.076C45.4482 31.479 44.9395 31.9878 44.9395 32.6154V44.2782C44.9395 44.9058 45.4482 45.4146 46.076 45.4146H78.5682C79.196 45.4146 79.7046 44.9058 79.7046 44.2782V32.6154C79.7046 31.9878 79.196 31.479 78.5682 31.479Z" fill="#005BA1"/>
<path d="M75.14 22.7402H49.5077C48.88 22.7402 48.3713 23.249 48.3713 23.8766V42.6266C48.3713 43.2542 48.88 43.763 49.5077 43.763H75.14C75.7677 43.763 76.2763 43.2542 76.2763 42.6266V23.8766C76.2763 23.249 75.7677 22.7402 75.14 22.7402Z" fill="url(#paint1_linear_1067_900)"/>
<path d="M42.8258 37.6418H81.8182C82.4209 37.6418 82.9991 37.8813 83.4255 38.3075C83.8514 38.7338 84.0909 39.3118 84.0909 39.9146V63.0205H40.5569V39.9146C40.5569 39.3125 40.7958 38.735 41.2212 38.3088C41.6466 37.8828 42.2237 37.6428 42.8258 37.6418Z" fill="#5EA0EF"/>
<path d="M84.0909 60.0396H40.5569V63.9032H84.0909V60.0396Z" fill="#0078D4"/>
<path d="M77.2955 53.2668H47.3373C46.7096 53.2668 46.2009 53.7755 46.2009 54.4032V56.6455C46.2009 57.2732 46.7096 57.7818 47.3373 57.7818H77.2955C77.9232 57.7818 78.4318 57.2732 78.4318 56.6455V54.4032C78.4318 53.7755 77.9232 53.2668 77.2955 53.2668Z" fill="#83B9F9"/>
<path d="M76.6855 45.926C77.2819 45.926 77.765 45.4426 77.765 44.8464C77.765 44.2502 77.2819 43.7668 76.6855 43.7668C76.0896 43.7668 75.606 44.2502 75.606 44.8464C75.606 45.4426 76.0896 45.926 76.6855 45.926Z" fill="#C3F1FF"/>
<path d="M48.3713 54.051H76.2763V68.5319C76.2763 68.8333 76.1567 69.1224 75.9436 69.3356C75.7304 69.5487 75.4413 69.6683 75.1399 69.6683H49.5036C49.2022 69.6683 48.9136 69.5487 48.7004 69.3356C48.4872 69.1224 48.3672 68.8333 48.3672 68.5319V54.051H48.3713Z" fill="url(#paint2_linear_1067_900)"/>
<defs>
<linearGradient id="paint0_linear_1067_900" x1="49.966" y1="60.104" x2="49.966" y2="11.8274" gradientUnits="userSpaceOnUse">
<stop stop-color="#773ADC"/>
<stop offset="0.817" stop-color="#A67AF4"/>
</linearGradient>
<linearGradient id="paint1_linear_1067_900" x1="62.3218" y1="22.7402" x2="62.3218" y2="43.7667" gradientUnits="userSpaceOnUse">
<stop stop-color="#C3F1FF"/>
<stop offset="0.999" stop-color="#9CEBFF"/>
</linearGradient>
<linearGradient id="paint2_linear_1067_900" x1="62.3217" y1="69.6683" x2="62.3217" y2="54.051" gradientUnits="userSpaceOnUse">
<stop stop-color="#C3F1FF"/>
<stop offset="0.999" stop-color="#9CEBFF"/>
</linearGradient>
</defs>
</svg>
