<svg width="40" height="32" viewBox="0 0 40 32" fill="none" xmlns="http://www.w3.org/2000/svg">
<path d="M32.8622 17.5932C32.8622 16.3814 31.0947 15.9828 30.4147 15.0495C29.4785 13.7651 29.3777 12.1206 27.6666 11.8406C27.5815 9.85776 26.718 7.98839 25.2638 6.63782C23.8095 5.28726 21.8815 4.56434 19.8977 4.62582C18.2951 4.59613 16.7225 5.06477 15.3975 5.96704C14.0725 6.8693 13.0603 8.16068 12.5007 9.66285C10.8045 9.86903 9.23838 10.6764 8.08645 11.9383C6.93454 13.2004 6.27312 14.8334 6.22217 16.5414C6.29662 18.4583 7.12789 20.2675 8.53385 21.5726C9.93979 22.8778 11.8058 23.5724 13.7229 23.5043C13.9466 23.5043 14.1674 23.494 14.3836 23.4762H26.5319C26.6401 23.4748 26.7477 23.459 26.8519 23.4288C28.4124 23.4176 29.9086 22.8046 31.0282 21.7173C32.148 20.6302 32.8049 19.1529 32.8622 17.5932Z" fill="url(#paint0_linear_1073_1040)"/>
<path d="M30.729 12.3118H18.0209C17.7754 12.3118 17.5764 12.5108 17.5764 12.7562V17.3177C17.5764 17.5631 17.7754 17.7621 18.0209 17.7621H30.729C30.9745 17.7621 31.1734 17.5631 31.1734 17.3177V12.7562C31.1734 12.5108 30.9745 12.3118 30.729 12.3118Z" fill="#005BA1"/>
<path d="M29.388 8.89404H19.3629C19.1174 8.89404 18.9185 9.09303 18.9185 9.33849V16.6718C18.9185 16.9173 19.1174 17.1163 19.3629 17.1163H29.388C29.6335 17.1163 29.8324 16.9173 29.8324 16.6718V9.33849C29.8324 9.09303 29.6335 8.89404 29.388 8.89404Z" fill="url(#paint1_linear_1073_1040)"/>
<path d="M16.7497 14.7222H32.0001C32.2358 14.7222 32.4619 14.8158 32.6287 14.9825C32.7953 15.1492 32.889 15.3753 32.889 15.6111V24.648H15.8623V15.6111C15.8623 15.3756 15.9557 15.1497 16.1221 14.983C16.2885 14.8164 16.5142 14.7226 16.7497 14.7222Z" fill="#5EA0EF"/>
<path d="M32.889 23.4822H15.8623V24.9933H32.889V23.4822Z" fill="#0078D4"/>
<path d="M30.231 20.8333H18.514C18.2685 20.8333 18.0696 21.0322 18.0696 21.2777V22.1547C18.0696 22.4002 18.2685 22.5991 18.514 22.5991H30.231C30.4765 22.5991 30.6754 22.4002 30.6754 22.1547V21.2777C30.6754 21.0322 30.4765 20.8333 30.231 20.8333Z" fill="#83B9F9"/>
<path d="M29.9925 17.9621C30.2258 17.9621 30.4148 17.7731 30.4148 17.5399C30.4148 17.3067 30.2258 17.1177 29.9925 17.1177C29.7595 17.1177 29.5703 17.3067 29.5703 17.5399C29.5703 17.7731 29.7595 17.9621 29.9925 17.9621Z" fill="#C3F1FF"/>
<path d="M18.9186 21.1399H29.8325V26.8035C29.8325 26.9214 29.7858 27.0345 29.7024 27.1178C29.619 27.2012 29.506 27.248 29.3881 27.248H19.3614C19.2436 27.248 19.1307 27.2012 19.0473 27.1178C18.9639 27.0345 18.917 26.9214 18.917 26.8035V21.1399H18.9186Z" fill="url(#paint2_linear_1073_1040)"/>
<defs>
<linearGradient id="paint0_linear_1073_1040" x1="19.5422" y1="23.5073" x2="19.5422" y2="4.62582" gradientUnits="userSpaceOnUse">
<stop stop-color="#773ADC"/>
<stop offset="0.817" stop-color="#A67AF4"/>
</linearGradient>
<linearGradient id="paint1_linear_1073_1040" x1="24.3746" y1="8.89404" x2="24.3746" y2="17.1177" gradientUnits="userSpaceOnUse">
<stop stop-color="#C3F1FF"/>
<stop offset="0.999" stop-color="#9CEBFF"/>
</linearGradient>
<linearGradient id="paint2_linear_1073_1040" x1="24.3748" y1="27.248" x2="24.3748" y2="21.1399" gradientUnits="userSpaceOnUse">
<stop stop-color="#C3F1FF"/>
<stop offset="0.999" stop-color="#9CEBFF"/>
</linearGradient>
</defs>
</svg>
