<svg width="54" height="34" viewBox="0 0 54 34" fill="none" xmlns="http://www.w3.org/2000/svg">
<path d="M45.0294 19.3174C45.0294 17.5547 42.4462 16.975 41.4523 15.6175C40.0841 13.7492 39.9367 11.3573 37.4359 10.95C37.3114 8.06581 36.0494 5.34673 33.924 3.38225C31.7986 1.4178 28.9808 0.36629 26.0813 0.455709C23.739 0.412525 21.4407 1.09418 19.5041 2.40658C17.5676 3.71896 16.0882 5.59733 15.2703 7.7823C12.7912 8.08221 10.5023 9.2565 8.81872 11.0921C7.13516 12.9278 6.16846 15.3032 6.09399 17.7874C6.20281 20.5757 7.41775 23.2073 9.4726 25.1056C11.5274 27.0041 14.2546 28.0144 17.0566 27.9154C17.3836 27.9154 17.7062 27.9004 18.0223 27.8745H35.7774C35.9356 27.8724 36.0928 27.8494 36.2451 27.8055C38.5259 27.7892 40.7126 26.8976 42.349 25.3161C43.9856 23.7348 44.9457 21.5859 45.0294 19.3174Z" fill="url(#paint0_linear_1073_1040)"/>
<path d="M41.9117 11.6353H23.3384C22.9795 11.6353 22.6887 11.9247 22.6887 12.2817V18.9166C22.6887 19.2736 22.9795 19.5631 23.3384 19.5631H41.9117C42.2706 19.5631 42.5613 19.2736 42.5613 18.9166V12.2817C42.5613 11.9247 42.2706 11.6353 41.9117 11.6353Z" fill="#005BA1"/>
<path d="M39.9517 6.66406H25.2997C24.9409 6.66406 24.6501 6.9535 24.6501 7.31053V17.9772C24.6501 18.3342 24.9409 18.6237 25.2997 18.6237H39.9517C40.3106 18.6237 40.6013 18.3342 40.6013 17.9772V7.31053C40.6013 6.9535 40.3106 6.66406 39.9517 6.66406Z" fill="url(#paint1_linear_1073_1040)"/>
<path d="M21.4803 15.1414H43.7693C44.1138 15.1414 44.4443 15.2776 44.6881 15.5201C44.9315 15.7625 45.0685 16.0914 45.0685 16.4343V29.579H20.1833V16.4343C20.1833 16.0918 20.3199 15.7632 20.5631 15.5208C20.8063 15.2784 21.1361 15.1419 21.4803 15.1414Z" fill="#5EA0EF"/>
<path d="M45.0685 27.8832H20.1833V30.0812H45.0685V27.8832Z" fill="#0078D4"/>
<path d="M41.1838 24.0302H24.059C23.7002 24.0302 23.4094 24.3195 23.4094 24.6766V25.9522C23.4094 26.3093 23.7002 26.5987 24.059 26.5987H41.1838C41.5426 26.5987 41.8334 26.3093 41.8334 25.9522V24.6766C41.8334 24.3195 41.5426 24.0302 41.1838 24.0302Z" fill="#83B9F9"/>
<path d="M40.8354 19.854C41.1763 19.854 41.4524 19.579 41.4524 19.2399C41.4524 18.9007 41.1763 18.6257 40.8354 18.6257C40.4947 18.6257 40.2183 18.9007 40.2183 19.2399C40.2183 19.579 40.4947 19.854 40.8354 19.854Z" fill="#C3F1FF"/>
<path d="M24.6503 24.4762H40.6015V32.7142C40.6015 32.8857 40.5331 33.0501 40.4113 33.1714C40.2894 33.2927 40.1241 33.3607 39.9519 33.3607H25.2975C25.1253 33.3607 24.9603 33.2927 24.8384 33.1714C24.7165 33.0501 24.6479 32.8857 24.6479 32.7142V24.4762H24.6503Z" fill="url(#paint2_linear_1073_1040)"/>
<defs>
<linearGradient id="paint0_linear_1073_1040" x1="25.5617" y1="27.9198" x2="25.5617" y2="0.455711" gradientUnits="userSpaceOnUse">
<stop stop-color="#773ADC"/>
<stop offset="0.817" stop-color="#A67AF4"/>
</linearGradient>
<linearGradient id="paint1_linear_1073_1040" x1="32.6246" y1="6.66406" x2="32.6246" y2="18.6258" gradientUnits="userSpaceOnUse">
<stop stop-color="#C3F1FF"/>
<stop offset="0.999" stop-color="#9CEBFF"/>
</linearGradient>
<linearGradient id="paint2_linear_1073_1040" x1="32.6247" y1="33.3607" x2="32.6247" y2="24.4762" gradientUnits="userSpaceOnUse">
<stop stop-color="#C3F1FF"/>
<stop offset="0.999" stop-color="#9CEBFF"/>
</linearGradient>
</defs>
</svg>
