<svg width="54" height="32" viewBox="0 0 54 32" fill="none" xmlns="http://www.w3.org/2000/svg">
<path d="M27.2766 31.8354L24.929 22.8553L27.2766 15.5891L34.1895 12.573L41.2977 15.5891C40.1238 22.2385 35.1676 27.2426 27.7332 31.7667C27.6028 31.7667 27.4724 31.8354 27.2766 31.8354Z" fill="url(#paint0_linear_1073_1125)"/>
<path d="M27.2764 15.5232V31.838C27.0809 31.838 26.9505 31.7693 26.7547 31.7007C19.3203 27.1765 14.4293 22.1724 13.1902 15.5232L19.9725 13.1925L27.2764 15.5232Z" fill="url(#paint1_linear_1073_1125)"/>
<path d="M27.2766 0.441528C29.2983 0.441528 31.059 1.05849 32.4286 2.08673C34.6459 3.66336 36.211 4.48593 40.7109 4.55448C41.2326 4.55448 41.689 5.03432 41.689 5.58272V12.3691C41.689 13.4659 41.5585 14.4941 41.4281 15.5224H27.2766L24.929 7.84483L27.2766 0.441528Z" fill="url(#paint2_linear_1073_1125)"/>
<path d="M13.192 15.5222C12.9964 14.494 12.9312 13.3972 12.9312 12.369V5.58259C12.9312 5.0342 13.3224 4.55436 13.9094 4.55436C18.4092 4.48581 19.9743 3.66323 22.1916 2.0866C23.4959 1.05837 25.322 0.441406 27.3435 0.441406V15.5222H13.192Z" fill="url(#paint3_linear_1073_1125)"/>
<defs>
<linearGradient id="paint0_linear_1073_1125" x1="35.9702" y1="26.7136" x2="28.672" y2="14.6876" gradientUnits="userSpaceOnUse">
<stop stop-color="#114A8B"/>
<stop offset="1" stop-color="#0C59A4"/>
</linearGradient>
<linearGradient id="paint1_linear_1073_1125" x1="28.3417" y1="31.1801" x2="17.3341" y2="13.0417" gradientUnits="userSpaceOnUse">
<stop stop-color="#0669BC"/>
<stop offset="1" stop-color="#0078D4"/>
</linearGradient>
<linearGradient id="paint2_linear_1073_1125" x1="38.2769" y1="17.3893" x2="27.8054" y2="0.134459" gradientUnits="userSpaceOnUse">
<stop stop-color="#0078D4"/>
<stop offset="1" stop-color="#1493DF"/>
</linearGradient>
<linearGradient id="paint3_linear_1073_1125" x1="25.1143" y1="16.8492" x2="16.575" y2="2.77815" gradientUnits="userSpaceOnUse">
<stop stop-color="#28AFEA"/>
<stop offset="1" stop-color="#3CCBF4"/>
</linearGradient>
</defs>
</svg>
