<svg width="49" height="32" viewBox="0 0 49 32" fill="none" xmlns="http://www.w3.org/2000/svg">
<path d="M24.2765 31.8354L21.9288 22.8553L24.2765 15.5891L31.1894 12.573L38.2976 15.5891C37.1237 22.2385 32.1675 27.2426 24.7331 31.7667C24.6027 31.7667 24.4722 31.8354 24.2765 31.8354Z" fill="url(#paint0_linear_1073_1125)"/>
<path d="M24.2765 15.5232V31.838C24.081 31.838 23.9506 31.7693 23.7548 31.7007C16.3205 27.1765 11.4294 22.1724 10.1903 15.5232L16.9726 13.1925L24.2765 15.5232Z" fill="url(#paint1_linear_1073_1125)"/>
<path d="M24.2765 0.441528C26.2982 0.441528 28.0589 1.05849 29.4285 2.08673C31.6458 3.66336 33.2109 4.48593 37.7107 4.55448C38.2325 4.55448 38.6888 5.03432 38.6888 5.58272V12.3691C38.6888 13.4659 38.5584 14.4941 38.428 15.5224H24.2765L21.9288 7.84483L24.2765 0.441528Z" fill="url(#paint2_linear_1073_1125)"/>
<path d="M10.1919 15.5222C9.99624 14.494 9.93103 13.3972 9.93103 12.369V5.58259C9.93103 5.0342 10.3223 4.55436 10.9092 4.55436C15.409 4.48581 16.9742 3.66323 19.1915 2.0866C20.4958 1.05837 22.3219 0.441406 24.3434 0.441406V15.5222H10.1919Z" fill="url(#paint3_linear_1073_1125)"/>
<defs>
<linearGradient id="paint0_linear_1073_1125" x1="32.9701" y1="26.7136" x2="25.6719" y2="14.6876" gradientUnits="userSpaceOnUse">
<stop stop-color="#114A8B"/>
<stop offset="1" stop-color="#0C59A4"/>
</linearGradient>
<linearGradient id="paint1_linear_1073_1125" x1="25.3418" y1="31.1801" x2="14.3342" y2="13.0417" gradientUnits="userSpaceOnUse">
<stop stop-color="#0669BC"/>
<stop offset="1" stop-color="#0078D4"/>
</linearGradient>
<linearGradient id="paint2_linear_1073_1125" x1="35.2768" y1="17.3893" x2="24.8053" y2="0.134459" gradientUnits="userSpaceOnUse">
<stop stop-color="#0078D4"/>
<stop offset="1" stop-color="#1493DF"/>
</linearGradient>
<linearGradient id="paint3_linear_1073_1125" x1="22.1142" y1="16.8492" x2="13.5749" y2="2.77815" gradientUnits="userSpaceOnUse">
<stop stop-color="#28AFEA"/>
<stop offset="1" stop-color="#3CCBF4"/>
</linearGradient>
</defs>
</svg>
